<?xml version="1.0" encoding="utf-8"?>
<!-- Generator: Adobe Illustrator 20.0.0, SVG Export Plug-In . SVG Version: 6.00 Build 0)  -->
<svg version="1.1" id="Capa_1" xmlns="http://www.w3.org/2000/svg" xmlns:xlink="http://www.w3.org/1999/xlink" x="0px" y="0px"
	 viewBox="0 0 500 500" style="enable-background:new 0 0 500 500;" xml:space="preserve">
<style type="text/css">
	.st0{fill:#B2B2B2;}
</style>
<title>покупки</title>
<g>
	<path class="st0" d="M250,0C111.929,0,0,111.929,0,250s111.929,250,250,250s250-111.929,250-250
		C499.896,111.972,388.028,0.104,250,0z M250,471.698C127.56,471.698,28.302,372.44,28.302,250S127.56,28.302,250,28.302
		S471.698,127.56,471.698,250C471.594,372.397,372.397,471.594,250,471.698z"/>
	<path class="st0" d="M314.34,146.226c-7.757-5.732-16.625-9.781-26.038-11.887c-10.953-2.503-22.162-3.706-33.396-3.585h-73.019
		v113.208h-18.868v26.792h18.868v30.377h-18.868v26.226h18.868v41.509h37.736v-41.509h68.679v-26.604h-67.925v-30.377h29.434
		c11.24,0.027,22.446-1.24,33.396-3.774c10.009-2.259,19.489-6.423,27.925-12.264c7.914-5.72,14.376-13.216,18.868-21.887
		c5.072-10.181,7.535-21.462,7.17-32.83c0.324-10.941-1.737-21.821-6.038-31.887C327.42,159.275,321.646,151.88,314.34,146.226z
		 M284.717,233.019c-11.439,7.691-25.118,11.343-38.868,10.377h-25.472v-84.717h30.566c12.91-1.079,25.742,2.838,35.849,10.943
		c7.698,8.674,11.456,20.151,10.377,31.698c1.295,12.04-3.266,23.971-12.264,32.075L284.717,233.019z"/>
</g>
</svg>
