<svg id="Слой_1" data-name="Слой 1" xmlns="http://www.w3.org/2000/svg" xmlns:xlink="http://www.w3.org/1999/xlink" viewBox="0 0 500 500"><defs><style>.cls-1{fill:none;}.cls-2{fill:#303f9f;}.cls-3{clip-path:url(#clip-path);}.cls-4{fill:#f1f1f1;}</style><clipPath id="clip-path"><circle class="cls-1" cx="171.488" cy="250.003" r="157.028"/></clipPath></defs><title>иконки 500</title><circle class="cls-2" cx="171.488" cy="250.003" r="157.028"/><path class="cls-2" d="M171.486,414.879C80.574,414.879,6.607,340.912,6.607,250S80.574,85.121,171.486,85.121,336.365,159.088,336.365,250,262.4,414.879,171.486,414.879Zm0-314.055C89.231,100.824,22.31,167.744,22.31,250S89.231,399.176,171.486,399.176,320.662,332.256,320.662,250,253.742,100.824,171.486,100.824Z"/><path class="cls-2" d="M328.514,414.879c-90.912,0-164.879-73.967-164.879-164.879S237.6,85.121,328.514,85.121,493.393,159.088,493.393,250,419.426,414.879,328.514,414.879Zm0-314.055c-82.256,0-149.176,66.921-149.176,149.176s66.921,149.176,149.176,149.176S477.69,332.256,477.69,250,410.769,100.824,328.514,100.824Z"/><g class="cls-3"><path class="cls-4" d="M328.514,414.879c-90.912,0-164.879-73.967-164.879-164.879S237.6,85.121,328.514,85.121,493.393,159.088,493.393,250,419.426,414.879,328.514,414.879Zm0-314.055c-82.256,0-149.176,66.921-149.176,149.176s66.921,149.176,149.176,149.176S477.69,332.256,477.69,250,410.769,100.824,328.514,100.824Z"/></g></svg>