<svg id="Слой_1" data-name="Слой 1" xmlns="http://www.w3.org/2000/svg" viewBox="0 0 500 500"><defs><style>.cls-1{fill:#303f9f;}.cls-2{fill:#989898;}</style></defs><title>иконки 500</title><path class="cls-1" d="M250.812,313.15a17.1,17.1,0,0,1-12.146-4.463,14.237,14.237,0,0,1-4.784-10.811,13.783,13.783,0,0,1,4.831-10.857,17.7,17.7,0,0,1,12.1-4.232,17.2,17.2,0,0,1,12.053,4.279,14,14,0,0,1,4.692,10.811,14.315,14.315,0,0,1-4.646,10.949Q258.263,313.149,250.812,313.15ZM265.9,179.094L262.313,270H238.758l-3.4-90.9H265.9Z"/><path class="cls-2" d="M171.486,414.883C80.574,414.883,6.607,340.924,6.607,250S80.574,85.117,171.486,85.117,336.365,159.084,336.365,250,262.4,414.883,171.486,414.883Zm0-314.063C89.231,100.82,22.31,167.748,22.31,250S89.231,399.18,171.486,399.18,320.662,332.259,320.662,250,253.742,100.82,171.486,100.82Z"/><path class="cls-2" d="M328.514,414.883c-90.912,0-164.879-73.959-164.879-164.879S237.6,85.117,328.514,85.117,493.393,159.084,493.393,250,419.426,414.883,328.514,414.883Zm0-314.063c-82.256,0-149.176,66.928-149.176,149.184S246.258,399.18,328.514,399.18,477.69,332.259,477.69,250,410.769,100.82,328.514,100.82Z"/></svg>