<svg id="Слой_1" data-name="Слой 1" xmlns="http://www.w3.org/2000/svg" viewBox="0 0 467.891 467.891"><defs><style>.cls-1{fill:#3b309f;}</style></defs><title>kurs</title><path class="cls-1" d="M24.606,16.055h111.81v17.1H33.157V149.323h-17.1V16.055h8.551ZM182.4,309.7a57.547,57.547,0,0,1-27.428,6.776c-27.59,0-44.046-15.166-49.371-45.821H94.144V255.324h9.68a36.158,36.158,0,0,1-.323-6.292c0-2.743.161-5.647,0.484-9.035H94.144v-15h11.939c3.227-14.682,9.519-26.137,18.716-34.366,9.358-8.228,20.49-12.423,33.72-12.423a52.013,52.013,0,0,1,23.878,5.324v18.716a39.317,39.317,0,0,0-23.233-7.26,28.359,28.359,0,0,0-19.845,8.067c-5.808,5.486-9.842,12.746-12.1,21.942h43.24v15H124.8a69.964,69.964,0,0,0-.161,15.327h45.821v15.327H126.735c4.195,19.522,14.682,29.2,31.462,29.2,7.744,0,15.811-2.581,24.2-8.067V309.7Zm187.641,3.872v20.168H358.583V314.375c-13.875,0-25.008-2.743-33.72-8.067V285.5q5.566,4.84,15.489,8.228a55.543,55.543,0,0,0,18.232,3.388V255.647q-22.023-10.165-28.558-18.877c-4.356-5.647-6.454-12.423-6.454-20.329a33.273,33.273,0,0,1,9.842-24.04q9.922-10.165,25.169-12.1v-16.78h11.455v16.457c13.069,0.323,22.1,2.1,27.105,5.163v20.006c-6.776-5-15.811-7.744-27.105-8.067v43.078q20.571,9.439,28.073,18.393a31.721,31.721,0,0,1-1.936,43.24c-6.131,6.131-15,10.165-26.137,11.778h0Zm-11.455-78.735v-37.27a19.733,19.733,0,0,0-11.133,5.97,16.044,16.044,0,0,0-4.034,11.133c0,4.518.968,8.39,3.227,11.294s6.292,5.808,11.939,8.874h0Zm11.455,25.815v35.979c10.648-2.259,15.811-7.744,15.811-16.618,0-7.26-5.163-13.714-15.811-19.361h0Zm-78.251-80.187-64.7,156.017H207.406l64.375-156.017h20.006ZM33.157,376.331v90.513H136.415v17.1H16.054V376.331h17.1ZM363.423,16.055H483.946V149.323h-17.1V33.157H363.423v-17.1ZM483.946,376.331V483.945H363.423v-17.1h103.42V376.331h17.1Z" transform="translate(-16.054 -16.055)"/></svg>