<?xml version="1.0" encoding="utf-8"?>
<!-- Generator: Adobe Illustrator 20.0.0, SVG Export Plug-In . SVG Version: 6.00 Build 0)  -->
<svg version="1.1" id="Слой_1" xmlns="http://www.w3.org/2000/svg" xmlns:xlink="http://www.w3.org/1999/xlink" x="0px" y="0px"
	 viewBox="0 0 390.351 500" style="enable-background:new 0 0 390.351 500;" xml:space="preserve">
<style type="text/css">
	.st0{fill:#B2B2B2;}
</style>
<title>db</title>
<g>
	<path class="st0" d="M161.782,457.098V384.29h20.404c25.719,0,38.578,11.856,38.578,35.568c0.32,10.208-3.738,20.067-11.15,27.094
		c-7.809,7.091-18.12,10.782-28.655,10.258h-19.177V457.098z M170.367,391.984v57.421h11.15c8.158,0.487,16.177-2.279,22.299-7.693
		c5.756-5.934,8.681-14.058,8.028-22.299c0-18.657-9.923-27.986-29.77-27.986h-11.15L170.367,391.984z"/>
	<path class="st0" d="M234.701,457.098V384.29h20.738c5.383-0.296,10.69,1.367,14.941,4.683c3.637,2.923,5.699,7.378,5.575,12.042
		c0.172,3.987-1.007,7.916-3.345,11.15c-2.315,3.089-5.558,5.355-9.254,6.467l0,0c4.486,0.359,8.688,2.341,11.819,5.575
		c3.053,3.336,4.658,7.747,4.46,12.265c0.198,5.81-2.265,11.393-6.69,15.164c-4.738,3.962-10.776,6.027-16.948,5.798h-21.296
		V457.098z M243.287,391.984v23.526h8.697c3.998,0.266,7.958-0.922,11.15-3.345c2.715-2.38,4.194-5.871,4.014-9.477
		c0-7.433-4.646-11.15-13.937-11.15h-9.923V391.984z M243.287,423.203v26.202h11.15c4.017,0.135,7.957-1.126,11.15-3.568
		c2.779-2.438,4.297-6.008,4.125-9.7c0-8.622-5.872-12.934-17.617-12.934H243.287z"/>
	<path class="st0" d="M174.158,3.082c41.158-0.745,82.064,6.565,120.417,21.519c31.554,13.603,51.846,33.449,53.407,54.968l0,0
		v256.443l0,0c-0.026,2.339-0.363,4.663-1.003,6.913h18.063c6.635-0.024,13.01,2.582,17.728,7.247l0,0
		c4.644,4.534,7.36,10.684,7.582,17.171V472.15c-0.352,13.83-11.48,24.958-25.31,25.31H80.947c-6.69,0.081-13.113-2.626-17.728-7.47
		l0,0c-4.665-4.718-7.271-11.093-7.247-17.728v-79.163l-2.23-1.003C20.627,378.493,0,357.42,0,333.894l0,0l0,0v-79.163
		c-0.159-1.482-0.159-2.978,0-4.46v-1.003l0,0V171.22c-0.159-1.482-0.159-2.978,0-4.46v-1.226l0,0V86.816
		c-0.158-1.371-0.158-2.755,0-4.125v-0.892l0,0v-2.23l0,0C1.561,57.27,22.299,38.204,53.407,24.601
		C91.751,9.617,132.663,2.305,173.824,3.082l0,0L174.158,3.082z M340.4,358.312H80.947c-5.109-0.124-9.352,3.918-9.475,9.028
		c-0.001,0.038-0.002,0.077-0.002,0.115V472.15c0,5.234,4.243,9.477,9.477,9.477h284.094c5.185-0.118,9.359-4.293,9.477-9.477
		V367.343c-0.18-5.103-4.371-9.146-9.477-9.143H340.4V358.312z M330.589,342.479c0.949-2.76,1.402-5.667,1.338-8.585l0,0l0,0
		v-49.839c-11.056,10.336-23.902,18.573-37.909,24.306c-38.353,14.954-79.259,22.264-120.417,21.519
		c-41.158,0.745-82.064-6.565-120.417-21.519c-13.746-5.702-26.359-13.821-37.24-23.972v49.505l0,0
		c0,15.498,15.164,29.993,39.47,41.365v-7.916c0.036-6.624,2.633-12.976,7.247-17.728c4.88-4.626,11.339-7.217,18.063-7.247h249.865
		L330.589,342.479z M16.167,253.281c1.895,15.164,18.286,29.101,43.595,40.139c36.321,14.17,75.083,21.028,114.061,20.181
		c38.981,0.876,77.748-5.983,114.061-20.181c27.205-11.15,43.93-27.205,43.93-43.595v-0.557l0,0v-49.17
		c-10.892,10.546-23.78,18.809-37.909,24.306c-38.252,15.382-79.193,22.963-120.417,22.299
		c-41.224,0.664-82.165-6.918-120.417-22.299c-13.719-5.712-26.24-13.958-36.905-24.306v53.073L16.167,253.281z M322.115,125.06
		c-8.69,6.118-17.995,11.312-27.763,15.498c-38.353,14.954-79.259,22.264-120.417,21.519c-41.158,0.745-82.064-6.565-120.417-21.519
		c-13.732-5.628-26.345-13.671-37.24-23.749v53.184c1.784,14.829,18.174,29.101,43.261,39.804
		c36.296,14.292,75.06,21.265,114.061,20.515c39.004,0.779,77.774-6.195,114.061-20.515c27.205-11.15,43.93-26.871,43.93-43.261
		v-1.003l0,0v-49.282c-2.72,2.684-5.586,5.215-8.585,7.582l0,0l-1.226,0.669l0,0l0,0l0,0l0,0L322.115,125.06z M313.864,111.457
		c10.121-6.304,16.782-16.911,18.063-28.766v-0.892l0,0c-0.334-16.056-17.059-31.219-43.707-42.703
		c-36.321-14.17-75.083-21.028-114.061-20.181c-39.162-0.874-78.111,5.984-114.619,20.181
		C32.892,50.803,16.167,66.301,16.167,82.468s16.725,31.888,43.372,43.261c36.412,14.293,75.286,21.265,114.396,20.515
		c39.001,0.749,77.766-6.223,114.061-20.515c8.48-3.335,16.528-7.678,23.972-12.934l0.669-0.669l0,0L313.864,111.457z"/>
</g>
</svg>
