<?xml version="1.0" encoding="utf-8"?>
<!-- Generator: Adobe Illustrator 20.0.0, SVG Export Plug-In . SVG Version: 6.00 Build 0)  -->
<svg version="1.1" id="Capa_1" xmlns="http://www.w3.org/2000/svg" xmlns:xlink="http://www.w3.org/1999/xlink" x="0px" y="0px"
	 viewBox="0 0 543.738 500" style="enable-background:new 0 0 543.738 500;" xml:space="preserve">
<style type="text/css">
	.st0{fill:#B2B2B2;}
</style>
<title>отложенные</title>
<g>
	<path class="st0" d="M28.818,113.566h425.88c80.861,0,61.681,69.963,61.681,149.734v104.182c0,36.398,6.321,69.091-15.911,91.104
		c-22.231,22.013-57.322,14.821-91.104,14.821H90.281c-80.861,0-61.681-70.835-61.681-148.644V113.566l0,0H28.818z M28.818,86.976
		c0-27.68-6.974-58.193,23.539-59.937h163.247c27.68,2.615,21.795,35.962,21.795,59.719H28.818V86.976z M263.772,86.976
		c0-26.808,7.846-82.822-45.988-85.874c-40.975-2.397-89.361,0-130.772,0C66.67-1.556,45.989,0.61,26.639,7.423
		C12.154,14.878,2.581,29.32,1.356,45.565c-3.051,38.796,0,88.271,0,128.374S-1.041,408.02,2.01,431.777
		c4.822,32.96,30.035,59.224,62.77,65.386c43.519,3.176,87.191,3.686,130.772,1.526H457.75c34.901,2.691,67.46-17.746,80.207-50.347
		c9.59-24.411,5.231-212.94,5.231-253.261c1.919-20.014-0.005-40.21-5.667-59.501c-5.759-14.359-15.517-26.765-28.116-35.744
		c-28.116-18.744-76.066-12.859-115.297-12.859s-96.553,3.487-130.772,0l0,0L263.772,86.976z"/>
	<path class="st0" d="M229.771,245.21c-14.167,2.615-29.642,3.705-43.591,5.667c-17.654,2.18-34.219,0-34.219,17.872
		c6.244,11.323,15.051,21.026,25.718,28.334c9.011,9.248,18.861,17.638,29.424,25.065c-3.487,34.437-23.975,76.937-3.705,81.514
		c13.077,3.051,62.117-36.398,69.527-36.398s53.834,33.347,60.591,35.526c35.962,12.423,7.846-55.796,5.231-80.643
		c19.469-14.996,37.427-31.859,53.616-50.347c4.795-18.526-16.564-18.09-30.949-19.834c-14.385-1.744-32.257-4.359-47.95-5.667
		l-26.154-53.834c-1.046-7.726-7.468-13.598-15.257-13.949c-14.603,0-19.398,20.706-24.411,30.949s-11.552,24.411-18.526,35.744l0,0
		H229.771z"/>
</g>
</svg>
