<?xml version="1.0" encoding="utf-8"?>
<!-- Generator: Adobe Illustrator 20.0.0, SVG Export Plug-In . SVG Version: 6.00 Build 0)  -->
<svg version="1.1" id="Слой_1" xmlns="http://www.w3.org/2000/svg" xmlns:xlink="http://www.w3.org/1999/xlink" x="0px" y="0px"
	 viewBox="0 0 500 500" style="enable-background:new 0 0 500 500;" xml:space="preserve">
<style type="text/css">
	.st0{fill:#FFFFFF;}
</style>
<title>dnd</title>
<path class="st0" d="M305.359,325.407c5.711,7.614,18.197,17.512,18.197,23.908c-0.626,2.05-2.501,3.464-4.645,3.502
	c-4.188,0-9.517-8.299-12.03-11.345l-16.522-18.654c-3.943-3.971-7.535-8.277-10.736-12.868c-2.284-6.396,2.513-6.32,5.33-6.32
	s18.274,18.959,20.406,21.7l0,0V325.407z M332.161,309.189c4.264,7.614,21.548,30.456,9.061,30.456
	c-3.883,0-6.243-5.939-8.985-10.888c-3.959-7.614-21.471-35.177-21.471-39.441c-0.086-2.48,1.855-4.559,4.335-4.645
	c0.103-0.004,0.207-0.004,0.31,0c4.34,0,13.477,18.426,16.751,24.213l0,0V309.189z M361.931,326.473
	c-3.579-1.599-7.157-16.446-9.213-22.842c-2.056-6.396-3.502-10.583-5.787-16.446c-2.355-5.222-3.92-10.764-4.645-16.446
	c0-5.101,4.416-3.731,8.223-3.502c1.98,8.375,15.228,42.715,18.73,56.191c-3.046,2.056-3.35,4.645-7.614,2.817l0,0L361.931,326.473z
	 M323.861,194.903c0,12.639,17.893,26.877,3.502,26.877c-4.188,0-6.091-5.33-7.614-8.528
	c-11.421-20.634-13.705-26.649-27.715-26.649c-7.986,0.856-13.766,8.023-12.911,16.009c0.013,0.121,0.027,0.241,0.043,0.361
	c0,6.929,11.726,20.939,11.726,24.593c-0.044,2.012-0.457,4-1.218,5.863h-7.005c-7.614-13.705-14.771-31.598-26.954-31.598
	c-15.228,0-15.228,12.335-15.228,19.873c2.625,5.739,5.653,11.286,9.061,16.599c1.371,2.436,10.66,15.989,0,15.989
	c-4.568,0-7.614-7.614-9.594-11.497c-2.085-4.519-4.975-8.621-8.528-12.106c-7.415-4.873-17.376-2.813-22.249,4.602
	c-1.448,2.203-2.331,4.727-2.572,7.352c0,9.822,30.456,53.831,32.74,62.054c-9.441-6.396-32.283-25.659-42.105-25.659
	c-15.228,0-29.847,20.939-7.005,36.319l85.886,59.998c16.218,12.182,25.355,19.568,45.151,19.568
	c14.314,0,38.755-16.294,51.09-23.756c7.864-4.36,15.489-9.138,22.842-14.314c25.507-18.883,8.984-58.78,0.761-81.394
	c-5.169-14.606-11.194-28.894-18.045-42.791l-21.624-38.07c-3.883-6.548-6.091-13.477-16.599-13.934
	c-8.385-0.65-15.709,5.621-16.359,14.006c-0.004,0.052-0.008,0.104-0.011,0.156l0,0L323.861,194.903z"/>
<path class="st0" d="M402.057,215.842h35.101c7.614,0,10.507-1.066,15.228,2.589c3.504,2.306,5.751,6.098,6.091,10.279v217.684
	c-0.578,7.485-6.525,13.431-14.01,14.01H227.696c-7.099-0.527-12.885-5.903-13.934-12.944v-80.632
	c-3.165-1.845-6.216-3.879-9.137-6.091c-8.316-6.254-16.985-12.025-25.964-17.284c0,33.121,0,66.318,0,99.515
	c-0.74,13.281,4.025,26.281,13.172,35.938c8.446,9.33,20.006,15.259,32.512,16.675h220.806c23.756,0,47.968-23.299,47.968-46.826
	V227.948c-1.211-20.791-15.011-38.727-34.796-45.227c-8.299-2.817-66.699-3.274-76.14-1.371L402.057,215.842z"/>
<path class="st0" d="M255.716,39.121c31.903,0,30.456,1.523,30.456,33.958h35.101c0-21.395,2.208-37.08-14.314-53.298
	c-3.728-4.204-8.258-7.621-13.324-10.05c-14.238-7.005-22.157-5.406-38.07-5.406v35.101L255.716,39.121z"/>
<path class="st0" d="M6.434,50.846v22.233h35.101c0-31.827-1.447-33.958,29.238-33.958V4.096c-18.883,0-33.882-0.761-48.273,13.705
	C12.887,26.184,7.089,38.109,6.434,50.846C6.434,50.846,6.434,50.846,6.434,50.846z"/>
<path class="st0" d="M6.434,272.033c1.498,25.215,21.611,45.328,46.826,46.826h17.512v-34.872c-26.268,0-29.238,0.609-29.238-25.735
	H6.434v14.01V272.033z"/>
<rect x="100.01" y="4.02" class="st0" width="49.186" height="35.101"/>
<rect x="286.096" y="102.317" class="st0" width="35.101" height="49.186"/>
<path class="st0" d="M6.434,151.503h31.598c1.551,0.383,3.119-0.564,3.502-2.116c0.112-0.455,0.112-0.931,0-1.387v-45.684H6.434
	V151.503z"/>
<path class="st0" d="M100.086,287.261v31.598h49.186v-34.872h-45.684c-1.551-0.383-3.119,0.564-3.502,2.116
	c-0.112,0.455-0.112,0.931,0,1.387l0,0V287.261z"/>
<rect x="6.434" y="180.741" class="st0" width="35.101" height="47.968"/>
<rect x="178.434" y="4.02" class="st0" width="47.968" height="35.101"/>
</svg>
