<svg id="Слой_1" data-name="Слой 1" xmlns="http://www.w3.org/2000/svg" viewBox="0 0 38.38 35.7"><defs><style>.cls-1{fill:#617DBD;}</style></defs><title>drop box</title><polygon class="cls-1" points="11.29 0 0 7.37 7.81 13.62 19.19 6.59 11.29 0 11.29 0"/><polygon class="cls-1" points="0 19.88 11.29 27.25 19.19 20.65 7.81 13.62 0 19.88 0 19.88"/><polygon class="cls-1" points="19.19 20.65 27.09 27.25 38.38 19.88 30.58 13.62 19.19 20.65 19.19 20.65"/><polygon class="cls-1" points="38.38 7.37 27.09 0 19.19 6.59 30.58 13.62 38.38 7.37 38.38 7.37"/><polygon class="cls-1" points="19.21 22.07 11.29 28.65 7.9 26.43 7.9 28.91 19.21 35.7 30.53 28.91 30.53 26.43 27.14 28.65 19.21 22.07 19.21 22.07"/></svg>