<svg id="Слой_1" data-name="Слой 1" xmlns="http://www.w3.org/2000/svg" viewBox="0 0 489.088 440.1"><defs><style>.cls-1{fill:#d50000;}.cls-2{fill:#fff;}</style></defs><title>error</title><path class="cls-1" d="M42.259,470.05H457.741c28.159,0,45.855-30.369,31.973-54.868L281.973,48.582c-14.077-24.842-49.869-24.842-63.946,0L10.287,415.182C-3.6,439.681,14.1,470.05,42.259,470.05Z" transform="translate(-5.456 -29.95)"/><polygon class="cls-2" points="261.244 307.05 267.401 157.05 214.982 157.05 220.824 307.05 261.244 307.05"/><path class="cls-2" d="M267.647,366q-8.052-7.368-20.683-7.351-12.473,0-20.762,7.263a23.649,23.649,0,0,0-8.289,18.631,24.394,24.394,0,0,0,8.21,18.543q8.21,7.658,20.841,7.666,12.789,0,20.762-7.421a24.559,24.559,0,0,0,7.973-18.789A23.98,23.98,0,0,0,267.647,366Z" transform="translate(-5.456 -29.95)"/></svg>