<svg id="Слой_1" data-name="Слой 1" xmlns="http://www.w3.org/2000/svg" viewBox="0 0 472.068 465.029"><defs><style>.cls-1{fill:#303f9f;}</style></defs><title>expand</title><path class="cls-1" d="M144.838,17.2H457.446a27.669,27.669,0,0,1,19.9,8.495h0A28.4,28.4,0,0,1,485.6,45.835V358.685a28.154,28.154,0,0,1-8.252,19.9h0a28.154,28.154,0,0,1-19.9,8.252H144.838a28.4,28.4,0,0,1-20.145-8.252h0a27.669,27.669,0,0,1-8.495-19.9V45.592a27.911,27.911,0,0,1,8.495-20.145h0a27.911,27.911,0,0,1,20.145-8.495h0V17.2ZM42.173,112.579H94.355v17.96H42.173a10.194,10.194,0,0,0-7.281,2.912h0a10.922,10.922,0,0,0-2.912,7.281V453.342a10.194,10.194,0,0,0,2.912,7.281h0a10.194,10.194,0,0,0,7.281,2.913H354.538a10.922,10.922,0,0,0,7.281-2.913h0a10.194,10.194,0,0,0,2.913-7.281V407.227h18.446v46.115a28.4,28.4,0,0,1-8.252,20.145h0a27.669,27.669,0,0,1-19.9,8.495H42.173a27.911,27.911,0,0,1-20.145-8.495h0a27.911,27.911,0,0,1-8.495-20.145V140.248a27.669,27.669,0,0,1,8.495-19.417h0a28.4,28.4,0,0,1,20.145-8.252h0ZM457.446,35.156H144.838a10.436,10.436,0,0,0-7.281,2.912h0a10.194,10.194,0,0,0-2.912,7.281V358.685a10.922,10.922,0,0,0,2.912,7.281h0a10.436,10.436,0,0,0,7.281,2.913H457.446a10.922,10.922,0,0,0,7.281-2.913h0a10.922,10.922,0,0,0,2.913-7.281V45.592a10.194,10.194,0,0,0-2.913-7.281h0a10.922,10.922,0,0,0-7.281-2.912h0V35.156Z" transform="translate(-13.533 -16.952)"/></svg>