<?xml version="1.0" encoding="utf-8"?>
<!-- Generator: Adobe Illustrator 20.0.0, SVG Export Plug-In . SVG Version: 6.00 Build 0)  -->
<svg version="1.1" id="Слой_1" xmlns="http://www.w3.org/2000/svg" xmlns:xlink="http://www.w3.org/1999/xlink" x="0px" y="0px"
	 viewBox="0 0 392 500" style="enable-background:new 0 0 392 500;" xml:space="preserve">
<style type="text/css">
	.st0{fill:#B2B2B2;}
</style>
<title>file</title>
<g>
	<path class="st0" d="M173.973,392.184h-28.549v25.204h26.43v7.695h-26.43v32.341h-8.476v-72.935h37.025
		C173.973,384.489,173.973,392.184,173.973,392.184z"/>
	<path class="st0" d="M196.277,457.312h-8.476v-72.823h8.587v72.935L196.277,457.312z"/>
	<path class="st0" d="M253.264,457.312h-37.806v-72.823h8.587v65.128h29.218C253.264,449.617,253.264,457.312,253.264,457.312z"/>
	<path class="st0" d="M303.114,457.312h-38.586v-72.823h37.025v7.695h-28.549v24.2h26.319v7.695h-26.319v25.538h30.111
		C303.114,449.617,303.114,457.312,303.114,457.312z"/>
	<path class="st0" d="M33.568,2.529h202.299l115.982,115.982v224.157h15.167c6.625,0.036,12.979,2.633,17.732,7.249l0,0
		c4.465,4.671,7.046,10.827,7.249,17.286V471.81c0.113,6.752-2.5,13.265-7.249,18.066c-4.597,4.887-11.023,7.635-17.732,7.583
		H82.637c-6.734,0.016-13.181-2.724-17.843-7.583l0,0c-4.666-4.719-7.273-11.095-7.249-17.732v-14.052H33.568
		c-8.909,0.022-17.458-3.51-23.754-9.814C3.592,442.065,0.067,433.652,0,424.859V36.097c-0.022-8.909,3.51-17.458,9.814-23.754l0,0
		C16.164,6.121,24.678,2.603,33.568,2.529L33.568,2.529z M351.849,358.504H82.637c-5.05,0-9.145,4.094-9.145,9.145v104.607
		c-0.003,5.107,4.041,9.299,9.145,9.479h284.379c5.104-0.18,9.148-4.372,9.145-9.479V367.203c0-5.051-4.094-9.145-9.145-9.145
		h-15.167V358.504z M336.013,342.668v-208.21h-81.522c-8.793-0.067-17.206-3.592-23.419-9.814
		c-6.303-6.296-9.836-14.845-9.814-23.754V18.365H33.568c-4.63-0.041-9.085,1.765-12.379,5.018l0,0
		c-3.349,3.404-5.299,7.941-5.465,12.713v388.874c0.084,4.67,2.008,9.119,5.353,12.379c3.294,3.253,7.749,5.059,12.379,5.018h24.089
		v-75.165c0.036-6.625,2.633-12.979,7.249-17.732c4.836-4.49,11.247-6.894,17.843-6.691h253.376V342.668z M50.965,311.443
		c-4.311,0.062-7.856-3.382-7.918-7.693c-0.001-0.075-0.001-0.15,0-0.225c0.06-4.348,3.57-7.858,7.918-7.918h125.127
		c4.3,0.171,7.747,3.618,7.918,7.918c-0.06,4.348-3.57,7.858-7.918,7.918H50.965z M50.965,265.273c-4.373,0-7.918-3.545-7.918-7.918
		c0-4.373,3.545-7.918,7.918-7.918h250.03c4.373,0,7.918,3.545,7.918,7.918c0,4.373-3.545,7.918-7.918,7.918l0,0H50.965z
		 M50.965,219.103c-4.373,0-7.918-3.545-7.918-7.918c0-4.373,3.545-7.918,7.918-7.918h250.03c4.373,0,7.918,3.545,7.918,7.918
		c0,4.373-3.545,7.918-7.918,7.918l0,0H50.965z M50.965,172.933c-4.348-0.06-7.858-3.57-7.918-7.918
		c-0.062-4.311,3.382-7.856,7.693-7.918c0.075-0.001,0.15-0.001,0.225,0h250.03c4.311-0.062,7.856,3.382,7.918,7.693
		c0.001,0.075,0.001,0.15,0,0.225c-0.06,4.348-3.57,7.858-7.918,7.918H50.965z M237.094,25.949v74.942
		c-0.041,4.63,1.765,9.085,5.018,12.379c3.26,3.345,7.709,5.269,12.379,5.353h74.942L237.094,25.949z"/>
</g>
</svg>
