<svg id="Слой_1" data-name="Слой 1" xmlns="http://www.w3.org/2000/svg" viewBox="0 0 500 340.273"><defs><style>.cls-1{fill:#fdfdfd;}.cls-2{fill:#5c6bc0;}.cls-2,.cls-3{fill-rule:evenodd;}.cls-3{fill:#ef5350;}</style></defs><title>флаги</title><rect class="cls-1" y="2.656" width="500" height="334.961"/><path class="cls-2" d="M193.543,238.089c-10.394.157-86.614,41.575-102.52,49.449L14.488,325.806C9.764,328.168,4.567,330.373,0,332.893v4.724H193.543V238.089Z"/><path class="cls-2" d="M500,333.523l-2.992-1.89c-34.016-16.85-181.26-93.386-190.551-93.543v99.528H500v-4.094Z"/><path class="cls-2" d="M193.543,102.814V2.656H0V7.538C41.732,29.271,189.134,102.5,193.543,102.814h0Z"/><path class="cls-2" d="M306.457,102.814C310.866,102.5,458.268,29.271,500,7.538V2.656H306.457V102.814Z"/><path class="cls-3" d="M316.535,113.68c52.126,2.2,41.1,2.992,79.055-15.906C407.4,91.79,455.276,68.326,500,45.963V20.137c-40.945,20.315-176.85,86.457-183.465,93.543h0Z"/><path class="cls-3" d="M0,321.239c52.913-25.354,137.008-68.976,155.748-78.268l21.89-10.709c5.984-3.465,2.677-1.26,5.827-5.039-52.6-2.047-42.047-2.362-80.315,16.693L40.472,275.255C34.646,278.247,18.74,285.963,0,295.1v26.142Z"/><path class="cls-2" d="M442.677,113.837H500v-31.5c-26.457,13.071-53.228,26.772-57.323,31.5h0Z"/><path class="cls-2" d="M0,113.995H57.323c-6.3-7.4-37.165-21.89-57.323-31.339v31.339Z"/><path class="cls-2" d="M442.677,227.066c4.882,5.2,37.165,20.945,57.323,30.551V227.066H442.677Z"/><path class="cls-2" d="M0,257.3l56.063-28.819a5.719,5.719,0,0,1,1.26-1.417H0V257.3Z"/><path class="cls-3" d="M366.929,227.538c4.409,4.724,6.614,4.724,13.386,8.032,18.74,9.449,71.811,36.378,119.685,60.472V270.215l-0.63-.315c-69.764-34.8-70.079-46.3-132.441-42.362h0Z"/><path class="cls-3" d="M0,70.688c6.457,3.307,11.654,5.984,14.646,7.4,58.11,29.134,62.835,40.315,118.425,35.433C128.346,108.483,46.614,68.168,0,45.176V70.688Z"/><polygon class="cls-3" points="0 204.546 216.063 204.546 216.063 337.617 284.094 337.617 284.094 204.546 500 204.546 500 136.515 284.094 136.515 284.567 2.656 216.063 2.656 217.48 136.515 0 136.515 0 204.546"/></svg>