<?xml version="1.0" encoding="utf-8"?>
<!-- Generator: Adobe Illustrator 17.0.0, SVG Export Plug-In . SVG Version: 6.00 Build 0)  -->
<!DOCTYPE svg PUBLIC "-//W3C//DTD SVG 1.1//EN" "http://www.w3.org/Graphics/SVG/1.1/DTD/svg11.dtd">
<svg version="1.1" id="Слой_1" xmlns="http://www.w3.org/2000/svg" xmlns:xlink="http://www.w3.org/1999/xlink" x="0px" y="0px"
	 width="557.376px" height="500px" viewBox="0 146 557.376 500" enable-background="new 0 146 557.376 500" xml:space="preserve">
<title>folder</title>
<path d="M312.007,391.56h116.191v-22.896h-86.46c-9.657,0.25-18.968-3.599-25.63-10.594c-6.819-6.5-10.652-15.527-10.594-24.947
	v-87.485H106.622c-4.882,0.033-9.551,1.999-12.986,5.468l0,0c-3.646,3.483-5.739,8.286-5.81,13.328v44.426h136.695L312.007,391.56z
	 M444.602,391.56h13.328v-63.222h-37.591l24.263,24.263L444.602,391.56L444.602,391.56z M475.016,391.56h14.695V289.038h-36.908
	l22.555,22.555v79.967H475.016z M506.798,391.56h12.303c10.13,0.073,19.826,4.123,26.997,11.277l0,0
	c7.155,7.172,11.205,16.867,11.277,26.997v177.021c0,21.138-17.136,38.275-38.275,38.275h0H38.275
	C17.136,645.13,0,627.993,0,606.855l0,0V346.45c0.051-10.034,4.111-19.632,11.277-26.656l0,0
	c7.172-7.155,16.867-11.205,26.997-11.277h34.174v-44.084c-0.153-9.539,3.688-18.707,10.594-25.289l0,0
	c5.53-5.567,12.732-9.169,20.504-10.252l0,0v-5.81c-0.795-8.868,1.903-17.696,7.518-24.605l0,0
	c5.676-5.806,13.138-9.537,21.188-10.594v-4.101c-0.36-9.945,3.633-19.553,10.936-26.314l0,0
	c6.581-6.906,15.75-10.747,25.289-10.594h215.979l123.368,123.368V391.56H506.798z M435.375,271.609h47.502l-98.421-98.421v47.502
	L435.375,271.609z M367.027,203.262v-37.933h-198.55c-5.023-0.185-9.882,1.809-13.328,5.468l0,0
	c-3.52,3.54-5.488,8.335-5.468,13.328v3.759h200.6L367.027,203.262z M401.201,310.226h51.603L352.674,212.83v47.16L401.201,310.226z
	 M332.853,241.878v-37.25H136.695c-4.978,0.053-9.747,2.009-13.328,5.468l0,0c-3.402,3.618-5.349,8.363-5.468,13.328v5.126h205.043
	L332.853,241.878z M319.525,252.472v80.65c-0.191,10.19,7.916,18.605,18.106,18.796c0.23,0.004,0.46,0.004,0.69,0h79.283
	L319.525,252.472z"/>
</svg>
