<?xml version="1.0" encoding="utf-8"?>
<!-- Generator: Adobe Illustrator 20.0.0, SVG Export Plug-In . SVG Version: 6.00 Build 0)  -->
<svg version="1.1" id="Слой_1" xmlns="http://www.w3.org/2000/svg" xmlns:xlink="http://www.w3.org/1999/xlink" x="0px" y="0px"
	 viewBox="0 0 568 500" style="enable-background:new 0 0 568 500;" xml:space="preserve">
<style type="text/css">
	.st0{fill:#5F73B6;}
	.st1{fill:#F3D44F;}
	.st2{fill:#41B670;}
	.st3{fill:#5F72BA;}
</style>
<title>google hover</title>
<g>
	<path class="st0" d="M175.244,344.766c-0.754,6.179-0.904,1.959,1.356,3.466c3.165-2.562,1.507-3.014,13.866-3.165
		c5.266-0.985,10.705,0.212,15.071,3.316c-7.234,5.576-15.071,1.658-26.375,3.165h150.712c13.263,0,41.898-3.466,51.996,3.165
		l2.713-4.22c5.426-4.672,6.631-1.356,17.03-2.11c26.525-2.11,150.712-6.481,159.152,1.055c3.845-2.423,6.476-6.37,7.234-10.851
		H383.679l-204.064-0.754L175.244,344.766z"/>
	<path class="st0" d="M90.393,492.464h2.713l5.878,3.768c0.904-18.387,5.426,2.261,1.658-15.071c4.147,0.56,8.366,0.2,12.358-1.055
		c0,0,6.631-4.521,7.083-4.823s7.686-13.112,0-13.112v13.865c-4.316,0.002-8.582-0.923-12.509-2.713
		c0.73-5.581,3.089-10.823,6.782-15.071c2.79-4.139,4.261-9.025,4.22-14.016c-6.288,7.105-11.609,15.011-15.825,23.511
		c-4.963,7.646-8.915,15.904-11.756,24.566l0,0L90.393,492.464z"/>
	<polygon class="st0" points="83.159,495.328 85.118,499.548 91.297,499.548 90.393,492.464 	"/>
	<path class="st1" d="M191.973,5.664c5.958,4.508,10.422,10.705,12.811,17.784c3.768,6.481,6.782,11.756,10.851,19.14
		c9.193,16.578,63.902,110.02,66.313,118.008c9.714,13.853,18.379,28.412,25.922,43.556l2.864,5.124l22.305,39.034
		c17.332,31.65,35.116,58.778,50.639,90.427H568c-0.754-6.631-41.295-73.548-47.776-83.947c-8.44-13.866-16.578-27.43-24.566-41.747
		c-4.521-8.138-7.385-12.961-12.358-20.798L398.147,46.055c-7.835-14.529-16.542-28.571-26.073-42.049
		c-1.055,0-177.087-2.562-180.855,1.658l0,0L191.973,5.664z"/>
	<path class="st2" d="M83.159,495.328l7.234-2.864c2.841-8.662,6.792-16.92,11.756-24.566c4.215-8.5,9.536-16.406,15.825-23.511
		l42.199-75.356c4.434-8.681,9.47-17.04,15.071-25.018l4.521-6.933l101.881-176.635c-2.411-7.988-56.969-101.429-66.313-118.008
		c-4.069-7.385-7.083-12.66-10.851-19.14c-2.389-7.079-6.852-13.276-12.811-17.784L50.756,249.516
		c-12.358,20.346-23.511,40.24-35.417,60.285c-20.949,36.774-20.045,24.415,0.301,61.943
		c13.564,24.114,58.175,103.69,67.368,123.584l0,0H83.159z"/>
	<path class="st3" d="M117.973,444.387c0.041,4.991-1.43,9.877-4.22,14.016c-3.693,4.248-6.052,9.49-6.782,15.071
		c3.927,1.789,8.193,2.715,12.509,2.713V461.87c8.138,0,2.562,10.851,0,13.112c-2.562,2.261-6.33,4.521-7.083,4.823
		c-3.992,1.255-8.211,1.615-12.358,1.055c3.768,17.935,0-2.863-1.658,15.071l-5.275-3.466h-2.713L91.297,500h-5.576h390.194
		c8.196-12.018,15.693-24.498,22.456-37.377c6.33-11.153,63.148-104.142,63.902-112.281c-9.344-8.591-133.23-4.22-160.056-2.11
		c-10.248,0.904-11.605-2.411-17.03,2.11l-2.713,4.22c-10.098-6.631-38.733-3.165-51.996-3.165H179.765
		c11.906-1.507,18.99,2.411,26.375-3.165c-4.366-3.104-9.806-4.301-15.071-3.316c-12.358,0-10.701,0-13.866,3.165
		c-2.261-1.507-2.261,2.713-1.356-3.466c-5.601,7.978-10.637,16.338-15.071,25.018L117.973,444.387z"/>
</g>
</svg>
