<svg id="Capa_1" data-name="Capa 1" xmlns="http://www.w3.org/2000/svg" viewBox="0 0 20 15"><defs><style>.cls-1{fill:#303f9f;}</style></defs><title>гамбургер</title><path class="cls-1" d="M4.69,7.58H22.88a0.9,0.9,0,0,0,0-1.81H4.69A0.9,0.9,0,0,0,4.69,7.58Z" transform="translate(-3.79 -5.77)"/><path class="cls-1" d="M22.88,12.36H4.69a0.9,0.9,0,0,0,0,1.81H22.88A0.9,0.9,0,0,0,22.88,12.36Z" transform="translate(-3.79 -5.77)"/><path class="cls-1" d="M22.88,19H4.69a0.9,0.9,0,1,0,0,1.81H22.88A0.9,0.9,0,1,0,22.88,19Z" transform="translate(-3.79 -5.77)"/></svg>