<?xml version="1.0" encoding="utf-8"?>
<!-- Generator: Adobe Illustrator 20.0.0, SVG Export Plug-In . SVG Version: 6.00 Build 0)  -->
<svg version="1.1" id="Слой_1" xmlns="http://www.w3.org/2000/svg" xmlns:xlink="http://www.w3.org/1999/xlink" x="0px" y="0px"
	 viewBox="0 0 500 500" style="enable-background:new 0 0 500 500;" xml:space="preserve">
<style type="text/css">
	.st0{fill:#AEAEAE;}
</style>
<title>default</title>
<g>
	<path class="st0" d="M188.121,333.119h124.17v145.868H187.477L188.121,333.119z M54.928,247.188
		c2.443-2.454,4.671-5.114,6.66-7.949l53.922-61.441c2.578-3.008,4.726-4.726,7.304-7.734L249.991,26.991l214.827,243.829
		c-34.372,0-49.195-4.941-49.195,13.964v193.344h-82.279V325.171c1.612-5.955-1.908-12.09-7.863-13.702
		c-1.497-0.405-3.063-0.494-4.597-0.262H179.313c-6.1-0.926-11.795,3.268-12.722,9.367c-0.233,1.534-0.144,3.099,0.262,4.597
		l1.504,152.742H83.5V284.568c0-18.905-14.823-13.964-49.195-13.964L54.928,247.188z M13.896,292.302h48.766v193.344
		c-1.45,6.241,2.435,12.475,8.675,13.924c1.668,0.387,3.4,0.401,5.074,0.039h347.161c6.262,1.353,12.436-2.628,13.788-8.89
		c0.361-1.673,0.348-3.406-0.039-5.074V292.302h48.766c11.601,0,18.045-8.378,10.956-18.045c-2.363-3.222-5.371-5.156-7.949-8.593
		s-4.941-5.371-8.593-9.452l-24.061-27.498c-3.008-4.082-5.371-5.586-8.593-9.452c-16.542-19.549-42.965-46.617-56.5-64.448
		c-3.008-3.652-5.586-5.585-8.593-9.452c-2.383-3.101-4.967-6.043-7.734-8.808c-10.741-11.171-29.861-35.232-41.032-46.403
		c-3.222-3.222-4.726-5.8-7.734-9.023l-48.98-55.425c-6.775-10.701-16.165-19.499-27.283-25.564
		c-10.808,5.601-19.928,13.98-26.424,24.275l-130.4,147.801c-2.993,3.043-5.792,6.272-8.378,9.667L2.94,273.612
		c-7.304,9.667,0,18.045,10.956,18.045l0,0L13.896,292.302z"/>
</g>
</svg>
