<?xml version="1.0" encoding="utf-8"?>
<!-- Generator: Adobe Illustrator 17.0.0, SVG Export Plug-In . SVG Version: 6.00 Build 0)  -->
<!DOCTYPE svg PUBLIC "-//W3C//DTD SVG 1.1//EN" "http://www.w3.org/Graphics/SVG/1.1/DTD/svg11.dtd">
<svg version="1.1" id="Ğ¡Ğ»Ğ¾Ğ¹_1" xmlns="http://www.w3.org/2000/svg" xmlns:xlink="http://www.w3.org/1999/xlink" x="0px" y="0px"
	 width="890.622px" height="500px" viewBox="-135.341 146 890.622 500" enable-background="new -135.341 146 890.622 500"
	 xml:space="preserve">
<title>eye</title>
<path fill="#b1b1b1" d="M307.276,149.205c74.764,6.172,147.327,28.354,212.763,65.04c77.825,41.327,150.712,91.349,217.261,149.107
	c20.338,15.865,23.965,45.213,8.101,65.551c-2.975,3.814-6.525,7.143-10.522,9.868c-55.353,42.207-110.706,84.067-169.173,121.431
	c-65.893,43.54-140.524,72.117-218.645,83.721c-62.902,6.575-126.422-3.693-184.049-29.752
	C60.45,570.483-34.405,510.557-117.904,436.695c-20.554-15.584-24.584-44.879-9-65.434c2.219-2.927,4.775-5.581,7.616-7.909
	c94.761-86.792,206.411-153.099,327.967-194.774C243.274,159.238,274.756,155.779,307.276,149.205z M323.536,612.441
	c25.2-3.2,50.163-8.054,74.727-14.53C513.2,557.592,619.02,494.923,709.624,413.516c14.184-11.763,7.611-21.103-3.806-30.444
	c-66.141-55.246-137.92-103.369-214.147-143.572c-99.437-58.665-221.105-65.625-326.583-18.682
	c-91.99,43.258-177.843,98.516-255.316,164.329c-14.53,12.8-12.454,22.487,2.422,31.828c63.31,43.591,124.544,89.949,189.93,129.734
	C168.411,588.713,245.067,611.47,323.536,612.441z"/>
<path fill="#b1b1b1" d="M469.53,400.024c0.19,88.273-71.215,159.986-159.487,160.176c-88.273,0.19-159.986-71.215-160.176-159.487
	c-0.19-88.137,71.003-159.793,159.139-160.175c87.501-1.148,159.365,68.854,160.514,156.355
	C469.533,397.937,469.537,398.98,469.53,400.024z M309.698,526.644c69.835,0,126.447-56.612,126.447-126.447
	S379.533,273.75,309.698,273.75c-69.603,0.736-126.006,56.68-127.312,126.274c0.381,70.177,57.48,126.812,127.658,126.62H309.698z"
	/>
</svg>
