<?xml version="1.0" encoding="utf-8"?>
<!-- Generator: Adobe Illustrator 17.0.0, SVG Export Plug-In . SVG Version: 6.00 Build 0)  -->
<!DOCTYPE svg PUBLIC "-//W3C//DTD SVG 1.1//EN" "http://www.w3.org/Graphics/SVG/1.1/DTD/svg11.dtd">
<svg version="1.1" id="Слой_1" xmlns="http://www.w3.org/2000/svg" xmlns:xlink="http://www.w3.org/1999/xlink" x="0px" y="0px"
	 width="543.084px" height="500px" viewBox="0 146 543.084 500" enable-background="new 0 146 543.084 500" xml:space="preserve">
<title>jpeg big</title>
<path d="M151.727,505.573c1.094,16.15-3.756,32.143-13.638,44.965c-10.122,10.827-24.564,16.546-39.354,15.586
	c-7.282,0.068-14.508-1.281-21.274-3.974v-31.171c5.417,4.193,12.086,6.444,18.937,6.39c15.014,0,22.521-11.144,22.521-33.431
	v-86.501h32.808V505.573z"/>
<path d="M216.641,513.21v50.342h-32.964V417.436h51.589c36.834,0,55.251,15.586,55.251,46.757
	c0.516,13.628-5.224,26.745-15.586,35.613c-11.971,9.553-27.019,14.403-42.315,13.638h-15.586L216.641,513.21z M216.641,443.074
	v45.588h12.936c17.508,0,26.262-7.793,26.262-23.379c0-15.586-8.754-23.093-26.262-22.521h-12.936V443.074z"/>
<path d="M399.54,563.552h-87.67V417.436h84.319v26.807h-51.355v32.886h47.77v26.729h-47.77v33.431h54.55v26.729L399.54,563.552z"/>
<path d="M542.928,553.811c-16.348,8.719-34.709,12.967-53.225,12.313c-20.371,1.124-40.355-5.883-55.563-19.482
	c-14.1-14.291-21.489-33.884-20.339-53.927c-0.796-21.013,7.261-41.397,22.21-56.186c15.933-14.898,37.202-22.737,58.992-21.742
	c13.931-0.262,27.801,1.9,40.99,6.39v31.171c-12.565-6.814-26.702-10.2-40.99-9.819c-12.498-0.451-24.607,4.387-33.353,13.326
	c-9.065,9.529-13.898,22.315-13.404,35.458c-0.811,12.667,3.324,25.154,11.533,34.834c8.144,8.384,19.496,12.868,31.171,12.313
	c6.431,0.287,12.846-0.858,18.781-3.351v-28.522h-28.99v-26.262h62.343v73.487H542.928z"/>
<path d="M36.626,146.945h221.551l127.024,127.024v116.191h-17.3v-98.891h-89.306c-9.64-0.016-18.872-3.888-25.638-10.754
	c-6.862-6.896-10.727-16.221-10.754-25.95v-90.319H36.626c-5.166-0.021-10.138,1.962-13.871,5.533l0,0
	c-3.517,3.768-5.491,8.718-5.533,13.871v425.958c-0.011,5.049,1.979,9.896,5.533,13.482c3.768,3.517,8.718,5.491,13.871,5.533
	h311.714c5.049,0.011,9.896-1.979,13.482-5.533l0,0c3.755-3.495,5.946-8.354,6.078-13.482v-15.196h17.3v15.196
	c-0.016,9.64-3.888,18.872-10.754,25.639l0,0c-6.896,6.862-16.221,10.727-25.95,10.754H36.782
	c-9.729-0.027-19.054-3.892-25.95-10.754C3.938,628.492,0.036,619.258,0,609.607V183.572c0.007-9.718,3.843-19.041,10.676-25.95l0,0
	c6.896-6.862,16.221-10.727,25.95-10.754l0,0V146.945z M259.502,172.584v81.981c-0.011,5.049,1.979,9.896,5.533,13.482
	c3.541,3.669,8.384,5.796,13.482,5.923h82.059L259.502,172.584z"/>
</svg>
