<svg id="Слой_1" data-name="Слой 1" xmlns="http://www.w3.org/2000/svg" viewBox="0 0 500 500"><defs><style>.cls-1,.cls-2{fill:#999;}.cls-1{fill-rule:evenodd;}</style></defs><title>иконки</title><path class="cls-1" d="M139.176,217.224c0-61.459,48.739-109.343,106.884-109.343h7.375c82.408,0,135.957,93.2,90,160.22-9.833,14.323-20.094,27.576-30.355,41.364-6.306,8.444-59.428,81.018-61.993,81.874-4.7,1.71-11.971-11.116-16.888-17.743L173.379,291.83c-16.14-21.163-34.2-43.074-34.2-74.605h0ZM234.517,96.338c-82.622,10.154-127.193,92.348-98.868,160.434,9.085,21.911,68.085,95.982,86.149,120.886,4.6,6.413,9.406,13.467,14.75,19.774,16.14,19.453,30.676-5.451,39.547-17.636l73.537-99.082c10.047-14.429,17.636-27.683,21.377-48.419,14.536-79.522-57.931-145.684-136.492-135.957h0Z"/><path class="cls-2" d="M247.088,166.4l11.9,24.1,3.285,6.659,7.346,1.067,26.6,3.865-19.247,18.761-5.316,5.181,1.255,7.317,4.544,26.493-23.79-12.509-6.571-3.454-6.571,3.454-23.792,12.509,4.544-26.493,1.255-7.317-5.316-5.181-19.247-18.761,26.6-3.865,7.346-1.067,3.285-6.657,11.9-24.106m0-31.906-24.559,49.761-54.913,7.979,39.736,38.731-9.38,54.693,49.117-25.823L296.2,285.655l-9.38-54.693,39.736-38.731-54.913-7.979-24.557-49.761h0Z"/></svg>