<svg id="Слой_1" data-name="Слой 1" xmlns="http://www.w3.org/2000/svg" viewBox="0 0 23.95 23"><defs><style>.cls-1{fill:#999;}</style></defs><title>line</title><path class="cls-1" d="M2.94,20l3.71-8.4a1.49,1.49,0,0,1-.24-0.21h0a2,2,0,0,1,0-2.84h0A2,2,0,0,1,7.82,8a2,2,0,0,1,1.42.59h0A2,2,0,0,1,9.83,10a2,2,0,0,1-.18.81l3.68,2.68a1,1,0,0,1,.13-0.14h0a2,2,0,0,1,1.41-.59,1.93,1.93,0,0,1,1,.27l5.21-8.58,0,0h0a2,2,0,0,1,0-2.84h0a2,2,0,0,1,2.84,0h0A2,2,0,0,1,22.47,5a2,2,0,0,1-.66-0.11l-5.29,8.72a2,2,0,0,1-.22,2.58h0a2,2,0,0,1-2.84,0h0a2,2,0,0,1-.59-1.42,1.9,1.9,0,0,1,.07-0.52L9.16,11.51A2,2,0,0,1,7.82,12a2.35,2.35,0,0,1-.41,0l-3.7,8.4L4,20.57H4a2,2,0,0,1,0,2.84H4A2,2,0,0,1,2.53,24a2,2,0,0,1-1.41-.58h0A2,2,0,0,1,2.53,20a2.2,2.2,0,0,1,.41,0h0Zm0.42,1.14h0a1.17,1.17,0,0,0-.82-0.34A1.15,1.15,0,0,0,1.37,22a1.17,1.17,0,0,0,.34.82h0a1.16,1.16,0,0,0,1.65,0h0a1.16,1.16,0,0,0,0-1.65h0Zm5.29-12a1.13,1.13,0,0,0-.82-0.34A1.15,1.15,0,0,0,7,9.19H7a1.17,1.17,0,0,0,0,1.64H7a1.15,1.15,0,0,0,.82.34,1.16,1.16,0,0,0,.82-2h0ZM15.7,14a1.17,1.17,0,0,0-1.65,0h0a1.17,1.17,0,0,0,0,1.64h0a1.17,1.17,0,0,0,1.65,0h0a1.15,1.15,0,0,0,0-1.64h0ZM23.29,2.19a1.16,1.16,0,0,0-1.65,0h0a1.17,1.17,0,0,0-.34.82,1.18,1.18,0,0,0,.34.82h0a1.18,1.18,0,0,0,1.65,0A1.18,1.18,0,0,0,23.63,3a1.17,1.17,0,0,0-.34-0.82h0Z" transform="translate(-0.52 -1)"/></svg>