<svg id="Слой_1" data-name="Слой 1" xmlns="http://www.w3.org/2000/svg" viewBox="0 0 389.221 475.474"><defs><style>.cls-1{fill:#3b309f;fill-rule:evenodd;}</style></defs><title>map</title><path class="cls-1" d="M214.072,52.6c84.7-10,160.7,52.759,170.216,137.947,10.165,90.513-59.051,161.664-138.109,170.215-89.706,9.358-161.5-57.922-170.054-137.786C66.928,136.819,128.884,62.6,214.072,52.6h0Zm89.706,434.493V468.053l-63.569-.161c0-57.115-5.97-45.176,20.49-48.887,44.369-6.131,77.767-24.2,111.165-50.661,14.359-11.294,32.268-34.366,42.11-50.5,41.3-67.118,39.368-149.725,3.066-217-18.393-34.2-60.181-75.992-95.192-88.577l-7.906,17.1c7.422,7.1,65.182,28.073,95.353,100.516,41.3,98.9-1.613,213.132-104.227,256.533C268.605,401.9,220.2,406.259,180.19,394.8c-8.551-2.581-30.171-11.294-35.818-11.778l-6.938,17.264c20.006,11.778,55.986,18.554,81.962,20.49,2.259,7.744.807,37.109,0.807,47.112H155.666v19.845ZM55.634,216.2c4.84,93.255,84.866,169.893,183.93,164.891,93.255-4.679,169.893-84.382,165.053-183.446-4.518-93.74-83.9-170.377-183.768-165.537C127.593,36.787,50.472,116.651,55.634,216.2h0Z" transform="translate(-55.389 -12.263)"/></svg>