<?xml version="1.0" encoding="utf-8"?>
<!-- Generator: Adobe Illustrator 20.0.0, SVG Export Plug-In . SVG Version: 6.00 Build 0)  -->
<svg version="1.1" id="Слой_1" xmlns="http://www.w3.org/2000/svg" xmlns:xlink="http://www.w3.org/1999/xlink" x="0px" y="0px"
	 viewBox="0 0 500 500" style="enable-background:new 0 0 500 500;" xml:space="preserve">
<style type="text/css">
	.st0{fill:#999999;}
</style>
<title>round</title>
<g>
	<path class="st0" d="M249.878,0.005c138.07-0.066,250.051,111.808,250.118,249.878S388.188,499.934,250.118,500
		S0.066,388.192,0,250.122C-0.032,183.754,26.328,120.097,73.27,73.18C120.053,26.254,183.616-0.082,249.878,0.005L249.878,0.005z
		 M337.216,163.952l77.253-77.253l0,0c-41.144-41.353-96.428-65.582-154.72-67.811V128.33c29.287,2.165,56.837,14.722,77.682,35.407
		L337.216,163.952z M426.7,99.574l-77.896,78.111c40.377,54.159,29.206,130.795-24.953,171.172
		c-47.071,35.094-112.438,31.791-155.732-7.869l-79.184,75.965c91.033,89.978,237.771,89.124,327.749-1.909
		c85.229-86.228,89.596-223.573,10.016-315.041l0,0V99.574z M76.703,403.864l78.755-75.965
		c-43.072-52.195-35.677-129.424,16.518-172.496c19.66-16.224,43.891-25.913,69.318-27.717V18.245
		C113.387,23.022,13.571,130.584,18.348,258.491c2.019,54.067,22.891,105.723,58.999,146.016l0,0L76.703,403.864z M323.697,175.969
		c-40.736-40.888-106.905-41.011-147.793-0.274s-41.011,106.905-0.275,147.793s106.905,41.011,147.793,0.275
		c19.668-19.595,30.73-46.211,30.746-73.974C354.208,222.113,343.246,195.557,323.697,175.969
		C323.697,175.969,323.697,175.969,323.697,175.969z"/>
</g>
</svg>
