<?xml version="1.0" encoding="utf-8"?>
<!-- Generator: Adobe Illustrator 20.0.0, SVG Export Plug-In . SVG Version: 6.00 Build 0)  -->
<svg version="1.1" id="Слой_1" xmlns="http://www.w3.org/2000/svg" xmlns:xlink="http://www.w3.org/1999/xlink" x="0px" y="0px"
	 viewBox="0 0 500 500" style="enable-background:new 0 0 500 500;" xml:space="preserve">
<style type="text/css">
	.st0{fill:#B2B2B2;}
</style>
<title>ready</title>
<g>
	<g>
		<path class="st0" d="M250.675,497c-65.996,0-128.042-25.7-174.708-72.367C29.3,377.967,3.6,315.921,3.6,249.925
			c0-65.996,25.7-128.042,72.367-174.708C122.633,28.55,184.679,2.85,250.675,2.85c65.997,0,128.042,25.7,174.709,72.367
			c46.666,46.666,72.367,108.712,72.367,174.708c0,65.997-25.7,128.042-72.367,174.709S316.671,497,250.675,497z M250.675,31.141
			c-120.638,0-218.784,98.146-218.784,218.784c0,120.637,98.146,218.783,218.784,218.783c120.637,0,218.783-98.146,218.783-218.783
			C469.458,129.287,371.312,31.141,250.675,31.141z"/>
	</g>
	<g>
		<path class="st0" d="M222.723,279.74c-17.329-19.432-36.01-37.615-55.903-54.412c-10.773-3.8-22.587,1.852-26.387,12.625
			c-1.315,3.727-1.534,7.752-0.633,11.6c1.677,9.69,42.3,46.959,51.803,57.021c7.62,10.888,18.525,19.05,31.119,23.293
			c7.425,0.213,14.447-3.368,18.634-9.504c24.97-22.734,71.742-71.556,96.526-96.339c10.69-8.012,19.104-18.674,24.411-30.933
			c1.122-11.368-7.184-21.494-18.552-22.616c-3.121-0.308-6.272,0.098-9.213,1.187C325.958,175.201,232.227,274.708,222.723,279.74
			L222.723,279.74z"/>
	</g>
</g>
</svg>
