<?xml version="1.0" encoding="utf-8"?>
<!-- Generator: Adobe Illustrator 20.0.0, SVG Export Plug-In . SVG Version: 6.00 Build 0)  -->
<svg version="1.1" id="Capa_1" xmlns="http://www.w3.org/2000/svg" xmlns:xlink="http://www.w3.org/1999/xlink" x="0px" y="0px"
	 viewBox="0 0 500 500" style="enable-background:new 0 0 500 500;" xml:space="preserve">
<style type="text/css">
	.st0{fill:#303F9F;}
</style>
<title>поиск</title>
<g>
	<path id="search_icon" class="st0" d="M500,472.514L350.004,327.519c35.293-35.293,55.236-83.085,55.498-132.996
		C402.503,84.948,311.859-1.794,202.259,0.028C93.045-1.242,3.011,85.343,0.015,194.522c2.996,109.18,93.03,195.764,202.244,194.494
		c41.461,0.039,81.972-12.419,116.247-35.749l152.746,146.746L500,472.514z M40.513,194.522
		c1.913-87.621,74.37-157.17,161.995-155.495c87.626-1.674,160.082,67.875,161.995,155.495
		c-1.913,87.621-74.37,157.17-161.995,155.495C114.883,351.692,42.427,282.143,40.513,194.522z"/>
</g>
</svg>
