<?xml version="1.0" encoding="utf-8"?>
<!-- Generator: Adobe Illustrator 20.0.0, SVG Export Plug-In . SVG Version: 6.00 Build 0)  -->
<svg version="1.1" id="Слой_1" xmlns="http://www.w3.org/2000/svg" xmlns:xlink="http://www.w3.org/1999/xlink" x="0px" y="0px"
	 viewBox="0 0 500 500" style="enable-background:new 0 0 500 500;" xml:space="preserve">
<style type="text/css">
	.st0{fill:#303F9F;}
</style>
<g>
	<title>settings</title>
	<path class="st0" d="M34.9,170.8c12-23.6,25.5-46.4,40.3-68.4c1.8-2.7,5.4-3.6,8.3-2c12.9,6.7,25.4,14,37.6,21.9
		c26.4,15.1,24.5,6.7,46.1-7c0.2-0.1,0.3-0.2,0.5-0.3c10.7-8.3,36.3-19.9,39.8-33.1c3.1-12.1,0.4-39.4,0.9-62.7
		c0.1-3.5,2.9-6.3,6.4-6.3l74.5-0.1c3.3,0,6.1,2.5,6.4,5.8c4,44.6-14.4,64.8,17.5,78c0.4,0.2,0.8,0.4,1.1,0.6l31.4,20.9
		c0.6,0.4,1.2,1,1.7,1.6c7.2,9.6,20.6,13.4,30.6,6.7c1-0.7,1.9-0.6,2.8-1.5c12.8-8.3,26.2-15.4,40.1-21.8c3-1.4,6.5-0.3,8.2,2.5
		l38,63.8c1.7,2.9,0.9,6.6-1.8,8.5c-12.2,8.7-25.1,16.5-38.4,23.4c-24.5,13.7-14.7,19.7-15.5,49.1c-0.7,29.4-10.8,35.8,14.7,49.1
		c11.9,6.8,25.1,15.4,37.5,21.8c3.1,1.6,4.4,5.4,2.8,8.5c-11.4,22.6-23.9,44.6-37.5,66c-1.8,2.8-5.3,3.7-8.2,2.3
		c-13.3-6.6-26.1-13.9-38.5-22c-31-18-21.7-2.9-65.9,17.5c-0.6,0.3-1.1,0.4-1.7,0.5c-8.3,1.3-15.3,5.8-18.5,13.6
		c-0.1,0.3-0.2,0.5-0.3,0.8c-3.9,14.3,1.7,44.6-1.3,67.4c-0.4,3.3-3.6,9.1-7,9.1c-15.1,0-51.9,0-67.4,0c-4,0-8.1-6.2-9-10.1
		c-5.4-24.5,11.1-59.9-20.4-78.6c-40.1-16.2-41.4-37.7-69.2-22c-0.1,0.1-0.2,0.1-0.3,0.2c-12.5,8.1-25.5,15.6-38.9,22.1
		c-3,1.5-6.7,0.3-8.3-2.6c-9.2-16.5-31.3-50.6-37.9-65.2c-1.2-2.8-0.4-6.1,2.1-7.8c23.7-16.7,52.8-22.4,55.7-39.2
		c0.1-0.4,0.1-0.7,0.1-1.1c-0.1-8-2-24.1-1.7-32.8c0-30.7,11-34.3-15.7-49c-14.6-7.1-28.6-15.2-41.9-24.5l0,0l0,0
		C34.1,173.2,34.3,171.9,34.9,170.8z M140.2,110.7c-18.7-11.4-38-21.9-57.7-31.3c-0.8-0.4-1.6-0.6-2.4-0.6
		c-11.4-0.4-21.6,7.1-24.5,18.1c-0.1,0.6-0.4,1.1-0.6,1.6l-31.5,54.7c-0.3,0.5-0.6,0.9-1,1.2c-7.9,8.2-9,20.9-2.8,30.4
		c0.4,0.6,1,1.2,1.6,1.6c16.1,11.5,33.1,21.6,50.8,30.3c2.4,1.2,3.8,3.6,3.6,6.2c-1.2,17.1-1.2,34.2,0,51.3c0.2,2.3-0.9,4.6-2.9,5.8
		c-34.3,22.6-72.4,26.2-49.1,63.6c5.6,9.1,10.5,17.9,15.9,27.5s11,18.9,16.4,28.7c20.8,37.1,36.3,10.4,78.6-10.3
		c1.9-0.9,4.2-0.9,6,0.2c7.2,4.2,14.5,10.3,21.6,15c7,4.6,15.6,8,23.8,11.8c2.4,1.1,3.8,3.6,3.7,6.2c-1.2,21.4-0.3,42.9,2.8,64.2
		c0.1,0.9,0.4,1.8,0.9,2.5c9.3,14.5,42.7,9,60.6,9c17.9,0,50,5.8,57.4-12c0.3-0.8,0.6-1.7,0.6-2.6c1.8-20.8,2.4-41.6,1.8-62.4
		c-0.1-2.7,1.6-5.2,4.1-6.2c15.1-5.7,29.3-13.5,42.1-23.3c1.8-1.4,4.2-1.7,6.3-0.9c16.1,6.5,40.7,27.2,55.3,30.3
		c0.3,0.1,0.6,0.1,0.9,0.1c11.5,0.7,21.9-6.6,25.1-17.6c0.2-0.5,0.4-1,0.6-1.5c5.2-8.9,10.3-18.2,15.5-27
		c12.4-21.3,32.6-46,19.8-60.3c-0.3-0.3-0.7-0.6-1-0.9c-16.2-11.6-33.3-22-51.1-31c-2.3-1.2-3.7-3.6-3.5-6.1
		c1.2-19.5-0.1-32.2-0.3-51.4c0-1.9,0.9-3.8,2.4-5c29.3-23.8,74.2-21.2,49.6-64l-31.9-55.9c-20.6-36.9-32.6-13.2-78.6,10.1
		c-2.1,1-4.5,0.9-6.5-0.4c-3.2-2.1-6.4-4.4-9.4-6.9c-0.2-0.1-0.3-0.3-0.5-0.4c-15.4-10.1-28.6-15.4-36.3-19.4
		c-2.1-1.1-3.5-3.3-3.4-5.7C313.3-5,320,2.3,250.3,2.3c-69.6,0-60.9-7.1-60.6,76.6c0,2.4-1.3,4.7-3.5,5.7c-6.9,3.5-16.8,7.3-23,10.6
		C155.9,99.2,148.3,105.8,140.2,110.7L140.2,110.7z"/>
	<path class="st0" d="M240.6,173.5c41.2-6.2,79.8,22.1,86,63.4c0,0.2,0.1,0.4,0.1,0.6c6.3,41.4-22.1,80-63.5,86.3
		s-80-22.1-86.3-63.5c-6.8-41,21-79.8,62-86.6C239.4,173.7,240,173.6,240.6,173.5L240.6,173.5z M233,155.4
		c-51.5,10.3-85,60.4-74.7,112s60.4,85,112,74.7s85-60.4,74.7-112C334.7,178.5,284.5,145.1,233,155.4L233,155.4z"/>
</g>
</svg>
