<?xml version="1.0" encoding="utf-8"?>
<!-- Generator: Adobe Illustrator 19.2.1, SVG Export Plug-In . SVG Version: 6.00 Build 0)  -->
<svg version="1.1" id="Слой_1" xmlns="http://www.w3.org/2000/svg" xmlns:xlink="http://www.w3.org/1999/xlink" x="0px" y="0px"
	 viewBox="0 0 18.2 26" style="enable-background:new 0 0 18.2 26;" xml:space="preserve">
<style type="text/css">
	.st0{fill:#303F9F;}
</style>
<g>
	<polygon class="st0" points="0.7,7.7 7,7.7 7,8.9 1.3,8.9 1.3,24.8 16.9,24.8 16.9,8.9 11.2,8.9 11.2,7.7 17.6,7.7 18.2,7.7 
		18.2,8.3 18.2,25.4 18.2,26 17.6,26 0.7,26 0,26 0,25.4 0,8.3 0,7.7 	"/>
	<polygon class="st0" points="4.5,4.6 8.7,0.4 9.1,0 9.5,0.4 13.7,4.6 12.8,5.5 9.7,2.4 9.7,16.9 8.5,16.9 8.5,2.4 5.4,5.5 	"/>
</g>
</svg>
