<svg id="Слой_1" data-name="Слой 1" xmlns="http://www.w3.org/2000/svg" viewBox="0 0 467.891 467.891"><defs><style>.cls-1{fill:#3b309f;}</style></defs><title>sign</title><path class="cls-1" d="M237.415,180.462V317.279H215.634V206.922a60.821,60.821,0,0,1-12.585,7.26,124.2,124.2,0,0,1-15.489,5.163V200.791c3.711-1.129,7.1-2.42,10.487-3.711s6.615-2.743,10-4.356c3.227-1.613,6.454-3.388,9.842-5.486,3.227-1.936,6.776-4.195,10.326-6.776h9.2ZM24.606,16.055h111.81v17.1H33.157V149.323h-17.1V16.055h8.551Zm8.551,360.276v90.513H136.415v17.1H16.055V376.331h17.1ZM363.585,16.055H483.945V149.323h-17.1V33.157H363.585v-17.1ZM483.945,376.331V483.945H363.585v-17.1H466.843V376.331h17.1Zm-439.333-96,60.664-60.664,60.664,60.664H44.612Zm305.42,36.947H265.973V306.954a41.077,41.077,0,0,1,1.775-11.939,44.035,44.035,0,0,1,4.84-10.487,52.911,52.911,0,0,1,6.938-9.2c2.743-2.9,5.486-5.647,8.551-8.39s6.131-5.324,9.358-7.906c3.227-2.42,6.292-5,9.358-7.583a84.348,84.348,0,0,0,7.744-7.1,36.645,36.645,0,0,0,6.131-7.26,24.071,24.071,0,0,0,3.872-7.906,26.537,26.537,0,0,0,1.452-9.035,23.4,23.4,0,0,0-1.613-9.2,19.281,19.281,0,0,0-4.518-6.615,21.968,21.968,0,0,0-7.1-4.034,24.73,24.73,0,0,0-8.712-1.291,39.33,39.33,0,0,0-16.618,3.711,56.992,56.992,0,0,0-16.457,11.617V193.369a91.767,91.767,0,0,1,8.39-5.324,52.386,52.386,0,0,1,8.712-3.711,56.776,56.776,0,0,1,9.358-2.42,71.779,71.779,0,0,1,10.487-.645,57.151,57.151,0,0,1,16.457,2.259,34.167,34.167,0,0,1,12.585,7.1,30.759,30.759,0,0,1,8.067,11.455,41.462,41.462,0,0,1,2.9,15.973,45.769,45.769,0,0,1-2.1,14.521,41.473,41.473,0,0,1-5.647,12.1,59.782,59.782,0,0,1-8.874,10.649c-3.55,3.388-7.422,6.776-11.617,10.326-3.711,2.9-7.26,5.808-10.81,8.551s-6.776,5.486-9.681,8.228a38.708,38.708,0,0,0-6.938,7.906,13.8,13.8,0,0,0-2.743,7.906v0.484h60.5v18.554Zm24.363-5V291.949a46.076,46.076,0,0,0,29.526,10.326c8.874,0,15.973-1.936,21.3-5.97a19.614,19.614,0,0,0,8.067-16.457q0-22.749-34.85-22.749H388.108V239.674h9.842c20.652,0,30.816-7.1,30.816-21.458,0-13.069-7.906-19.684-24.04-19.684-8.874,0-17.264,3.227-25.169,9.519v-19.2c9.035-5,19.684-7.583,32.107-7.583,11.939,0,21.458,2.9,28.557,8.874a28.9,28.9,0,0,1,10.81,22.911c0,17.748-9.035,29.042-26.944,34.043v0.484c9.681,0.807,17.264,4.195,22.911,10a30.607,30.607,0,0,1,8.39,21.781q0,18.151-13.553,29.041c-9.035,7.422-20.974,11.133-35.657,11.133-13.23,0-23.879-2.42-31.784-7.26h0Z" transform="translate(-16.055 -16.055)"/></svg>