<?xml version="1.0" encoding="utf-8"?>
<!-- Generator: Adobe Illustrator 20.0.0, SVG Export Plug-In . SVG Version: 6.00 Build 0)  -->
<svg version="1.1" id="Слой_1" xmlns="http://www.w3.org/2000/svg" xmlns:xlink="http://www.w3.org/1999/xlink" x="0px" y="0px"
	 viewBox="0 0 500 500" style="enable-background:new 0 0 500 500;" xml:space="preserve">
<style type="text/css">
	.st0{fill:#CCCCCC;}
</style>
<g>
	<path class="st0" d="M250,4.62C114.695,4.62,4.62,114.704,4.62,250S114.695,495.38,250,495.38S495.38,385.296,495.38,250
		S385.305,4.62,250,4.62z M250,467.601c-119.986,0-217.601-97.624-217.601-217.601S130.014,32.399,250,32.399
		S467.601,130.023,467.601,250S369.986,467.601,250,467.601z"/>
	<path class="st0" d="M250,127.03c-8.681,0-15.788,2.441-21.322,7.325c-5.534,4.883-8.301,11.177-8.301,18.881
		c0,7.487,2.767,13.817,8.301,18.953c5.534,5.172,12.642,7.74,21.322,7.74c8.789,0,15.924-2.496,21.404-7.487
		c5.48-4.992,8.22-11.394,8.22-19.206c0-7.704-2.74-13.998-8.22-18.881C265.924,129.471,258.789,127.03,250,127.03z"/>
	<rect x="224" y="212" class="st0" width="54" height="166"/>
</g>
</svg>
