<?xml version="1.0" encoding="utf-8"?>
<!-- Generator: Adobe Illustrator 20.0.0, SVG Export Plug-In . SVG Version: 6.00 Build 0)  -->
<svg version="1.1" id="Слой_1" xmlns="http://www.w3.org/2000/svg" xmlns:xlink="http://www.w3.org/1999/xlink" x="0px" y="0px"
	 viewBox="0 0 500 500" style="enable-background:new 0 0 500 500;" xml:space="preserve">
<style type="text/css">
	.st0{fill:#CCCCCC;}
</style>
<g>
	<polygon class="st0" points="336.755,126.066 250,212.821 163.245,126.066 126.063,163.245 212.819,250 126.063,336.755 
		163.245,373.938 250,287.183 336.755,373.938 373.936,336.755 287.18,250 373.936,163.245 	"/>
	<path class="st0" d="M250,4.62C114.695,4.62,4.62,114.704,4.62,250S114.695,495.38,250,495.38S495.38,385.296,495.38,250
		S385.305,4.62,250,4.62z M250,467.601c-119.986,0-217.601-97.624-217.601-217.601S130.014,32.399,250,32.399
		S467.601,130.023,467.601,250S369.986,467.601,250,467.601z"/>
</g>
</svg>
