<?xml version="1.0" encoding="utf-8"?>
<!-- Generator: Adobe Illustrator 20.0.0, SVG Export Plug-In . SVG Version: 6.00 Build 0)  -->
<svg version="1.1" id="Слой_1" xmlns="http://www.w3.org/2000/svg" xmlns:xlink="http://www.w3.org/1999/xlink" x="0px" y="0px"
	 viewBox="0 0 500 500" style="enable-background:new 0 0 500 500;" xml:space="preserve">
<style type="text/css">
	.st0{fill:#CCCCCC;}
</style>
<g>
	<path class="st0" d="M147.425,316.43v49.806h49.806l146.895-146.895l-49.806-49.806L147.425,316.43z M382.642,180.825
		c5.18-5.18,5.18-13.547,0-18.727l-31.079-31.079c-5.18-5.18-13.547-5.18-18.727,0l-24.305,24.305l49.806,49.806L382.642,180.825z"
		/>
	<g>
		<g>
			<path class="st0" d="M250,4.62C114.695,4.62,4.62,114.704,4.62,250S114.695,495.38,250,495.38S495.38,385.296,495.38,250
				S385.305,4.62,250,4.62z M250,467.601c-119.986,0-217.601-97.624-217.601-217.601S130.014,32.399,250,32.399
				S467.601,130.023,467.601,250S369.986,467.601,250,467.601z"/>
		</g>
	</g>
</g>
</svg>
