<svg id="Слой_1" data-name="Слой 1" xmlns="http://www.w3.org/2000/svg" viewBox="0 0 422.885 463.927"><defs><style>.cls-1{fill:#3b309f;}</style></defs><title>space</title><path class="cls-1" d="M139.657,69.1L400.386,250.285a31.428,31.428,0,0,0-9.681,13.875L129.815,83.135A31.343,31.343,0,0,0,139.657,69.1h0ZM404.1,302.075L270.505,426.631a34.318,34.318,0,0,0-11.617-12.423L392.48,289.652A33,33,0,0,0,404.1,302.075h0ZM210.648,435.666L103.033,383.391a31.947,31.947,0,0,0,7.422-15.166l0.161-.161,107.454,52.275a30.7,30.7,0,0,0-7.422,15v0.323ZM73.669,330.633L97.87,88.459a54.443,54.443,0,0,0,5.486,1.613,34.129,34.129,0,0,0,11.455,0l-24.2,242.335a21.47,21.47,0,0,0-5.486-1.613,30.446,30.446,0,0,0-11.455-.161h0Z" transform="translate(-38.558 -18.037)"/><path class="cls-1" d="M460.889,281.585h0l-0.161.968a40.361,40.361,0,0,1-17.1,25.815,40.815,40.815,0,0,1-29.526,6.454h0l-0.807-.161a40.432,40.432,0,0,1-15-73.41,40.387,40.387,0,0,1,30.332-6.292,40.707,40.707,0,0,1,32.268,46.628h0Zm-26.783,12.746a24.381,24.381,0,0,0,9.842-15h0a23.313,23.313,0,0,0-3.55-17.748,24.38,24.38,0,0,0-15-9.842,23.627,23.627,0,0,0-17.586,3.55,23.948,23.948,0,0,0-10,15,23.53,23.53,0,0,0,3.711,17.586,23.184,23.184,0,0,0,14.843,10h0a24.806,24.806,0,0,0,17.748-3.55h0Z" transform="translate(-38.558 -18.037)"/><path class="cls-1" d="M281.961,448.251h0l-0.161.807a40.324,40.324,0,0,1-46.466,32.268h0l-0.968-.161a39.765,39.765,0,0,1-25.815-17.1A40.23,40.23,0,0,1,202.1,434.7h0l0.161-.968a40.509,40.509,0,0,1,79.7,14.521h0Zm-26.783,12.585a23.184,23.184,0,0,0,10-14.843h0a24.1,24.1,0,0,0-3.711-17.748,23.53,23.53,0,0,0-32.591-6.292,23.944,23.944,0,0,0-9.842,15h0a23.334,23.334,0,0,0,18.393,27.428l0.161,0.161a23.69,23.69,0,0,0,17.586-3.711h0Z" transform="translate(-38.558 -18.037)"/><path class="cls-1" d="M119.006,369.032h0l-0.161.807a40.3,40.3,0,0,1-17.1,25.976,39.581,39.581,0,0,1-29.364,6.292H72.216l-0.807-.161A40.353,40.353,0,0,1,39.3,354.511a40.324,40.324,0,0,1,46.466-32.268h0.161l0.807,0.161a40.372,40.372,0,0,1,32.268,46.628h0ZM92.223,381.617a22.976,22.976,0,0,0,9.842-14.843v-0.161a23.063,23.063,0,0,0-3.549-17.586,23.383,23.383,0,0,0-14.843-9.842H83.51a23.471,23.471,0,0,0-23.879,36.141,22.784,22.784,0,0,0,14.843,9.842l0.161,0.161a23.851,23.851,0,0,0,17.586-3.711h0Z" transform="translate(-38.558 -18.037)"/><path class="cls-1" d="M149.176,66.194a40.3,40.3,0,0,1-17.1,25.976A39.622,39.622,0,0,1,101.742,98.3a40.5,40.5,0,0,1,15.327-79.541,40.353,40.353,0,0,1,32.107,47.434h0ZM122.555,77.972A22.784,22.784,0,0,0,132.4,63.128a23.336,23.336,0,0,0-18.554-27.589A23.471,23.471,0,0,0,89.964,71.679a23.529,23.529,0,0,0,15,10,23.851,23.851,0,0,0,17.586-3.711h0Z" transform="translate(-38.558 -18.037)"/></svg>