<svg id="Слой_1" data-name="Слой 1" xmlns="http://www.w3.org/2000/svg" viewBox="0 0 17.87 17"><defs><style>.cls-1{fill:#fb8c00;}</style></defs><title>star big empty</title><path class="cls-1" d="M9.81,7.15l1.87,3.78,0.23,0.47,0.52,0.08,4.17,0.61-3,2.94-0.38.37,0.09,0.52L14,20.06l-3.73-2-0.47-.24-0.47.24-3.73,2,0.71-4.15,0.09-.52L6,15,3,12.08l4.17-.61,0.52-.08,0.23-.47L9.81,7.15m0-2.26L7,10.48l-6.18.9,4.47,4.36L4.29,21.89,9.81,19l5.52,2.9-1.05-6.15,4.47-4.36-6.18-.9L9.81,4.89h0Z" transform="translate(-0.87 -4.89)"/></svg>