<svg id="Слой_1" data-name="Слой 1" xmlns="http://www.w3.org/2000/svg" viewBox="0 0 500 500"><defs><style>.cls-1{fill:#989898;}</style></defs><title>иконки</title><path class="cls-1" d="M169.464,346.327H148.28V325.656h-0.514q-13.812,23.791-40.678,23.778-19.75,0-30.931-10.473Q64.994,328.512,64.994,311.2q0-37.058,43.647-43.121l39.638-5.562q0-33.713-27.248-33.7-23.884,0-43.134,16.261V223.4Q97.4,211,122.848,211q46.6,0,46.616,49.335v85.992Zm-21.185-66.9-31.9,4.41q-14.714,2.067-22.212,7.291-7.479,5.224-7.492,18.516A20.226,20.226,0,0,0,93.6,325.481q6.9,6.126,18.4,6.114,15.748,0,26.02-11.025,10.26-11.05,10.26-27.962V279.428Z"/><path class="cls-1" d="M220.215,327.21H219.7v19.118H198.517V150.566H219.7v86.768h0.514Q235.831,210.988,265.929,211q25.425,0,39.839,17.74,14.395,17.777,14.395,47.606,0,33.186-16.136,53.118-16.161,19.957-44.173,19.97Q233.639,349.434,220.215,327.21ZM219.7,273.891v18.466q0,16.387,10.649,27.812T257.4,331.594q19.243,0,30.155-14.708,10.918-14.733,10.912-40.941,0-22.062-10.2-34.6-10.2-12.515-27.637-12.528-18.472,0-29.7,12.854T219.7,273.891Z"/><path class="cls-1" d="M434.743,340.264q-15.24,9.17-36.156,9.17-28.282,0-45.652-18.416-17.364-18.378-17.364-47.706,0-32.66,18.717-52.492T404.263,211q17.439,0,30.744,6.439v21.7q-14.733-10.336-31.52-10.323-20.276,0-33.249,14.532-12.966,14.507-12.979,38.16,0,23.227,12.2,36.657,12.215,13.455,32.735,13.43,17.307,0,32.548-11.476v20.145Z"/></svg>