<?xml version="1.0" encoding="utf-8"?>
<!-- Generator: Adobe Illustrator 17.0.0, SVG Export Plug-In . SVG Version: 6.00 Build 0)  -->
<!DOCTYPE svg PUBLIC "-//W3C//DTD SVG 1.1//EN" "http://www.w3.org/Graphics/SVG/1.1/DTD/svg11.dtd">
<svg version="1.1"
	 id="Слой_1" xmlns:inkscape="http://www.inkscape.org/namespaces/inkscape" xmlns:sodipodi="http://sodipodi.sourceforge.net/DTD/sodipodi-0.dtd" xmlns:svg="http://www.w3.org/2000/svg" xmlns:cc="http://creativecommons.org/ns#" xmlns:rdf="http://www.w3.org/1999/02/22-rdf-syntax-ns#" xmlns:dc="http://purl.org/dc/elements/1.1/" sodipodi:docname="list.svg" inkscape:version="0.91 r13725"
	 xmlns="http://www.w3.org/2000/svg" xmlns:xlink="http://www.w3.org/1999/xlink" x="0px" y="0px" width="499px" height="499px"
	 viewBox="1.0484314 -2.7351685 499 499" enable-background="new 1.0484314 -2.7351685 499 499" xml:space="preserve">
<sodipodi:namedview  objecttolerance="10" borderopacity="1" gridtolerance="10" bordercolor="#666666" pagecolor="#ffffff" inkscape:zoom="0.61016949" inkscape:cx="495.31331" fit-margin-left="0" fit-margin-top="0" showgrid="false" units="pt" id="namedview3381" inkscape:cy="307.56014" guidetolerance="10" inkscape:window-width="1366" inkscape:window-height="705" inkscape:pageopacity="0" inkscape:pageshadow="2" inkscape:current-layer="Слой_1" inkscape:window-maximized="1" inkscape:window-y="-8" inkscape:window-x="-8" fit-margin-bottom="0" fit-margin-right="0">
	</sodipodi:namedview>
<title  id="title3367">list</title>
<g id="g3356" transform="matrix(54.277618,0,0,54.277618,17.392137,444.03506)">
	<path id="path3343" inkscape:connector-curvature="0" fill="#B2B2B2" d="M4.1642776-3.8094935H3.0479298H1.9315821H0.8152345
		h-1.1163477v-1.1054282v-1.1054277v-1.1054282v-1.1054282h1.110034h1.110034h1.1100341h1.110034v1.1063461v1.1063457v1.1063457
		v1.1063457l0.0063133-0.0009177L4.15165-3.8076582l0.0063138-0.0009177L4.1642776-3.8094935z M0.5463817-4.6385646h0.6862865
		h0.6862866h0.6862866H3.291528v-0.6908922v-0.6908927v-0.6908927v-0.6908922H2.6052413H1.9189547H1.2326682H0.5463817v0.6908922
		v0.6908927v0.6908927V-4.6385646z"/>
	<path id="path3345" inkscape:connector-curvature="0" fill="#B2B2B2" d="M8.8923635-3.8094935H7.7869353H6.6815071H5.5760794
		H4.4706511v-1.1054282v-1.1054277v-1.1054282v-1.1054282h1.1054282h1.1054277h1.1054282h1.1054282v1.1054282v1.1054282v1.1054277
		V-3.8094935z M5.3160501-4.6385646h0.6868105H6.689671h0.6868105h0.686811v-0.6908922v-0.6908927v-0.6908927v-0.6908922H7.3723998
		H6.6815071H5.9906144H5.2997222v0.6887002v0.6887007v0.6887007v0.6887002l0.0040817,0.002192l0.0040822,0.002192
		l0.0040817,0.002192L5.3160501-4.6385646z"/>
	<path id="path3347" inkscape:connector-curvature="0" fill="#B2B2B2" d="M4.1642776,0.9622708H3.0479298H1.9315821H0.8152345
		h-1.1163477v-1.110034v-1.110034v-1.1100341v-1.110034h1.110034h1.110034h1.1100341h1.110034v1.108747v1.108747v1.1087469
		v1.1087469l0.0063133,0.001287L4.15165,0.9596967l0.0063138,0.001287L4.1642776,0.9622708z M0.5463817,0.114776h0.6862865
		h0.6862866h0.6862866H3.291528v-0.6862866v-0.6862865v-0.6862866v-0.6862867H2.6052413H1.9189547H1.2326682H0.5463817v0.6862867
		v0.6862866v0.6862865V0.114776z"/>
	<path id="path3349" inkscape:connector-curvature="0" fill="#B2B2B2" d="M8.8923635,0.9622708H7.7869353H6.6815071H5.5760794
		H4.4706511v-1.110034v-1.110034v-1.1100341v-1.110034h1.1054282h1.1054277h1.1054282h1.1054282v1.108747v1.108747v1.1087469
		v1.1087469v0.001287v0.0012871v0.001287V0.9622708z M5.3160501,0.114776h0.6868105H6.689671h0.6868105h0.686811v-0.6862866
		v-0.6862865v-0.6862866v-0.6862867H7.3723998H6.6815071H5.9906144H5.2997222v0.6864957v0.6864957v0.6864955v0.6864956
		l0.0040817-0.000209l0.0040822-0.000209l0.0040817-0.000209L5.3160501,0.114776z"/>
</g>
</svg>
