<?xml version="1.0" encoding="utf-8"?>
<!-- Generator: Adobe Illustrator 17.0.0, SVG Export Plug-In . SVG Version: 6.00 Build 0)  -->
<!DOCTYPE svg PUBLIC "-//W3C//DTD SVG 1.1//EN" "http://www.w3.org/Graphics/SVG/1.1/DTD/svg11.dtd">
<svg version="1.1" id="Слой_1" xmlns="http://www.w3.org/2000/svg" xmlns:xlink="http://www.w3.org/1999/xlink" x="0px" y="0px"
	 width="456.372px" height="500px" viewBox="0 146 456.372 500" enable-background="new 0 146 456.372 500" xml:space="preserve">
<title>txt small</title>
<path d="M193.459,443.193h-41.732v119.235h-32.79V443.193H77.205v-26.828h116.254V443.193z"/>
<path d="M332.069,562.428H293.02l-25.039-47.992c-1.389-3.146-2.391-6.449-2.981-9.837l0,0c-1.164,3.371-2.558,6.657-4.173,9.837
	l-25.337,47.098h-38.751l46.502-73.031l-42.03-72.137h39.944l19.674,43.819c1.838,3.938,3.334,8.027,4.471,12.222l0,0
	c0-2.782,1.49-7.055,4.471-12.818l23.251-43.521h36.665l-43.819,72.435L332.069,562.428z"/>
<path d="M456.372,443.193h-41.732v119.235h-33.088V443.193h-41.434v-26.828h116.254V443.193z"/>
<path d="M36.665,146h221.479l126.985,126.985v116.254H367.84v-98.965h-89.426c-9.636-0.009-18.867-3.874-25.635-10.731
	c-6.848-6.897-10.703-16.214-10.731-25.934v-89.426H36.665c-5.169-0.424-10.3,1.18-14.308,4.471l0,0
	c-3.528,3.707-5.547,8.596-5.664,13.712v425.967c0.04,5.044,2.077,9.867,5.664,13.414c3.707,3.528,8.596,5.547,13.712,5.664h312.395
	c5.044-0.04,9.867-2.077,13.414-5.664l0,0c3.587-3.547,5.623-8.37,5.664-13.414v-14.904h17.289v14.904
	c-0.009,9.635-3.874,18.867-10.731,25.635l0,0c-6.897,6.848-16.214,10.703-25.934,10.731H36.665
	c-9.762-0.107-19.085-4.072-25.934-11.029c-6.858-6.769-10.722-16-10.731-25.635V182.665c0.028-9.719,3.884-19.036,10.731-25.934
	l0,0C17.629,149.884,26.946,146.028,36.665,146L36.665,146z M260.826,171.636v81.974c0.04,5.044,2.077,9.867,5.664,13.414
	c3.516,3.67,8.334,5.811,13.414,5.962h81.974L260.826,171.636z"/>
</svg>
