<?xml version="1.0" encoding="utf-8"?>
<!-- Generator: Adobe Illustrator 20.0.0, SVG Export Plug-In . SVG Version: 6.00 Build 0)  -->
<svg version="1.1" id="Слой_1" xmlns="http://www.w3.org/2000/svg" xmlns:xlink="http://www.w3.org/1999/xlink" x="0px" y="0px"
	 viewBox="0 0 500 500" style="enable-background:new 0 0 500 500;" xml:space="preserve">
<style type="text/css">
	.st0{fill:#B2B2B2;}
</style>
<title>update</title>
<g>
	<path class="st0" d="M36.323,68.309c7.576,5.236,14.777,10.997,21.548,17.239l10.774,7.757c3.69,4.131,9.878,4.87,14.437,1.724
		l21.548-19.178c40.629-33.199,91.267-51.723,143.728-52.578c57.076-0.877,112.362,19.913,154.718,58.181
		c18.666,16.207,34.473,35.438,46.76,56.888c6.68,11.852,29.521,59.258,26.72,76.281l-48.268,7.757
		c-7.412-45.301-32.04-85.987-68.739-113.56c-11.623-8.608-24.205-15.839-37.494-21.548
		c-56.744-23.705-121.633-17.054-172.387,17.67c-13.36,9.05-35.339,23.057-19.825,34.908c12.688,8.897,24.781,18.615,36.201,29.09
		L41.063,195.444L36.323,68.309z M34.168,39.003C7.448,17.454,15.421,71.541,16.067,87.702c0,23.703,1.724,48.699,2.801,72.403
		c0,12.067,0,24.565,1.293,35.986s0,24.565,15.73,21.548c27.366-4.525,91.796-20.04,123.903-26.936
		c10.128-2.155,21.548-4.094,31.892-6.895c31.245-7.757-23.057-37.925-36.848-50.854c-0.875-0.632-1.609-1.439-2.155-2.37
		c12.573-11.201,27.212-19.839,43.097-25.427c81.804-30.974,173.228,10.232,204.202,92.035c2.708,7.151,4.894,14.489,6.542,21.956
		c5.387,23.488-1.293,29.306,27.366,24.565c70.248-11.852,69.817-3.663,62.49-40.942c-10.088-47.56-33.478-91.276-67.447-126.058
		C382.892,31.268,321.223,5.136,256.547,3.663C204.976,2.649,154.367,17.711,111.742,46.76
		c-11.86,7.944-23.296,16.504-34.262,25.643L34.168,39.003z"/>
	<path class="st0" d="M74.248,301.462c5.073,7.848,8.924,16.422,11.421,25.427c42.002,89.796,148.846,128.541,238.643,86.539
		c14.061-6.577,27.21-14.95,39.116-24.91c7.757-5.818,16.161-12.714,10.128-21.548l-29.952-23.919l-4.741-3.448l-4.525-4.956
		l124.765-26.72l4.094,126.705c-4.31-2.792-8.414-5.888-12.283-9.266l-12.498-9.697c-11.636-9.05-15.299-15.73-28.228-3.232
		c-89.65,89.424-234.819,89.241-324.244-0.409c-4.683-4.695-9.161-9.592-13.42-14.675c-21.624-25.48-37.172-55.544-45.467-87.918
		L74.248,301.462z M348.775,373.003c-14.533,12.265-31.285,21.628-49.346,27.582c-79.305,26.576-165.629-12.911-197.383-90.288
		c-12.714-31.676-1.508-34.046-40.727-27.582l-33.185,5.387C15.852,290.257,4,289.395,4,302.324
		c3.775,19.775,10.303,38.924,19.394,56.888c32.934,68.917,95.833,118.775,170.448,135.109
		c82.015,17.695,167.462-6.534,227.982-64.645c5.603,2.586,35.77,27.582,43.097,33.4c26.72,20.04,18.963-28.659,18.316-47.622
		l-3.663-110.112c0-11.852,0-23.272-14.006-21.548c-23.919,3.663-96.321,21.548-126.058,27.366
		c-10.128,2.155-21.548,4.094-31.892,6.895c-13.145,3.879-9.481,15.299-1.724,21.548L348.775,373.003z"/>
</g>
</svg>
