<?xml version="1.0" encoding="utf-8"?>
<!-- Generator: Adobe Illustrator 20.0.0, SVG Export Plug-In . SVG Version: 6.00 Build 0)  -->
<svg version="1.1" id="Слой_1" xmlns="http://www.w3.org/2000/svg" xmlns:xlink="http://www.w3.org/1999/xlink" x="0px" y="0px"
	 viewBox="0 0 541.443 500" style="enable-background:new 0 0 541.443 500;" xml:space="preserve">
<style type="text/css">
	.st0{fill:#B2B2B2;}
</style>
<title>uploaded</title>
<g>
	<path class="st0" d="M28.596,116.546h422.596c80.237,0,61.205,69.423,61.205,148.579v103.378c0,36.117,6.272,68.558-15.788,90.402
		c-22.06,21.844-56.88,14.707-90.618,14.707H89.585c-80.237,0-61.205-70.288-61.205-147.498V116.546l0,0H28.596z M28.596,90.161
		c0-28.332-6.921-57.745,23.357-59.475h161.988c27.467,2.595,21.627,35.685,21.627,59.259H28.596V90.161z M261.737,90.161
		c0-26.601,7.786-82.183-45.633-85.211c-40.659-2.379-88.672,0-129.763,0c-20.185-2.637-40.707-0.489-59.907,6.272
		C12.061,18.619,2.561,32.95,1.346,49.069c-3.028,38.496,0,87.59,0,127.384s-2.379,231.411,0,255.85
		c4.784,32.705,29.803,58.767,62.286,64.882c43.183,3.152,86.518,3.657,129.763,1.514H454.22
		c34.631,2.671,66.939-17.61,79.588-49.959c10.165-23.357,6.921-210.216,6.921-250.659c1.904-19.859-0.005-39.899-5.623-59.042
		c-5.715-14.248-15.398-26.558-27.899-35.469c-29.629-19.681-77.209-13.625-116.138-13.625s-95.809,3.46-129.763,0l0,0
		L261.737,90.161z"/>
	<path class="st0" d="M220.429,311.191c-7.743-4.964-18.043-2.712-23.007,5.031c-4.465,6.965-3.141,16.151,3.11,21.57l50.175,48.661
		c4.65,6.396,11.138,11.224,18.599,13.841c8.849-0.117,17.017-4.773,21.627-12.328c5.839-5.407,11.246-10.165,16.869-15.788
		l32.873-32.225c6.953-6.021,7.708-16.538,1.688-23.49c-4.991-5.764-13.259-7.402-20.071-3.976
		c-8.218,5.623-25.52,27.034-33.09,32.008c0-43.254,0-91.699,0-135.819c0-14.49,0-28.548-16.869-28.548
		s-16.869,13.841-16.869,28.548c0,18.167,0,125.438,0,134.089L220.429,311.191z"/>
	<path class="st0" d="M140.625,438.359c2.379,11.03,11.462,12.327,24.006,12.327h183.831c21.627,0,57.312,6.704,51.473-21.627
		c-2.379-11.895-12.111-12.544-24.655-12.544H191.449c-19.897,0-57.096-6.488-51.04,21.627l0,0L140.625,438.359z"/>
</g>
</svg>
