<svg id="Слой_1" data-name="Слой 1" xmlns="http://www.w3.org/2000/svg" viewBox="0 0 478.673 478.238"><defs><style>.cls-1{fill:#303f9f;}</style></defs><title>url</title><path class="cls-1" d="M487.047,354.28a112.472,112.472,0,0,0-27.721-54c-26.229-28.591-54.585-55.058-82.231-82.467a15.6,15.6,0,0,0-17.722-3.545,16.54,16.54,0,0,0-4.49,28.119c26.229,26.23,52.457,52.222,78.451,78.687A79.632,79.632,0,0,1,320.619,433.319q-42.534-42.06-84.595-84.595a76.8,76.8,0,0,1-23.63-55.766,82,82,0,0,1,22.212-55.529,25.28,25.28,0,0,0,5.671-14.887,13.705,13.705,0,0,0-10.632-13.706,18.2,18.2,0,0,0-19.377,6.144,112.477,112.477,0,0,0-1.891,153.593c28.356,30.245,58.13,59.074,87.667,88.138a114.13,114.13,0,0,0,82.467,32.373,197.121,197.121,0,0,0,20.794-2.126A112.476,112.476,0,0,0,487.047,354.28Z" transform="translate(-10.664 -10.881)"/><path class="cls-1" d="M171.515,59.116A80.029,80.029,0,0,1,180.5,68c27.646,27.175,55.058,54.585,82.231,81.759a89.3,89.3,0,0,1,16.068,23.63,78.212,78.212,0,0,1-14.887,90.5,16.777,16.777,0,0,0,0,25.047,16.069,16.069,0,0,0,22.71-.811q0.485-.519.92-1.08a112.95,112.95,0,0,0,0-158.083Q246.187,85.963,203.889,44.61A108.459,108.459,0,0,0,99.919,13.892,107.045,107.045,0,0,0,15.8,92.106a108.463,108.463,0,0,0,29.066,112c23.63,25.047,48.914,49.387,73.488,73.961a43.7,43.7,0,0,0,7.089,5.907,15.83,15.83,0,0,0,23.63-8.27,18.2,18.2,0,0,0-6.852-20.321l-73.725-74.2A79.869,79.869,0,0,1,171.515,59.116Z" transform="translate(-10.664 -10.881)"/></svg>