<svg id="Слой_1" data-name="Слой 1" xmlns="http://www.w3.org/2000/svg" viewBox="0 0 35 35"><defs><style>.cls-1{fill:#39b44a;}</style></defs><title>login</title><path class="cls-1" d="M9.234,23.537c0-3.472,4.4-5.419,8.093-5.419,3.964,0,8.433,1.824,8.438,5.419,0,0.964.077,4.267-.039,4.976H9.273c-0.089-.7-0.039-4.019-0.039-4.976h0ZM7.406,23.2v6.12c0,0.831.475,1.041,1.255,1.041H26.426a0.966,0.966,0,0,0,1.169-1.041V23.11c0-2.349-1.99-4.2-3.352-5.038a12.929,12.929,0,0,0-6.744-1.79,12.758,12.758,0,0,0-6.734,1.8c-1.407.855-3.359,2.7-3.359,5.12h0Z"/><path class="cls-1" d="M16.66,6.6A3.609,3.609,0,0,1,21.074,9.34a3.669,3.669,0,0,1-7.139,1.7A3.61,3.61,0,0,1,16.66,6.6h0ZM16.793,4.7A5.5,5.5,0,1,0,22.966,9.5,5.485,5.485,0,0,0,16.793,4.7h0Z"/></svg>