<?xml version="1.0" encoding="utf-8"?>
<!-- Generator: Adobe Illustrator 17.0.0, SVG Export Plug-In . SVG Version: 6.00 Build 0)  -->
<!DOCTYPE svg PUBLIC "-//W3C//DTD SVG 1.1//EN" "http://www.w3.org/Graphics/SVG/1.1/DTD/svg11.dtd">
<svg version="1.1" id="Слой_1" xmlns="http://www.w3.org/2000/svg" xmlns:xlink="http://www.w3.org/1999/xlink" x="0px" y="0px"
	 width="428.333px" height="500px" viewBox="0 146 428.333 500" enable-background="new 0 146 428.333 500" xml:space="preserve">
<title>xls small</title>
<path d="M210.472,563.599h-39.109l-25.376-48.065c-1.392-3.151-2.394-6.459-2.985-9.852l0,0c-0.861,3.455-1.959,6.846-3.284,10.15
	l-25.376,47.17H74.934l46.573-73.143l-42.692-72.546h40.005l20.898,43.886c1.841,3.944,3.339,8.039,4.478,12.24l0,0
	c0-2.786,1.493-7.066,4.478-12.837l23.286-43.587h36.721l-43.886,72.546L210.472,563.599z"/>
<path d="M314.962,563.599h-87.174V417.313h32.84V536.73h54.036v26.869H314.962z"/>
<path d="M328.098,557.927v-32.541c5.755,4.813,12.328,8.555,19.405,11.046c6.709,2.383,13.778,3.595,20.898,3.583
	c3.57,0.42,7.177,0.42,10.748,0c2.736-0.556,5.359-1.565,7.762-2.985c1.973-1.159,3.617-2.804,4.777-4.777
	c1.024-1.82,1.54-3.883,1.493-5.971c0.065-2.778-0.773-5.501-2.388-7.762c-1.818-2.447-4.039-4.567-6.568-6.269
	c-3.236-2.058-6.63-3.855-10.15-5.374l-12.539-5.374c-9.841-3.866-18.563-10.125-25.376-18.211
	c-5.637-7.007-8.6-15.789-8.359-24.779c-0.231-6.844,1.311-13.632,4.478-19.704c3.043-5.16,7.231-9.552,12.24-12.837
	c5.563-3.646,11.729-6.274,18.211-7.762c7.244-1.664,14.66-2.465,22.092-2.388c6.757-0.512,13.544-0.512,20.301,0
	c5.607,0.804,11.111,2.205,16.42,4.18v29.854c-2.541-1.741-5.24-3.241-8.061-4.478l-8.956-3.284l-8.658-0.597h-8.658
	c-3.372-0.39-6.778-0.39-10.15,0c-2.731,0.572-5.352,1.58-7.762,2.985c-1.943,1.198-3.579,2.834-4.777,4.777
	c-1.158,1.777-1.78,3.85-1.791,5.971c-0.089,2.321,0.536,4.614,1.791,6.568c1.463,2.092,3.282,3.911,5.374,5.374
	c2.73,1.944,5.628,3.643,8.658,5.075l11.643,5.075c5.449,2.215,10.736,4.809,15.823,7.762c4.384,2.527,8.401,5.64,11.942,9.255
	c3.354,3.426,5.993,7.485,7.762,11.942c4.1,11.845,3.349,24.831-2.09,36.124c-3.015,5.439-7.321,10.052-12.539,13.434
	c-5.656,3.609-11.932,6.14-18.51,7.464c-7.357,1.593-14.863,2.394-22.391,2.388c-7.711,0.012-15.406-0.688-22.988-2.09
	C340.598,562.631,334.163,560.721,328.098,557.927z"/>
<path d="M37.616,146.535h220.921l127.179,127.179v116.432h-17.315V291.03h-89.563c-9.65-0.009-18.896-3.879-25.675-10.748
	c-6.858-6.908-10.719-16.239-10.748-25.973v-89.563h-204.8c-5.136,0.057-10.053,2.088-13.733,5.672l0,0
	c-3.533,3.713-5.556,8.609-5.672,13.733v425.423c0.04,5.052,2.08,9.882,5.672,13.434c3.713,3.533,8.609,5.556,13.733,5.672h311.38
	c5.052-0.04,9.882-2.08,13.434-5.672l0,0c3.593-3.552,5.632-8.383,5.672-13.434v-14.927h17.315v14.927
	c-0.009,9.65-3.879,18.896-10.748,25.675l0,0c-6.908,6.858-16.239,10.719-25.973,10.747H37.616
	c-10.087,0.133-19.792-3.857-26.869-11.046C3.879,628.172,0.009,618.926,0,609.276v-426.02c0.028-9.734,3.89-19.065,10.748-25.973
	l0,0C17.875,150.203,27.573,146.324,37.616,146.535L37.616,146.535z M260.031,172.21v82.099c0.04,5.052,2.08,9.882,5.672,13.434
	c3.522,3.675,8.347,5.82,13.434,5.971h82.099L260.031,172.21z"/>
</svg>
