<?xml version="1.0" encoding="utf-8"?>
<!-- Generator: Adobe Illustrator 20.0.0, SVG Export Plug-In . SVG Version: 6.00 Build 0)  -->
<svg version="1.1" id="Слой_1" xmlns="http://www.w3.org/2000/svg" xmlns:xlink="http://www.w3.org/1999/xlink" x="0px" y="0px"
	 viewBox="0 0 820.178 500" style="enable-background:new 0 0 820.178 500;" xml:space="preserve">
<style type="text/css">
	.st0{fill:#4D91D3;}
	.st1{fill:#000;}
</style>
<title>yandex</title>
<g>
	<path class="st0" d="M596.295,99.086c27.771,6.014,56.249,3.891,84.197,8.667c35.576,4.252,69.767,16.334,100.116,35.377
		c38.106,22.309,50.911,71.286,28.602,109.391c-1.191,2.035-2.472,4.016-3.838,5.937c-27.584,43.077-65.141,78.875-109.491,104.362
		c-19.988,12.913-41.568,23.349-62.617,35.377c-3.903,2.91-8.943,3.826-13.62,2.476c0.289-4.978,2.666-9.603,6.545-12.736
		c10.899-14.293,8.148-34.716-6.145-45.616c-1.933-1.474-4.025-2.727-6.237-3.735c-21.76-11.417-46.224-16.677-70.754-15.212
		c-91.435-0.403-180.936,26.312-257.19,76.768c-14.792,9.131-26.978,21.926-35.377,37.146c-9.699,13.841-6.341,32.923,7.499,42.622
		c0.722,0.506,1.466,0.981,2.229,1.423c1.906,0.866,3.643,2.064,5.13,3.538c2.299,4.422,11.497,4.599,8.49,11.144
		c-3.619,3.081-8.595,4.023-13.089,2.476c-59.252,4.617-118.852-1.373-176-17.688c-14.72-5.061-28.745-11.955-41.745-20.519
		C3.612,439.476-11.452,390.678,9.355,351.289c0.948-1.795,1.964-3.554,3.045-5.273c16.624-28.687,38.744-53.813,65.093-73.938
		c15.855-13.725,32.837-26.091,50.766-36.969c7.932-4.425,14.858-10.448,20.342-17.688c7.021-0.095,13.901-1.983,19.988-5.483
		c122.774-64.179,257.887-101.274,396.22-108.784C575.478,104.284,586.264,102.89,596.295,99.086z"/>
	<path class="st1" d="M596.295,99.086c-9.798,3.755-20.329,5.208-30.778,4.245c-138.561,7.354-273.925,44.392-396.928,108.607
		c-6.208,3.929-13.353,6.128-20.695,6.368c0.948-6.978,4.562-13.317,10.082-17.688c17.688-29.893,31.132-61.733,47.582-91.98
		C238.808,38.35,311.565-4.547,389.164,0.384c36.966,1.844,72.656,14.109,102.947,35.377
		C525.285,59.325,560.102,80.487,596.295,99.086z"/>
</g>
</svg>
