<?xml version="1.0" encoding="utf-8"?>
<!-- Generator: Adobe Illustrator 16.2.0, SVG Export Plug-In . SVG Version: 6.00 Build 0)  -->
<!DOCTYPE svg PUBLIC "-//W3C//DTD SVG 1.1//EN" "http://www.w3.org/Graphics/SVG/1.1/DTD/svg11.dtd">
<svg version="1.1" id="Слой_1" xmlns="http://www.w3.org/2000/svg" xmlns:xlink="http://www.w3.org/1999/xlink" x="0px" y="0px"
	 width="113.629px" height="67.08px" viewBox="0 0 113.629 67.08" enable-background="new 0 0 113.629 67.08" xml:space="preserve">
<path fill="#4843A0" d="M4.496,36.169c0,2.569,1.587,4.156,4.497,4.156c2.456,0,4.232-1.096,5.441-2.683
	c0.075-0.114,2.267,0.265,2.267,2.002c0,0.983-0.302,1.512-1.019,2.268c-1.398,1.361-3.59,2.191-6.765,2.191
	C2.872,44.104,0,40.779,0,36.283c0-6.728,5.139-11.526,11.601-11.526c4.686,0,7.292,2.192,7.292,5.404
	c0,3.778-2.419,6.046-10.618,6.046c-1.134,0-2.38-0.076-3.779-0.152V36.169z M7.785,32.919c5.175,0,6.612-1.172,6.612-2.608
	c0-0.982-1.021-1.964-3.023-1.964c-2.795,0-5.063,1.926-6.159,4.458C6.16,32.881,7.028,32.919,7.785,32.919"/>
<path fill="#4843A0" d="M18.974,37.151l1.625-7.785l0.871-4.156l0.226-1.058c0.528-2.72,1.625-3.854,3.968-3.854
	c1.134,0,2.003,0.491,1.965,0.643l-0.908,4.27h3.099c1.285,0,2.002,0.567,2.002,1.399c0,0.529-0.264,1.7-0.793,2.229
	c-0.34,0.34-0.792,0.528-1.813,0.528h-3.438l-1.625,7.557c-0.492,2.229,0.264,3.174,1.738,3.174c0.945,0,1.776-0.49,2.267-0.944
	c0.151-0.112,0.87,0.491,0.87,1.626c0,0.793-0.303,1.473-0.908,2.077c-0.831,0.831-2.153,1.284-3.929,1.284
	C19.957,44.141,18.03,41.609,18.974,37.151"/>
<path fill="#4843A0" d="M32.248,37.151l1.625-7.785l0.869-4.156l0.227-1.058c0.529-2.72,1.625-3.854,3.968-3.854
	c1.134,0,2.002,0.491,1.965,0.643l-0.907,4.27h3.098c1.286,0,2.003,0.567,2.003,1.399c0,0.529-0.264,1.7-0.792,2.229
	c-0.341,0.34-0.795,0.528-1.815,0.528h-3.438l-1.625,7.557c-0.491,2.229,0.265,3.174,1.738,3.174c0.944,0,1.776-0.49,2.267-0.944
	c0.152-0.112,0.87,0.491,0.87,1.626c0,0.793-0.303,1.473-0.907,2.077c-0.831,0.831-2.153,1.284-3.93,1.284
	C33.23,44.141,31.302,41.609,32.248,37.151"/>
<path fill="#4843A0" d="M43.699,35.639c0-5.628,3.969-10.882,10.43-10.882c5.516,0,8.842,3.703,8.842,8.465
	c0,5.63-3.968,10.882-10.429,10.882C47.024,44.104,43.699,40.439,43.699,35.639 M58.324,33.448c0-2.683-1.853-4.648-4.346-4.648
	c-3.286,0-5.63,3.173-5.63,6.651c0,2.645,1.852,4.609,4.346,4.609C55.981,40.061,58.324,36.887,58.324,33.448"/>
<path fill="#4843A0" d="M76.608,24.756c3.778,0,5.97,2.457,5.97,5.971c0,1.322-0.454,3.136-1.096,5.403
	c-0.492,1.851-0.869,3.325-0.869,4.08c0,1.059,0.491,1.474,1.511,1.627c0.075,0-0.302,2.19-3.212,2.19
	c-2.494,0-3.664-1.285-3.664-3.249c0-1.097,0.339-2.495,0.906-4.572c0.49-1.738,0.832-3.175,0.832-3.968
	c0-1.89-1.059-3.022-2.986-3.022c-1.852,0-3.061,0.869-4.232,2.682l-1.965,9.372c-0.414,1.89-1.096,2.531-2.455,2.531h-0.566
	c-1.437,0-2.721-0.566-2.306-2.531l3.362-15.87c0.039-0.114,0.643-0.341,1.475-0.341c1.512,0,2.984,0.793,2.947,3.288
	C71.732,26.117,73.886,24.756,76.608,24.756"/>
<g>
	<defs>
		<path id="SVGID_337_" d="M82.578,10.791c1.006,2.179,2.097,4.051,3.396,5.348c2.502,2.504,7.125,4.241,12.021,6.081
			c7.398,2.781,15.051,5.657,15.051,11.319c0,5.667-7.652,8.542-15.053,11.322c-4.895,1.839-9.518,3.577-12.02,6.081
			c-1.299,1.297-2.391,3.167-3.396,5.349c0,0,0.562,0.163,0.85-0.436c0.892-1.831,1.852-3.392,2.959-4.501
			c2.414-2.414,6.98-4.13,11.814-5.946c7.586-2.851,15.429-5.798,15.429-11.869c0-6.067-7.843-9.017-15.429-11.866
			c-4.834-1.816-9.4-3.531-11.814-5.947c-1.129-1.128-2.104-2.729-3.009-4.605c-0.149-0.309-0.374-0.378-0.546-0.378
			C82.686,10.742,82.578,10.791,82.578,10.791"/>
	</defs>
	<clipPath id="SVGID_1_">
		<use xlink:href="#SVGID_337_"  overflow="visible"/>
	</clipPath>
	
		<linearGradient id="SVGID_2_" gradientUnits="userSpaceOnUse" x1="-0.1436" y1="2693.2461" x2="0.4235" y2="2693.2461" gradientTransform="matrix(179.5444 0 0 -179.5444 58.875 483590.875)">
		<stop  offset="0" style="stop-color:#09A6D9"/>
		<stop  offset="0.2" style="stop-color:#4A5794"/>
		<stop  offset="0.4" style="stop-color:#E3548F"/>
		<stop  offset="0.6" style="stop-color:#E04F46"/>
		<stop  offset="0.8" style="stop-color:#FDDF42"/>
		<stop  offset="1" style="stop-color:#07975F"/>
	</linearGradient>
	<rect x="82.578" y="10.742" clip-path="url(#SVGID_1_)" fill="url(#SVGID_2_)" width="31.052" height="45.711"/>
</g>
<g>
	<defs>
		<path id="SVGID_340_" d="M100.106,9.639c-2.118,0.015-4.586,0.352-6.976,0.676c-2.416,0.331-4.912,0.672-7.004,0.672
			c-1.504,0-2.67-0.178-3.549-0.537v0.63c0.922,0.329,2.093,0.491,3.549,0.491c2.132,0,4.648-0.343,7.083-0.676
			c2.427-0.332,4.934-0.673,7.043-0.673c2.86,0,4.55,0.62,5.319,1.949c1.512,2.614-1.774,6.877-4.953,10.999
			c-2.795,3.624-5.686,7.371-5.686,10.369c0,3,2.891,6.748,5.687,10.372c3.178,4.122,6.465,8.386,4.952,11
			c-0.768,1.328-2.459,1.946-5.318,1.947c-2.108,0-4.617-0.344-7.043-0.674c-2.435-0.332-4.952-0.676-7.083-0.676
			c-1.456,0-2.628,0.162-3.55,0.492v0.629c0.879-0.357,2.045-0.537,3.55-0.537c2.093,0,4.588,0.342,7.004,0.67
			c2.444,0.334,4.974,0.68,7.122,0.68c3.088-0.001,4.94-0.711,5.825-2.24c1.708-2.953-1.548-7.176-4.997-11.648
			c-2.736-3.547-5.563-7.214-5.563-10.014c0-2.797,2.827-6.464,5.563-10.013c3.445-4.472,6.705-8.696,4.997-11.648
			c-0.87-1.503-2.677-2.216-5.675-2.239H100.106z"/>
	</defs>
	<clipPath id="SVGID_3_">
		<use xlink:href="#SVGID_340_"  overflow="visible"/>
	</clipPath>
	
		<linearGradient id="SVGID_4_" gradientUnits="userSpaceOnUse" x1="0.127" y1="2694.877" x2="0.6932" y2="2694.877" gradientTransform="matrix(225.6162 0 0 -225.6162 -36.125 608041.5)">
		<stop  offset="0" style="stop-color:#09A6D9"/>
		<stop  offset="0.2" style="stop-color:#4A5794"/>
		<stop  offset="0.4" style="stop-color:#E3548F"/>
		<stop  offset="0.6" style="stop-color:#E04F46"/>
		<stop  offset="0.8" style="stop-color:#FDDF42"/>
		<stop  offset="1" style="stop-color:#07975F"/>
	</linearGradient>
	<rect x="82.578" y="9.639" clip-path="url(#SVGID_3_)" fill="url(#SVGID_4_)" width="25.209" height="47.802"/>
</g>
<g>
	<defs>
		<path id="SVGID_343_" d="M87.398,4.743c-1.016,0.065-2.067,0.134-3.051,0.134c-0.66,0-1.242-0.033-1.77-0.097v0.59
			c0.531,0.06,1.117,0.09,1.77,0.09c1.004,0,2.063-0.068,3.089-0.133c1.014-0.066,2.063-0.133,3.041-0.133
			c2.459,0,4.001,0.445,4.998,1.442c1.718,1.716,1.511,4.932,1.31,8.041c-0.16,2.49-0.324,5.066,0.471,6.983
			c0.753,1.817,2.559,3.389,4.469,5.05c2.405,2.092,4.895,4.256,4.895,6.828c0,2.575-2.489,4.737-4.895,6.832
			c-1.91,1.661-3.716,3.23-4.469,5.049c-0.795,1.919-0.631,4.494-0.471,6.985c0.201,3.108,0.408,6.322-1.31,8.039
			c-0.997,0.996-2.539,1.442-4.998,1.442c-0.978,0-2.026-0.068-3.041-0.134c-1.025-0.065-2.085-0.133-3.087-0.133
			c-0.652,0-1.238,0.029-1.771,0.09V62.3c0.527-0.064,1.11-0.098,1.771-0.098c0.982,0,2.034,0.069,3.049,0.134
			c1.025,0.065,2.081,0.134,3.079,0.134c1.769,0,3.982-0.184,5.411-1.614c1.904-1.902,1.688-5.251,1.48-8.49
			c-0.156-2.423-0.317-4.93,0.425-6.723c0.702-1.691,2.458-3.216,4.313-4.832c2.484-2.162,5.053-4.395,5.096-7.199v-0.146
			c-0.043-2.804-2.611-5.037-5.096-7.197c-1.855-1.615-3.611-3.141-4.313-4.832c-0.742-1.793-0.581-4.301-0.426-6.724
			c0.209-3.238,0.425-6.586-1.479-8.49c-1.429-1.43-3.643-1.613-5.411-1.613C89.479,4.61,88.423,4.678,87.398,4.743"/>
	</defs>
	<clipPath id="SVGID_5_">
		<use xlink:href="#SVGID_343_"  overflow="visible"/>
	</clipPath>
	
		<linearGradient id="SVGID_6_" gradientUnits="userSpaceOnUse" x1="-0.2769" y1="2694.2891" x2="0.2886" y2="2694.2891" gradientTransform="matrix(206.5535 0 0 -206.5535 149.125 556548.375)">
		<stop  offset="0" style="stop-color:#09A6D9"/>
		<stop  offset="0.2" style="stop-color:#4A5794"/>
		<stop  offset="0.4" style="stop-color:#E3548F"/>
		<stop  offset="0.6" style="stop-color:#E04F46"/>
		<stop  offset="0.8" style="stop-color:#FDDF42"/>
		<stop  offset="1" style="stop-color:#07975F"/>
	</linearGradient>
	<rect x="82.578" y="4.61" clip-path="url(#SVGID_5_)" fill="url(#SVGID_6_)" width="24.625" height="57.859"/>
</g>
<g>
	<defs>
		<path id="SVGID_346_" d="M84.685,2.911c-0.703,0.418-1.414,0.84-2.107,1.228v0.667c0.791-0.435,1.604-0.915,2.406-1.393
			c2.338-1.392,4.755-2.829,6.337-2.829c0.405,0,0.729,0.093,0.995,0.285c1.393,1.015,0.607,4.479-0.153,7.83
			c-0.755,3.324-1.467,6.465-0.368,7.977c1.084,1.488,4.266,1.774,7.635,2.078c3.448,0.312,7.016,0.634,7.559,2.304
			c0.511,1.576-2.104,3.869-4.638,6.088c-2.612,2.289-5.08,4.452-5.08,6.393c0,1.943,2.468,4.106,5.08,6.396
			c2.534,2.219,5.148,4.511,4.638,6.086c-0.543,1.671-4.11,1.994-7.559,2.306c-3.369,0.305-6.551,0.591-7.635,2.08
			c-1.099,1.51-0.387,4.65,0.368,7.975c0.761,3.351,1.546,6.814,0.153,7.831c-0.266,0.189-0.59,0.284-0.995,0.284
			c-1.582,0-3.997-1.437-6.337-2.828c-0.802-0.479-1.615-0.96-2.406-1.395v0.668c0.693,0.388,1.404,0.811,2.109,1.229
			c2.516,1.498,4.894,2.91,6.634,2.91c0.526,0,0.976-0.133,1.338-0.396c1.704-1.241,0.915-4.734,0.075-8.432
			c-0.694-3.051-1.41-6.207-0.467-7.503c0.929-1.274,4.124-1.563,7.213-1.841c3.809-0.345,7.403-0.67,8.064-2.708
			c0.631-1.939-2.012-4.256-4.809-6.705c-2.4-2.104-4.881-4.277-4.881-5.957c0-1.676,2.48-3.852,4.881-5.953
			c2.797-2.453,5.439-4.767,4.809-6.709c-0.662-2.037-4.256-2.36-8.064-2.705c-3.089-0.278-6.284-0.568-7.213-1.842
			c-0.943-1.296-0.227-4.45,0.467-7.502c0.84-3.697,1.629-7.189-0.075-8.431C92.296,0.133,91.847,0,91.321,0
			C89.579,0,87.202,1.414,84.685,2.911"/>
	</defs>
	<clipPath id="SVGID_7_">
		<use xlink:href="#SVGID_346_"  overflow="visible"/>
	</clipPath>
	
		<linearGradient id="SVGID_8_" gradientUnits="userSpaceOnUse" x1="-0.3149" y1="2692.3359" x2="0.2501" y2="2692.3359" gradientTransform="matrix(161.0906 0 0 -161.0906 105.125 433743.5)">
		<stop  offset="0" style="stop-color:#09A6D9"/>
		<stop  offset="0.2" style="stop-color:#4A5794"/>
		<stop  offset="0.4" style="stop-color:#E3548F"/>
		<stop  offset="0.6" style="stop-color:#E04F46"/>
		<stop  offset="0.8" style="stop-color:#FDDF42"/>
		<stop  offset="1" style="stop-color:#07975F"/>
	</linearGradient>
	<rect x="82.578" clip-path="url(#SVGID_7_)" fill="url(#SVGID_8_)" width="25.598" height="67.08"/>
</g>
</svg>
