<svg xmlns="http://www.w3.org/2000/svg" class="svg-icon">
  <defs>
        <clipPath id="clip-path"> <circle class="cls-1" cx="328.516" cy="250" r="157.028"/> </clipPath> <clipPath id="clip-path-2"> <circle class="cls-1" cx="171.488" cy="250" r="157.028"/> </clipPath> 
  <clipPath id="clip-path"> <circle class="cls-1" cx="328.516" cy="249.997" r="157.028"/> </clipPath> 
  <clipPath id="clip-path"> <circle class="cls-1" cx="171.488" cy="250.003" r="157.028"/> </clipPath> 
  <clipPath id="clip-path"> <circle class="cls-1" cx="328.516" cy="250" r="157.028"/> </clipPath> 
  </defs>
    <symbol id="ar-down" viewBox="0 0 15 15">
        <title> down </title> <path class="cls-1" d="M1.82 5.18l.71-.71 4.65 4.65 4.64-4.65.71.71-5.35 5.35-5.36-5.35z"/> 
    </symbol>
    <symbol id="ar-left" viewBox="0 0 15 26.5">
        <title> leftg </title> <path class="cls-1" d="M13.25 26.5L15 24.75 3.5 13.25 15 1.75 13.25 0 0 13.25 13.25 26.5z" id="left"/> 
    </symbol>
    <symbol id="ar-right" viewBox="0 0 15 26.5">
        <title> rightg </title> <path class="cls-1" d="M1.75 26.5L0 24.75l11.5-11.5L0 1.75 1.75 0 15 13.25 1.75 26.5z"/> 
    </symbol>
    <symbol id="ar-up" viewBox="0 0 15 15">
        <title> up hover </title> <path class="cls-1" d="M1.82 9.82l.71.71 4.65-4.65 4.64 4.65.71-.71-5.35-5.35-5.36 5.35z"/> 
    </symbol>
    <symbol id="axis-x" viewBox="0 0 500 500">
        <title> &#x438;&#x43A;&#x43E;&#x43D;&#x43A;&#x438; </title> <path class="cls-1" d="M247.054 226.431V83.723h5.892v142.708h-5.892zM381.16 215h-26.515l-17.087-32.289a32.368 32.368 0 0 1-2-6.6h-.236a54.677 54.677 0 0 1-2.239 6.953L315.992 215H289.36l31.582-49.494-28.872-49.494h27.1l14.141 29.7a40.513 40.513 0 0 1 2.946 8.367h.354a73.626 73.626 0 0 1 3.064-8.72l15.791-29.343h24.865l-29.7 49.023zM83.723 244.108h332.554v11.784H83.723v-11.784zm169.223 29.461v142.708h-5.892V273.569h5.892z"/> 
    </symbol>
    <symbol id="axis-y" viewBox="0 0 500 500">
        <title> &#x438;&#x43A;&#x43E;&#x43D;&#x43A;&#x438; </title> <path class="cls-1" d="M273.51 247.054h142.826v5.892H273.51v-5.892zm-69.056 51.851l-32.289 63.753v35.235h-22.273V363.13l-31.464-64.225H144l15.909 36.885c.236.707 1.061 3.417 2.239 8.131h.352a35.725 35.725 0 0 1 2.121-7.778l16.145-37.239h23.687zm39.6 117.372V83.723h11.784v332.554h-11.789zm-17.682-163.331H83.664v-5.892h142.708v5.892z"/> 
    </symbol>
    <symbol id="bol" viewBox="0 0 500 500">
        <title> &#x438;&#x43A;&#x43E;&#x43D;&#x43A;&#x438; </title> <path class="cls-1" d="M68.345 328.412V171.588h44.625q20.352 0 32.259 9.947 11.933 9.96 11.927 25.908a38.2 38.2 0 0 1-7.216 23.2 38.8 38.8 0 0 1-19.907 13.981v.451q15.86 1.842 25.369 11.977 9.527 10.11 9.521 26.309 0 20.107-14.445 32.573t-36.418 12.478H68.345zM86.724 188.2v50.638h18.8q15.109 0 23.74-7.266c5.75-4.861 8.632-11.676 8.632-20.521q0-22.851-30.067-22.851H86.724zm0 67.15v56.45h24.931q16.2 0 25.106-7.667t8.907-21q0-27.774-37.834-27.787h-21.11zM251.979 331.043q-33.356 0-53.419-22t-20.07-57.177q0-37.847 20.446-60.385 20.446-22.513 55.674-22.525 32.472 0 52.329 21.874t19.844 57.2q0 38.373-20.333 60.685-20.35 22.328-54.471 22.328zm1.315-145.474q-24.711 0-40.139 17.84-15.428 17.815-15.422 46.8t15.034 46.654q15.052 17.664 39.212 17.664 25.82 0 40.691-16.863 14.864-16.838 14.871-47.13 0-31.044-14.432-48.007-14.451-16.946-39.814-16.958zM431.655 328.412h-81.369V171.588h18.378V311.8h62.99v16.612z"/> 
    </symbol>
    <symbol id="buy" viewBox="0 0 500 500">
        <title> &#x43F;&#x43E;&#x43A;&#x443;&#x43F;&#x43A;&#x438; </title> <path class="st0" d="M250 0C111.929 0 0 111.929 0 250s111.929 250 250 250 250-111.929 250-250C499.896 111.972 388.028.104 250 0zm0 471.698C127.56 471.698 28.302 372.44 28.302 250S127.56 28.302 250 28.302 471.698 127.56 471.698 250C471.594 372.397 372.397 471.594 250 471.698z"/> <path class="st0" d="M314.34 146.226a69.256 69.256 0 0 0-26.038-11.887 142.991 142.991 0 0 0-33.396-3.585h-73.019v113.208h-18.868v26.792h18.868v30.377h-18.868v26.226h18.868v41.509h37.736v-41.509h68.679v-26.604h-67.925v-30.377h29.434c11.24.027 22.446-1.24 33.396-3.774a79.992 79.992 0 0 0 27.925-12.264A62.447 62.447 0 0 0 330 232.451a68.68 68.68 0 0 0 7.17-32.83 75.469 75.469 0 0 0-6.038-31.887 55.294 55.294 0 0 0-16.792-21.508zm-29.623 86.793a61.887 61.887 0 0 1-38.868 10.377h-25.472v-84.717h30.566a50.57 50.57 0 0 1 35.849 10.943 41.884 41.884 0 0 1 10.377 31.698 37.735 37.735 0 0 1-12.264 32.075l-.188-.376z"/> 
    </symbol>
    <symbol id="cancel" viewBox="0 0 18 18">
        <title> cancel </title> <path class="cls-1" d="M9 1a8 8 0 1 0 8 8 8 8 0 0 0-8-8zm4.06 10.8l-1.21 1.21L9 10.25l-2.77 2.81L5 11.85 7.84 9 5 6.23 6.23 5 9 7.84 11.85 5l1.21 1.21L10.25 9z"/> 
    </symbol>
    <symbol id="cell-full" viewBox="0 0 500 500">
        <title> &#x438;&#x43A;&#x43E;&#x43D;&#x43A;&#x438; 500 </title> <circle class="cls-2" cx="328.516" cy="250" r="157.028"/> <path class="cls-2" d="M328.514 414.879c-90.912 0-164.879-73.967-164.879-164.879S237.6 85.121 328.514 85.121 493.393 159.088 493.393 250s-73.967 164.879-164.879 164.879zm0-314.055c-82.256 0-149.176 66.921-149.176 149.176s66.921 149.176 149.176 149.176S477.69 332.256 477.69 250s-66.921-149.176-149.176-149.176z"/> <circle class="cls-2" cx="171.488" cy="250" r="157.028"/> <path class="cls-2" d="M171.486 414.879C80.574 414.879 6.607 340.912 6.607 250S80.574 85.121 171.486 85.121 336.365 159.088 336.365 250 262.4 414.879 171.486 414.879zm0-314.055C89.231 100.824 22.31 167.744 22.31 250s66.921 149.176 149.176 149.176S320.662 332.256 320.662 250s-66.92-149.176-149.176-149.176z"/> <g class="cls-3"> <path class="cls-4" d="M171.486 414.879C80.574 414.879 6.607 340.912 6.607 250S80.574 85.121 171.486 85.121 336.365 159.088 336.365 250 262.4 414.879 171.486 414.879zm0-314.055C89.231 100.824 22.31 167.744 22.31 250s66.921 149.176 149.176 149.176S320.662 332.256 320.662 250s-66.92-149.176-149.176-149.176z"/> </g> <g class="cls-5"> <path class="cls-4" d="M328.514 414.879c-90.912 0-164.879-73.967-164.879-164.879S237.6 85.121 328.514 85.121 493.393 159.088 493.393 250s-73.967 164.879-164.879 164.879zm0-314.055c-82.256 0-149.176 66.921-149.176 149.176s66.921 149.176 149.176 149.176S477.69 332.256 477.69 250s-66.921-149.176-149.176-149.176z"/> </g> 
    </symbol>
    <symbol id="cell-inner" viewBox="0 0 500 500">
        <title> &#x438;&#x43A;&#x43E;&#x43D;&#x43A;&#x438; 500 </title> <g class="cls-2"> <circle class="cls-3" cx="171.488" cy="249.997" r="157.028"/> </g> <path class="cls-3" d="M171.486 414.879C80.574 414.879 6.607 340.912 6.607 250S80.574 85.121 171.486 85.121 336.365 159.088 336.365 250 262.4 414.879 171.486 414.879zm0-314.055C89.231 100.824 22.31 167.744 22.31 250s66.921 149.176 149.176 149.176S320.662 332.256 320.662 250s-66.92-149.176-149.176-149.176z"/> <path class="cls-3" d="M328.514 414.879c-90.912 0-164.879-73.967-164.879-164.879S237.6 85.121 328.514 85.121 493.393 159.088 493.393 250s-73.967 164.879-164.879 164.879zm0-314.055c-82.256 0-149.176 66.921-149.176 149.176s66.921 149.176 149.176 149.176S477.69 332.256 477.69 250s-66.921-149.176-149.176-149.176z"/> 
    </symbol>
    <symbol id="cell-left" viewBox="0 0 500 500">
        <title> &#x438;&#x43A;&#x43E;&#x43D;&#x43A;&#x438; 500 </title> <circle class="cls-2" cx="171.488" cy="250.003" r="157.028"/> <path class="cls-2" d="M171.486 414.879C80.574 414.879 6.607 340.912 6.607 250S80.574 85.121 171.486 85.121 336.365 159.088 336.365 250 262.4 414.879 171.486 414.879zm0-314.055C89.231 100.824 22.31 167.744 22.31 250s66.921 149.176 149.176 149.176S320.662 332.256 320.662 250s-66.92-149.176-149.176-149.176z"/> <path class="cls-2" d="M328.514 414.879c-90.912 0-164.879-73.967-164.879-164.879S237.6 85.121 328.514 85.121 493.393 159.088 493.393 250s-73.967 164.879-164.879 164.879zm0-314.055c-82.256 0-149.176 66.921-149.176 149.176s66.921 149.176 149.176 149.176S477.69 332.256 477.69 250s-66.921-149.176-149.176-149.176z"/> <g class="cls-3"> <path class="cls-4" d="M328.514 414.879c-90.912 0-164.879-73.967-164.879-164.879S237.6 85.121 328.514 85.121 493.393 159.088 493.393 250s-73.967 164.879-164.879 164.879zm0-314.055c-82.256 0-149.176 66.921-149.176 149.176s66.921 149.176 149.176 149.176S477.69 332.256 477.69 250s-66.921-149.176-149.176-149.176z"/> </g> 
    </symbol>
    <symbol id="cell-none" viewBox="0 0 500 500">
        <title> &#x438;&#x43A;&#x43E;&#x43D;&#x43A;&#x438; 500 </title> <path class="cls-1" d="M250.812 313.15a17.1 17.1 0 0 1-12.146-4.463 14.237 14.237 0 0 1-4.784-10.811 13.783 13.783 0 0 1 4.831-10.857 17.7 17.7 0 0 1 12.1-4.232 17.2 17.2 0 0 1 12.053 4.279 14 14 0 0 1 4.692 10.811 14.315 14.315 0 0 1-4.646 10.949q-4.649 4.323-12.1 4.324zM265.9 179.094L262.313 270h-23.555l-3.4-90.9H265.9z"/> <path class="cls-2" d="M171.486 414.883C80.574 414.883 6.607 340.924 6.607 250S80.574 85.117 171.486 85.117 336.365 159.084 336.365 250 262.4 414.883 171.486 414.883zm0-314.063C89.231 100.82 22.31 167.748 22.31 250s66.921 149.18 149.176 149.18S320.662 332.259 320.662 250s-66.92-149.18-149.176-149.18z"/> <path class="cls-2" d="M328.514 414.883c-90.912 0-164.879-73.959-164.879-164.879S237.6 85.117 328.514 85.117 493.393 159.084 493.393 250s-73.967 164.883-164.879 164.883zm0-314.063c-82.256 0-149.176 66.928-149.176 149.184s66.92 149.176 149.176 149.176S477.69 332.259 477.69 250s-66.921-149.18-149.176-149.18z"/> 
    </symbol>
    <symbol id="cell-right" viewBox="0 0 500 500">
        <title> &#x438;&#x43A;&#x43E;&#x43D;&#x43A;&#x438; 500 </title> <circle class="cls-2" cx="328.516" cy="250" r="157.028"/> <path class="cls-2" d="M328.514 414.879c-90.912 0-164.879-73.967-164.879-164.879S237.6 85.121 328.514 85.121 493.393 159.088 493.393 250s-73.967 164.879-164.879 164.879zm0-314.055c-82.256 0-149.176 66.921-149.176 149.176s66.921 149.176 149.176 149.176S477.69 332.256 477.69 250s-66.921-149.176-149.176-149.176z"/> <path class="cls-2" d="M171.486 414.879C80.574 414.879 6.607 340.912 6.607 250S80.574 85.121 171.486 85.121 336.365 159.088 336.365 250 262.4 414.879 171.486 414.879zm0-314.055C89.231 100.824 22.31 167.744 22.31 250s66.921 149.176 149.176 149.176S320.662 332.256 320.662 250s-66.92-149.176-149.176-149.176z"/> <g class="cls-3"> <path class="cls-4" d="M171.486 414.879C80.574 414.879 6.607 340.912 6.607 250S80.574 85.121 171.486 85.121 336.365 159.088 336.365 250 262.4 414.879 171.486 414.879zm0-314.055C89.231 100.824 22.31 167.744 22.31 250s66.921 149.176 149.176 149.176S320.662 332.256 320.662 250s-66.92-149.176-149.176-149.176z"/> </g> 
    </symbol>
    <symbol id="checked-bold" viewBox="0 0 15 15">
        <title> check </title> <path class="cls-1" d="M12.1 2.77L5.96 8.92l-2.2-2.2-1.31 1.32 3.51 3.51 7.46-7.46-1.32-1.32z"/> 
    </symbol>
    <symbol id="checked-light" viewBox="0 0 14.53 10.4">
        <title> check </title> <path class="cls-1" d="M4.71 10.4L0 5.84l.9-.88 3.8 3.68L13.63 0l.91.88-9.83 9.52z"/> 
    </symbol>
    <symbol id="checked" viewBox="0 0 15 15">
        <title> check </title> <path class="cls-1" d="M12.1 2.77L5.96 8.92l-2.2-2.2-1.31 1.32 3.51 3.51 7.46-7.46-1.32-1.32z"/> 
    </symbol>
    <symbol id="close" viewBox="0 0 14.16 14.16">
        <title> close </title> <path class="cls-1" d="M14.16.53L13.63 0 7.08 6.55.53 0 0 .53l6.55 6.55L0 13.63l.53.53 6.55-6.55 6.55 6.55.53-.53-6.55-6.55L14.16.53z"/> 
    </symbol>
    <symbol id="column-chart" viewBox="0 0 22.94 23.22">
        <title> st </title> <path class="cls-1" d="M9.52 8.08h6.38v16H9.1v-16h.42zm-8.07 7.19h6.38v8.84H1v-8.84h.45zm5.55.85H1.88v7.14H7v-7.14zM17.59.89H24v23.22h-6.8V.89h.42zm5.53.85H18v21.52h5.11V1.74zm-8.07 7.19h-5.1v14.33h5.11V8.93z" transform="translate(-1.03 -.89)"/> 
    </symbol>
    <symbol id="currency" viewBox="0 0 467.891 467.891">
        <title> kurs </title> <path class="cls-1" d="M24.606 16.055h111.81v17.1H33.157v116.168h-17.1V16.055h8.551zM182.4 309.7a57.547 57.547 0 0 1-27.428 6.776c-27.59 0-44.046-15.166-49.371-45.821H94.144v-15.331h9.68a36.158 36.158 0 0 1-.323-6.292c0-2.743.161-5.647.484-9.035h-9.841v-15h11.939c3.227-14.682 9.519-26.137 18.716-34.366 9.358-8.228 20.49-12.423 33.72-12.423a52.013 52.013 0 0 1 23.878 5.324v18.716a39.317 39.317 0 0 0-23.233-7.26 28.359 28.359 0 0 0-19.845 8.067c-5.808 5.486-9.842 12.746-12.1 21.942h43.24v15H124.8a69.964 69.964 0 0 0-.161 15.327h45.821v15.327h-43.725c4.195 19.522 14.682 29.2 31.462 29.2 7.744 0 15.811-2.581 24.2-8.067V309.7zm187.641 3.872v20.168h-11.458v-19.365c-13.875 0-25.008-2.743-33.72-8.067V285.5q5.566 4.84 15.489 8.228a55.543 55.543 0 0 0 18.232 3.388v-41.469q-22.023-10.165-28.558-18.877c-4.356-5.647-6.454-12.423-6.454-20.329a33.273 33.273 0 0 1 9.842-24.04q9.922-10.165 25.169-12.1v-16.78h11.455v16.457c13.069.323 22.1 2.1 27.105 5.163v20.006c-6.776-5-15.811-7.744-27.105-8.067v43.078q20.571 9.439 28.073 18.393a31.721 31.721 0 0 1-1.936 43.24c-6.131 6.131-15 10.165-26.137 11.778zm-11.455-78.735v-37.27a19.733 19.733 0 0 0-11.133 5.97 16.044 16.044 0 0 0-4.034 11.133c0 4.518.968 8.39 3.227 11.294s6.292 5.808 11.939 8.874zm11.455 25.815v35.979c10.648-2.259 15.811-7.744 15.811-16.618 0-7.26-5.163-13.714-15.811-19.361zm-78.251-80.187l-64.7 156.017h-19.684l64.375-156.017h20.006zM33.157 376.331v90.513h103.258v17.1H16.054V376.331h17.1zM363.423 16.055h120.523v133.268h-17.1V33.157H363.423v-17.1zm120.523 360.276v107.614H363.423v-17.1h103.42v-90.514h17.1z" transform="translate(-16.054 -16.055)"/> 
    </symbol>
    <symbol id="date" viewBox="0 0 500 500">
        <title> &#x438;&#x43A;&#x43E;&#x43D;&#x43A;&#x438; </title> <path class="cls-1" d="M250.262 430.073q-77.462 0-154.924-.006c-17.789-.006-24.89-6.917-24.9-24.656q-.08-141.77 0-283.541c.011-18.155 7.184-25.113 25.347-25.132 9.5-.01 19.012.251 28.491-.194a8.758 8.758 0 0 0 6.288-4.047c7.134-14.436 18.274-22.619 34.557-22.591 16.309.027 27.357 8.389 34.473 22.768.911 1.84 3.735 3.87 5.689 3.886q44.574.369 89.152 0c1.944-.016 4.774-2.081 5.655-3.926 6.965-14.583 18.2-22.69 34.434-22.724 16.28-.034 27.369 8.322 34.561 22.676a8.743 8.743 0 0 0 6.334 3.967c10.7.411 21.431.051 32.146.224 13.98.225 21.935 7.863 21.951 21.758q.161 145.059 0 290.117c-.017 14.145-8.019 21.384-22.864 21.4q-78.197.084-156.39.021zm159.473-313.344c-12.282 0-23.719-.162-35.141.17-1.775.052-4.331 1.983-5.091 3.686-6.835 15.315-18.475 24-35.182 23.939-16.387-.06-27.828-8.667-34.67-23.628-.846-1.85-3.648-3.977-5.561-3.993q-44.208-.38-88.42-.01a7.791 7.791 0 0 0-5.725 3.828c-6.907 15.308-18.579 23.929-35.285 23.806-16.394-.12-27.819-8.824-34.513-23.808-.683-1.53-2.3-3.736-3.52-3.765-12.044-.283-24.1-.171-35.892-.171v72.749h319v-72.8zm-.034 93.7H344.97v53.794h64.73v-53.79zm-64.854 128.522h65.216c0-17.191.125-33.916-.235-50.631-.029-1.35-3.346-3.7-5.2-3.764-10.2-.375-20.421-.186-30.635-.188h-29.144v54.583zm-254.3-74.922h64.09V210.2H90.545v53.827zm84.67-.019h64.314v-53.62h-64.317v53.62zm84.927.026h64.091V210.2h-64.094v53.84zm-105.426 75.029v-54.247H90.584v54.248h64.134zm20.6-.044h64.116V284.8h-64.119v54.219zm148.995.044v-54.247h-64.137v54.248h64.134zm85.173 71.156V359.96H344.97v50.261h64.514zm-319-.5h64.3V359.9h-64.3v49.825zm84.8 0h64.3V359.9h-64.3v49.825zm84.851.438h64.091v-50.385h-64.096v50.388zm91.952-302.694c.153-9.361-8.035-17.921-17.293-18.078-9.112-.155-17.894 8.377-18.011 17.5-.12 9.322 8.051 17.768 17.446 18.033 9.258.26 17.699-7.987 17.853-17.452zm-169.5-.6c-.152-9.317-8.729-17.7-17.892-17.5-9.091.206-17.68 9.1-17.477 18.1.206 9.151 8.962 17.6 18.1 17.461 9.317-.133 17.414-8.603 17.26-18.055z"/> <path class="cls-2" d="M328.577 432.657h-39.213l-194.032-.025c-19.23-.025-27.449-8.168-27.461-27.211q-.075-141.8 0-283.557c.013-19.393 8.356-27.662 27.912-27.687l7.529.025c6.815.05 13.919.075 20.834-.226a6.419 6.419 0 0 0 4.109-2.606c7.893-15.961 20.27-24.029 36.794-24.029h.075c16.462.025 28.827 8.168 36.769 24.2A5.855 5.855 0 0 0 205.327 94c29.566.251 59.545.251 89.086 0a5.8 5.8 0 0 0 3.357-2.481c7.642-16.011 20.007-24.129 36.744-24.179h.086c16.387 0 28.764 8.093 36.769 24.079A6.5 6.5 0 0 0 375.531 94c6.226.2 12.515.15 18.779.175 4.472-.025 8.882-.025 13.292.05 15.547.251 24.467 9.1 24.48 24.3q.169 145.073 0 290.122c-.025 15.434-9.058 23.928-25.432 23.953q-39.03.045-78.073.057zM95.783 99.289c-16.8.025-22.763 5.938-22.776 22.575q-.075 141.766 0 283.557c.013 16.286 5.851 22.074 22.325 22.1h194.032q58.574 0 117.286-.025c13.63-.025 20.27-6.189 20.3-18.842q.169-145.073 0-290.122c-.013-12.353-6.727-18.967-19.418-19.193-4.385-.025-8.795 0-13.192-.025-6.339.025-12.678.05-19.017-.2a11.288 11.288 0 0 1-8.532-5.387C359.621 79.42 349.1 72.454 334.6 72.454h-.075c-14.8.05-25.306 7.016-32.122 21.272-1.19 2.506-4.836 5.362-7.93 5.387-29.591.276-59.6.276-89.211 0-3.157-.025-6.727-2.806-7.968-5.287-7.1-14.357-17.627-21.348-32.172-21.373h-.072c-14.608 0-25.144 6.94-32.184 21.172a11.192 11.192 0 0 1-8.481 5.462c-7.041.351-14.219.251-21.11.251zm316.267 313.5h-69.643v-55.375h69.643v55.373zm-64.506-5.111h59.37v-45.152h-59.37v45.151zm-20.744 5.035h-69.232v-55.5H326.8v55.5zm-64.1-5.113h58.956v-45.275H262.7V407.6zm-20.546 4.685h-69.437v-54.946h69.442v54.947zm-64.306-5.111h59.169v-44.723h-59.164v44.725zm-20.5 5.111H87.915v-54.946h69.442v54.947zm-64.306-5.111h59.169v-44.723H93.052v44.725zm233.821-65.546h-69.257v-59.356h69.267v59.357zm-64.13-5.111h58.994v-49.134h-58.985v49.134zm-105.46 5.111H88.016v-59.356h69.267v59.357zm-64.13-5.111h58.994v-49.134H93.152v49.134zM242 341.579h-69.258v-59.332H242v59.332zm-64.118-5.111h58.978v-49.11h-58.982v49.109zm234.744 5.032h-70.344v-59.679l39.6-.025c7.467-.075 15.234-.1 22.838.2 2.831.1 7.592 3.182 7.68 6.239.276 13.28.251 26.259.238 39.989zm-65.208-5.111h60.072l.01-8.189c.025-13.68.038-26.634-.238-39.839a16.52 16.52 0 0 0-2.744-1.253c-7.5-.3-15.171-.226-22.613-.2l-34.489.025v49.46zm64.844-69.605h-69.855v-58.903h69.856v58.906zm-64.719-5.111h59.583v-48.68h-59.582v48.683zm-20.743 4.914h-69.232v-58.956H326.8v58.956zm-64.1-5.111h58.956v-48.734H262.7v48.734zm-105.5 5.111H87.978v-58.931h69.229v58.931zm-64.093-5.111h58.956v-48.709H93.114v48.709zm148.993 5.086h-69.458v-58.731H242.1v58.731zm-64.318-5.111h59.178v-48.509h-59.182v48.508zM412.3 192.1H88.166v-77.878l10.022-.025c9.358-.025 18.942-.05 28.5.2 3.458.05 5.713 5.061 5.8 5.287 6.565 14.683 17.389 22.174 32.184 22.275h.338c14.958 0 25.92-7.517 32.585-22.3 1.278-2.781 5.124-5.312 8.068-5.312 29.328-.251 59.094-.251 88.447 0 3.082.025 6.7 2.906 7.868 5.462 6.7 14.658 17.577 22.1 32.36 22.149h.2c15.008 0 25.983-7.542 32.623-22.425 1.052-2.38 4.335-5.111 7.354-5.187 8.694-.251 17.389-.2 26.409-.2l11.375.025V192.1zm-319-5.111h313.864v-67.7h-6.251c-9.02-.1-17.627-.05-26.246.175a5.069 5.069 0 0 0-2.819 2.155c-7.442 16.662-20.345 25.457-37.308 25.457h-.226c-16.712-.05-29.5-8.719-36.995-25.106a5.68 5.68 0 0 0-3.27-2.506 5184.232 5184.232 0 0 0-88.359 0 5.538 5.538 0 0 0-3.42 2.33c-7.467 16.537-20.345 25.281-37.258 25.281h-.376c-16.737-.1-29.478-8.845-36.832-25.306a6.633 6.633 0 0 0-1.7-2.355c-9.02-.1-18.541-.075-27.9-.075H93.3v67.651zM334.628 127.5a3.032 3.032 0 0 1-.476-.025c-10.749-.3-20.07-9.947-19.944-20.621a21.283 21.283 0 0 1 20.345-20.02h.276a20.009 20.009 0 0 1 13.919 6.289 19.766 19.766 0 0 1-.539 28.689 19.856 19.856 0 0 1-13.581 5.688zm-.075-35.554a16.2 16.2 0 0 0-15.209 14.958c-.1 7.993 6.89 15.209 14.958 15.459 3.808.3 7.442-1.428 10.348-4.259a15.3 15.3 0 0 0 4.861-10.7 15.254 15.254 0 0 0-4.46-10.724 15.055 15.055 0 0 0-10.3-4.736h-.2zm-169.49 35.529c-10.486.025-20.182-9.421-20.421-19.944-.226-10.4 9.484-20.471 19.982-20.721.125 0 .251-.025.376-.025a20.01 20.01 0 0 1 13.68 5.815 20.53 20.53 0 0 1 6.464 14.232 20.413 20.413 0 0 1-5.888 14.432 19.908 19.908 0 0 1-13.906 6.214h-.288zM165 91.923h-.263c-7.717.2-15.134 7.868-14.958 15.51.163 7.717 7.567 14.933 15.284 14.933h.213a14.87 14.87 0 0 0 10.3-4.66 15.319 15.319 0 0 0 4.435-10.774 15.357 15.357 0 0 0-4.9-10.649A14.835 14.835 0 0 0 165 91.923z"/> 
    </symbol>
    <symbol id="datetime" viewBox="0 0 500 500">
        <title> &#x438;&#x43A;&#x43E;&#x43D;&#x43A;&#x438; </title> <path class="cls-1" d="M214.73 377.387q-77.462 0-154.924-.006c-17.789-.006-24.89-6.917-24.9-24.656q-.08-141.77 0-283.541c.011-18.155 7.184-25.113 25.347-25.132 9.5-.01 19.012.251 28.491-.194a8.758 8.758 0 0 0 6.288-4.047c7.134-14.436 18.274-22.619 34.557-22.591 16.309.027 27.357 8.389 34.473 22.768.911 1.84 3.735 3.87 5.689 3.886q44.574.369 89.152 0c1.944-.016 4.774-2.081 5.655-3.926 6.965-14.583 18.2-22.69 34.434-22.724 16.28-.034 27.369 8.322 34.561 22.676a8.743 8.743 0 0 0 6.334 3.967c10.7.411 21.431.051 32.146.224 13.98.225 21.935 7.863 21.951 21.758q.161 145.059 0 290.117c-.017 14.145-8.019 21.384-22.864 21.4q-78.198.084-156.39.021zM374.2 64.043c-12.282 0-23.719-.162-35.141.17-1.775.052-4.331 1.983-5.091 3.686-6.835 15.315-18.475 24-35.182 23.939-16.387-.06-27.828-8.667-34.67-23.628-.846-1.85-3.648-3.977-5.561-3.993q-44.208-.38-88.42-.01a7.791 7.791 0 0 0-5.725 3.828c-6.907 15.308-18.579 23.929-35.285 23.806-16.394-.12-27.819-8.824-34.513-23.808-.683-1.53-2.3-3.736-3.52-3.765C79.051 63.984 67 64.1 55.2 64.1v72.749h319v-72.8zm-.034 93.7h-64.729v53.794h64.731v-53.79zm-64.852 128.522h65.216c0-17.191.125-33.916-.235-50.631-.029-1.35-3.346-3.7-5.2-3.764-10.2-.375-20.421-.186-30.635-.188h-29.144v54.583zm-254.3-74.922H119.1v-53.827H55.012v53.827zm84.67-.019H204V157.7h-64.318v53.62zm84.927.026H288.7v-53.84h-64.092v53.84zm-105.426 75.029v-54.247H55.051v54.248h64.134zm20.6-.044H203.9v-54.218h-64.118v54.219zm148.995.044v-54.247h-64.136v54.248h64.134zm85.173 71.156v-50.261h-64.516v50.261h64.514zm-319-.5h64.3v-49.822h-64.3v49.825zm84.8 0h64.3v-49.822h-64.3v49.825zm84.851.438h64.091v-50.385H224.6v50.388zm91.948-302.691c.153-9.361-8.035-17.921-17.293-18.078-9.112-.155-17.894 8.377-18.011 17.5-.12 9.322 8.051 17.768 17.446 18.033 9.262.257 17.706-7.99 17.858-17.455zm-169.5-.6c-.152-9.317-8.729-17.7-17.892-17.5-9.091.206-17.68 9.1-17.477 18.1.206 9.151 8.962 17.6 18.1 17.461 9.317-.136 17.417-8.606 17.264-18.058z"/> <path class="cls-2" d="M111.452 379.966q-25.82 0-51.653-.025c-19.23 0-27.449-8.118-27.461-27.211q-.075-141.766 0-283.557c.012-19.393 8.356-27.661 27.912-27.686l7.73.025c6.8.05 13.793.075 20.646-.2a6.39 6.39 0 0 0 4.1-2.631c7.893-15.936 20.245-24 36.719-24h.155c16.462.025 28.827 8.143 36.757 24.179a5.681 5.681 0 0 0 3.4 2.455c29.591.276 59.558.276 89.124 0a5.521 5.521 0 0 0 3.357-2.481c7.642-16.014 20.007-24.134 36.757-24.157h.15c16.336 0 28.689 8.093 36.694 24.079A6.568 6.568 0 0 0 340 41.311c6.226.226 12.515.15 18.779.175 4.4 0 8.857-.05 13.292.05 15.547.251 24.467 9.1 24.48 24.3q.169 145.073 0 290.122c-.025 15.434-9.058 23.928-25.432 23.953q-58.649.038-117.286.05l-39.1-.025-51.64.025h-51.64zM60.25 46.6c-16.8.025-22.763 5.938-22.776 22.575q-.075 141.8 0 283.557c.013 16.311 5.851 22.1 22.325 22.1h194.032q58.612 0 117.286-.025c13.63-.025 20.27-6.189 20.3-18.842q.169-145.073 0-290.122c-.013-12.353-6.727-18.967-19.418-19.193-4.385-.025-8.795 0-13.192-.025-6.339.025-12.678.05-19.017-.2a11.3 11.3 0 0 1-8.532-5.362c-7.166-14.307-17.677-21.272-32.109-21.272h-.138c-14.808.025-25.319 6.991-32.134 21.247-1.2 2.556-4.873 5.387-7.968 5.387-29.566.251-59.583.251-89.174 0-3.145 0-6.74-2.781-7.98-5.312-7.078-14.307-17.6-21.3-32.159-21.323h-.15c-14.57 0-25.068 6.94-32.109 21.147a11.2 11.2 0 0 1-8.481 5.487c-6.991.326-14.069.3-20.909.226zm316.267 313.5h-69.642v-55.377h69.643V360.1zm-64.506-5.111h59.37v-45.154h-59.37v45.151zm-20.746 5.036h-69.229v-55.5h69.229v55.5zm-64.093-5.111h58.956v-45.28h-58.956v45.276zm-20.546 4.686h-69.442v-54.952h69.442V359.6zm-64.306-5.111h59.17v-44.73h-59.17v44.725zm-20.5 5.111H52.383v-54.952h69.442V359.6zm-64.306-5.111h59.169v-44.73H57.519v44.725zm233.826-65.551h-69.267v-59.357h69.267v59.357zm-64.13-5.111h58.99v-49.135h-58.99v49.134zm-105.46 5.111H52.483v-59.357h69.267v59.357zm-64.13-5.111h58.994v-49.135H57.619v49.134zm148.844 5.061h-69.255v-59.332h69.254v59.332zm-64.118-5.111h58.981v-49.11h-58.982v49.109zm234.748 5.036h-70.345V229.13l39.6-.025c7.467-.075 15.2-.1 22.838.2 2.831.1 7.592 3.182 7.68 6.264.276 13.255.251 26.233.238 39.964zm-65.208-5.113h60.071l.013-8.193c.025-13.68.038-26.634-.238-39.814a14.228 14.228 0 0 0-2.744-1.278c-7.5-.276-15.171-.226-22.613-.2l-34.489.025v49.46zm64.844-69.6h-69.855v-58.91h69.855v58.91zm-64.719-5.111h59.583V160.3h-59.583v48.683zm-20.746 4.911h-69.229v-58.936h69.229V213.9zm-64.093-5.111h58.956v-48.713h-58.956v48.709zm-105.5 5.111H52.445v-58.936h69.229V213.9zm-64.093-5.111h58.956v-48.713H57.582v48.709zm148.982 5.086h-69.452V155.14h69.455v58.731zm-64.318-5.111h59.182v-48.513h-59.18v48.508zM376.768 139.4H52.633V61.531l10.022-.025c9.358-.05 18.942-.05 28.5.2 3.458.05 5.713 5.061 5.8 5.287 6.565 14.683 17.389 22.174 32.2 22.3h.326c14.946 0 25.908-7.517 32.585-22.3 1.265-2.806 5.111-5.337 8.068-5.337 29.328-.251 59.094-.251 88.447 0 3.094.025 6.715 2.932 7.88 5.512 6.677 14.608 17.564 22.049 32.347 22.124h.138c15.034 0 26.033-7.567 32.685-22.45 1.052-2.38 4.335-5.111 7.354-5.187 8.682-.251 17.351-.175 26.409-.2l11.375.025v77.92zm-319-5.111h313.863v-67.7h-6.251c-8.97-.075-17.614-.05-26.246.175a5.069 5.069 0 0 0-2.819 2.155C328.874 85.61 315.945 94.4 298.932 94.4h-.15c-16.725-.075-29.516-8.744-36.995-25.106a5.759 5.759 0 0 0-3.27-2.531c-29.3-.251-59.032-.251-88.359 0a5.48 5.48 0 0 0-3.408 2.33C159.258 85.66 146.379 94.4 129.479 94.4h-.379c-16.75-.125-29.491-8.895-36.832-25.331a6.633 6.633 0 0 0-1.7-2.355c-9.02-.1-18.479-.075-27.9-.075h-4.9v67.651zm71.81-59.483c-10.511 0-20.233-9.446-20.471-19.97a20.2 20.2 0 0 1 5.976-14.182 20.465 20.465 0 0 1 14.006-6.515 2.361 2.361 0 0 1 .426-.025 20.027 20.027 0 0 1 13.605 5.763 20.563 20.563 0 0 1 6.489 14.257 20.54 20.54 0 0 1-5.876 14.432 20.046 20.046 0 0 1-13.919 6.239h-.234zm-.078-35.549h-.288a15.435 15.435 0 0 0-10.436 4.986 14.951 14.951 0 0 0-4.535 10.5c.163 7.742 7.592 14.958 15.334 14.958h.163a15.059 15.059 0 0 0 10.31-4.685 15.306 15.306 0 0 0 4.422-10.774 15.357 15.357 0 0 0-4.9-10.649 14.854 14.854 0 0 0-10.07-4.336zm169.632 35.554a3.527 3.527 0 0 1-.514-.025c-10.749-.276-20.07-9.922-19.944-20.621a20.318 20.318 0 0 1 6.426-14.031 20.277 20.277 0 0 1 13.919-5.988h.281a19.981 19.981 0 0 1 13.9 6.288 20.457 20.457 0 0 1 5.913 14.407 20.57 20.57 0 0 1-6.464 14.332 19.9 19.9 0 0 1-13.517 5.638zm-.112-35.554a16.2 16.2 0 0 0-15.209 14.958c-.1 7.868 7.028 15.234 14.946 15.459a15.239 15.239 0 0 0 10.343-4.209 15.414 15.414 0 0 0 4.873-10.724 15.268 15.268 0 0 0-4.46-10.749 15.079 15.079 0 0 0-10.3-4.736h-.2z"/> <circle class="cls-2" cx="339.414" cy="357.037" r="128.286"/> <path class="cls-1" d="M341.7 250.366a106.675 106.675 0 1 0 106.661 106.662A106.786 106.786 0 0 0 341.7 250.366zm89.9 106.663a89.907 89.907 0 1 1-89.9-89.875 89.992 89.992 0 0 1 89.9 89.874z"/> <path class="cls-1" d="M420.812 369.907H329.96V353.12h90.852v16.787z"/> <path class="cls-1" d="M346.7 365.372h-16.765v-90.878H346.7v90.878z"/> 
    </symbol>
    <symbol id="db" viewBox="0 0 390.351 500">
        <title> db </title> <path class="st0" d="M161.782 457.098V384.29h20.404c25.719 0 38.578 11.856 38.578 35.568a35.791 35.791 0 0 1-11.15 27.094 39.693 39.693 0 0 1-28.655 10.258h-19.177v-.112zm8.585-65.114v57.421h11.15a30.883 30.883 0 0 0 22.299-7.693 28.764 28.764 0 0 0 8.028-22.299c0-18.657-9.923-27.986-29.77-27.986h-11.15l-.557.557zM234.701 457.098V384.29h20.738a22.3 22.3 0 0 1 14.941 4.683 14.94 14.94 0 0 1 5.575 12.042 17.729 17.729 0 0 1-3.345 11.15 18.07 18.07 0 0 1-9.254 6.467 18.506 18.506 0 0 1 11.819 5.575 17.061 17.061 0 0 1 4.46 12.265 19.07 19.07 0 0 1-6.69 15.164 24.975 24.975 0 0 1-16.948 5.798h-21.296v-.336zm8.586-65.114v23.526h8.697a16.617 16.617 0 0 0 11.15-3.345 11.82 11.82 0 0 0 4.014-9.477c0-7.433-4.646-11.15-13.937-11.15h-9.923v.446zm0 31.219v26.202h11.15a17.393 17.393 0 0 0 11.15-3.568 12.152 12.152 0 0 0 4.125-9.7c0-8.622-5.872-12.934-17.617-12.934h-8.808z"/> <path class="st0" d="M174.158 3.082a315.75 315.75 0 0 1 120.417 21.519c31.554 13.603 51.846 33.449 53.407 54.968v256.443a26.333 26.333 0 0 1-1.003 6.913h18.063a25.086 25.086 0 0 1 17.728 7.247 25.201 25.201 0 0 1 7.582 17.171V472.15c-.352 13.83-11.48 24.958-25.31 25.31H80.947a24.085 24.085 0 0 1-17.728-7.47 25.086 25.086 0 0 1-7.247-17.728v-79.163l-2.23-1.003C20.627 378.493 0 357.42 0 333.894v-79.163a20.91 20.91 0 0 1 0-4.46V171.22a20.91 20.91 0 0 1 0-4.46V86.816a18.008 18.008 0 0 1 0-4.125v-3.122C1.561 57.27 22.299 38.204 53.407 24.601A314.528 314.528 0 0 1 173.824 3.082h.334zM340.4 358.312H80.947a9.253 9.253 0 0 0-9.477 9.143V472.15a9.477 9.477 0 0 0 9.477 9.477h284.094a9.7 9.7 0 0 0 9.477-9.477V367.343a9.477 9.477 0 0 0-9.477-9.143H340.4v.112zm-9.811-15.833a24.737 24.737 0 0 0 1.338-8.585v-49.839a124.652 124.652 0 0 1-37.909 24.306 315.75 315.75 0 0 1-120.417 21.519 315.75 315.75 0 0 1-120.417-21.519 124.55 124.55 0 0 1-37.24-23.972v49.505c0 15.498 15.164 29.993 39.47 41.365v-7.916a25.648 25.648 0 0 1 7.247-17.728 26.425 26.425 0 0 1 18.063-7.247h249.865v.111zM16.167 253.281c1.895 15.164 18.286 29.101 43.595 40.139a296.127 296.127 0 0 0 114.061 20.181 295.025 295.025 0 0 0 114.061-20.181c27.205-11.15 43.93-27.205 43.93-43.595V200.098a113.83 113.83 0 0 1-37.909 24.306 309.402 309.402 0 0 1-120.417 22.299 309.42 309.42 0 0 1-120.417-22.299 118.292 118.292 0 0 1-36.905-24.306v53.073l.001.11zM322.115 125.06a152.734 152.734 0 0 1-27.763 15.498 315.75 315.75 0 0 1-120.417 21.519 315.75 315.75 0 0 1-120.417-21.519 124.209 124.209 0 0 1-37.24-23.749v53.184c1.784 14.829 18.174 29.101 43.261 39.804A295.795 295.795 0 0 0 173.6 230.312a294.694 294.694 0 0 0 114.061-20.515c27.205-11.15 43.93-26.871 43.93-43.261v-50.285a103.633 103.633 0 0 1-8.585 7.582l-1.226.669.335.558zm-8.251-13.603a38.8 38.8 0 0 0 18.063-28.766v-.892c-.334-16.056-17.059-31.219-43.707-42.703a296.127 296.127 0 0 0-114.061-20.181A297.907 297.907 0 0 0 59.54 39.096C32.892 50.803 16.167 66.301 16.167 82.468s16.725 31.888 43.372 43.261a297.47 297.47 0 0 0 114.396 20.515 295.81 295.81 0 0 0 114.061-20.515 113.724 113.724 0 0 0 23.972-12.934l.669-.669 1.227-.669z"/> 
    </symbol>
    <symbol id="deffered" viewBox="0 0 543.738 500">
        <title> &#x43E;&#x442;&#x43B;&#x43E;&#x436;&#x435;&#x43D;&#x43D;&#x44B;&#x435; </title> <path class="st0" d="M28.818 113.566h425.88c80.861 0 61.681 69.963 61.681 149.734v104.182c0 36.398 6.321 69.091-15.911 91.104-22.231 22.013-57.322 14.821-91.104 14.821H90.281c-80.861 0-61.681-70.835-61.681-148.644V113.566h.218zm0-26.59c0-27.68-6.974-58.193 23.539-59.937h163.247c27.68 2.615 21.795 35.962 21.795 59.719H28.818v.218zm234.954 0c0-26.808 7.846-82.822-45.988-85.874-40.975-2.397-89.361 0-130.772 0a130.769 130.769 0 0 0-60.373 6.321A46.859 46.859 0 0 0 1.356 45.565c-3.051 38.796 0 88.271 0 128.374s-2.397 234.081.654 257.838c4.822 32.96 30.035 59.224 62.77 65.386a1069.372 1069.372 0 0 0 130.772 1.526H457.75c34.901 2.691 67.46-17.746 80.207-50.347 9.59-24.411 5.231-212.94 5.231-253.261a157.799 157.799 0 0 0-5.667-59.501 80.85 80.85 0 0 0-28.116-35.744c-28.116-18.744-76.066-12.859-115.297-12.859s-96.553 3.487-130.772 0l.436-.001z"/> <path class="st0" d="M229.771 245.21c-14.167 2.615-29.642 3.705-43.591 5.667-17.654 2.18-34.219 0-34.219 17.872a82.827 82.827 0 0 0 25.718 28.334 208.59 208.59 0 0 0 29.424 25.065c-3.487 34.437-23.975 76.937-3.705 81.514 13.077 3.051 62.117-36.398 69.527-36.398s53.834 33.347 60.591 35.526c35.962 12.423 7.846-55.796 5.231-80.643a377.273 377.273 0 0 0 53.616-50.347c4.795-18.526-16.564-18.09-30.949-19.834-14.385-1.744-32.257-4.359-47.95-5.667l-26.154-53.834a16.129 16.129 0 0 0-15.257-13.949c-14.603 0-19.398 20.706-24.411 30.949s-11.552 24.411-18.526 35.744h.655z"/> 
    </symbol>
    <symbol id="diagram-chart" viewBox="0 0 23.23 23.8">
        <title> line </title> <path class="cls-1" d="M22.94 23.55V3.61l-7.69 12.67-.25.39-.37-.27-7.27-5.3-5.5 12.45h21.08zm.85-21.44V24.4H.56l.26-.59 6-13.53L7 9.8l.42.31 7.33 5.34L23 1.89 23.79.6v1.51z" transform="translate(-.56 -.6)"/> 
    </symbol>
    <symbol id="dnd" viewBox="0 0 500 500">
        <title> dnd </title> <path class="st0" d="M305.359 325.407c5.711 7.614 18.197 17.512 18.197 23.908a4.948 4.948 0 0 1-4.645 3.502c-4.188 0-9.517-8.299-12.03-11.345l-16.522-18.654a96.998 96.998 0 0 1-10.736-12.868c-2.284-6.396 2.513-6.32 5.33-6.32s18.274 18.959 20.406 21.7v.077zm26.802-16.218c4.264 7.614 21.548 30.456 9.061 30.456-3.883 0-6.243-5.939-8.985-10.888-3.959-7.614-21.471-35.177-21.471-39.441a4.492 4.492 0 0 1 4.645-4.645c4.34 0 13.477 18.426 16.751 24.213v.305zm29.77 17.284c-3.579-1.599-7.157-16.446-9.213-22.842-2.056-6.396-3.502-10.583-5.787-16.446a57.796 57.796 0 0 1-4.645-16.446c0-5.101 4.416-3.731 8.223-3.502 1.98 8.375 15.228 42.715 18.73 56.191-3.046 2.056-3.35 4.645-7.614 2.817l.306.228zm-38.07-131.57c0 12.639 17.893 26.877 3.502 26.877-4.188 0-6.091-5.33-7.614-8.528-11.421-20.634-13.705-26.649-27.715-26.649-7.986.856-13.766 8.023-12.911 16.009.013.121.027.241.043.361 0 6.929 11.726 20.939 11.726 24.593a16.46 16.46 0 0 1-1.218 5.863h-7.005c-7.614-13.705-14.771-31.598-26.954-31.598-15.228 0-15.228 12.335-15.228 19.873a133.903 133.903 0 0 0 9.061 16.599c1.371 2.436 10.66 15.989 0 15.989-4.568 0-7.614-7.614-9.594-11.497a41.044 41.044 0 0 0-8.528-12.106c-7.415-4.873-17.376-2.813-22.249 4.602a16.055 16.055 0 0 0-2.572 7.352c0 9.822 30.456 53.831 32.74 62.054-9.441-6.396-32.283-25.659-42.105-25.659-15.228 0-29.847 20.939-7.005 36.319l85.886 59.998c16.218 12.182 25.355 19.568 45.151 19.568 14.314 0 38.755-16.294 51.09-23.756a251.756 251.756 0 0 0 22.842-14.314c25.507-18.883 8.984-58.78.761-81.394a394.189 394.189 0 0 0-18.045-42.791l-21.624-38.07c-3.883-6.548-6.091-13.477-16.599-13.934-8.385-.65-15.709 5.621-16.359 14.006l-.011.156.534.077z"/> <path class="st0" d="M402.057 215.842h35.101c7.614 0 10.507-1.066 15.228 2.589a13.628 13.628 0 0 1 6.091 10.279v217.684a15.228 15.228 0 0 1-14.01 14.01H227.696a15.229 15.229 0 0 1-13.934-12.944v-80.632a91.288 91.288 0 0 1-9.137-6.091 271.447 271.447 0 0 0-25.964-17.284v99.515a48.35 48.35 0 0 0 13.172 35.938 51.701 51.701 0 0 0 32.512 16.675h220.806c23.756 0 47.968-23.299 47.968-46.826V227.948c-1.211-20.791-15.011-38.727-34.796-45.227-8.299-2.817-66.699-3.274-76.14-1.371l19.874 34.492zM255.716 39.121c31.903 0 30.456 1.523 30.456 33.958h35.101c0-21.395 2.208-37.08-14.314-53.298a42.186 42.186 0 0 0-13.324-10.05c-14.238-7.005-22.157-5.406-38.07-5.406v35.101l.151-.305zM6.434 50.846v22.233h35.101c0-31.827-1.447-33.958 29.238-33.958V4.096c-18.883 0-33.882-.761-48.273 13.705A47.05 47.05 0 0 0 6.434 50.846zM6.434 272.033c1.498 25.215 21.611 45.328 46.826 46.826h17.512v-34.872c-26.268 0-29.238.609-29.238-25.735h-35.1v14.01-.229zM100.01 4.02h49.186v35.101H100.01zM286.096 102.317h35.101v49.186h-35.101zM6.434 151.503h31.598A2.893 2.893 0 0 0 41.534 148v-45.684h-35.1v49.187zM100.086 287.261v31.598h49.186v-34.872h-45.684a2.893 2.893 0 0 0-3.502 3.503v-.229zM6.434 180.741h35.101v47.968H6.434zM178.434 4.02h47.968v35.101h-47.968z"/> 
    </symbol>
    <symbol id="down-fill" viewBox="0 0 500 500">
        <title> down!!!-01 </title> <path class="cls-1" d="M500 124.532l-249.837 250.17L0 124.865"/> 
    </symbol>
    <symbol id="dropbox" viewBox="0 0 38.38 35.7">
        <title> drop box </title> <path class="cls-1" d="M11.29 0L0 7.37l7.81 6.25 11.38-7.03L11.29 0z"/> <path class="cls-1" d="M0 19.88l11.29 7.37 7.9-6.6-11.38-7.03L0 19.88zM19.19 20.65l7.9 6.6 11.29-7.37-7.8-6.26-11.39 7.03z"/> <path class="cls-1" d="M38.38 7.37L27.09 0l-7.9 6.59 11.39 7.03 7.8-6.25zM19.21 22.07l-7.92 6.58-3.39-2.22v2.48l11.31 6.79 11.32-6.79v-2.48l-3.39 2.22-7.93-6.58z"/> 
    </symbol>
    <symbol id="error" viewBox="0 0 489.088 440.1">
        <title> error </title> <path class="cls-1" d="M42.259 470.05h415.482c28.159 0 45.855-30.369 31.973-54.868l-207.741-366.6c-14.077-24.842-49.869-24.842-63.946 0l-207.74 366.6C-3.6 439.681 14.1 470.05 42.259 470.05z" transform="translate(-5.456 -29.95)"/> <path class="cls-2" d="M261.244 307.05l6.157-150h-52.419l5.842 150h40.42z"/> <path class="cls-2" d="M267.647 366q-8.052-7.368-20.683-7.351-12.473 0-20.762 7.263a23.649 23.649 0 0 0-8.289 18.631 24.394 24.394 0 0 0 8.21 18.543q8.21 7.658 20.841 7.666 12.789 0 20.762-7.421a24.559 24.559 0 0 0 7.973-18.789A23.98 23.98 0 0 0 267.647 366z" transform="translate(-5.456 -29.95)"/> 
    </symbol>
    <symbol id="expand" viewBox="0 0 472.068 465.029">
        <title> expand </title> <path class="cls-1" d="M144.838 17.2h312.608a27.669 27.669 0 0 1 19.9 8.495 28.4 28.4 0 0 1 8.254 20.14v312.85a28.154 28.154 0 0 1-8.252 19.9 28.154 28.154 0 0 1-19.9 8.252h-312.61a28.4 28.4 0 0 1-20.145-8.252 27.669 27.669 0 0 1-8.495-19.9V45.592a27.911 27.911 0 0 1 8.495-20.145 27.911 27.911 0 0 1 20.145-8.495v.248zM42.173 112.579h52.182v17.96H42.173a10.194 10.194 0 0 0-7.281 2.912 10.922 10.922 0 0 0-2.912 7.281v312.61a10.194 10.194 0 0 0 2.912 7.281 10.194 10.194 0 0 0 7.281 2.913h312.365a10.922 10.922 0 0 0 7.281-2.913 10.194 10.194 0 0 0 2.913-7.281v-46.115h18.446v46.115a28.4 28.4 0 0 1-8.252 20.145 27.669 27.669 0 0 1-19.9 8.495H42.173a27.911 27.911 0 0 1-20.145-8.495 27.911 27.911 0 0 1-8.495-20.145V140.248a27.669 27.669 0 0 1 8.495-19.417 28.4 28.4 0 0 1 20.145-8.252zm415.273-77.423H144.838a10.436 10.436 0 0 0-7.281 2.912 10.194 10.194 0 0 0-2.912 7.281v313.336a10.922 10.922 0 0 0 2.912 7.281 10.436 10.436 0 0 0 7.281 2.913h312.608a10.922 10.922 0 0 0 7.281-2.913 10.922 10.922 0 0 0 2.913-7.281V45.592a10.194 10.194 0 0 0-2.913-7.281 10.922 10.922 0 0 0-7.281-2.912v-.243z" transform="translate(-13.533 -16.952)"/> 
    </symbol>
    <symbol id="eye" viewBox="-135.341 146 890.622 500">
       <title> eye </title> <path d="M307.276 149.205a523.078 523.078 0 0 1 212.763 65.04A1165.17 1165.17 0 0 1 737.3 363.352c20.338 15.865 23.965 45.213 8.101 65.551a46.725 46.725 0 0 1-10.522 9.868c-55.353 42.207-110.706 84.067-169.173 121.431a540.717 540.717 0 0 1-218.645 83.721 356.69 356.69 0 0 1-184.049-29.752 1037.864 1037.864 0 0 1-280.916-177.476c-20.554-15.584-24.584-44.879-9-65.434a46.698 46.698 0 0 1 7.616-7.909 934.102 934.102 0 0 1 327.967-194.774c34.595-9.34 66.077-12.799 98.597-19.373zm16.26 463.236c25.2-3.2 50.163-8.054 74.727-14.53a923.019 923.019 0 0 0 311.361-184.395c14.184-11.763 7.611-21.103-3.806-30.444A1226.791 1226.791 0 0 0 491.671 239.5c-99.437-58.665-221.105-65.625-326.583-18.682A1150.693 1150.693 0 0 0-90.228 385.147c-14.53 12.8-12.454 22.487 2.422 31.828 63.31 43.591 124.544 89.949 189.93 129.734a423.447 423.447 0 0 0 221.412 65.732z"/> <path d="M469.53 400.024c.19 88.273-71.215 159.986-159.487 160.176-88.273.19-159.986-71.215-160.176-159.487-.19-88.137 71.003-159.793 159.139-160.175 87.501-1.148 159.365 68.854 160.514 156.355.013 1.044.017 2.087.01 3.131zm-159.832 126.62c69.835 0 126.447-56.612 126.447-126.447S379.533 273.75 309.698 273.75c-69.603.736-126.006 56.68-127.312 126.274.381 70.177 57.48 126.812 127.658 126.62h-.346z"/> 
    </symbol>
    <symbol id="file" viewBox="0 0 392 500">
        <title> file </title> <path class="st0" d="M173.973 392.184h-28.549v25.204h26.43v7.695h-26.43v32.341h-8.476v-72.935h37.025v7.695zM196.277 457.312h-8.476v-72.823h8.587v72.935l-.111-.112zM253.264 457.312h-37.806v-72.823h8.587v65.128h29.218l.001 7.695zM303.114 457.312h-38.586v-72.823h37.025v7.695h-28.549v24.2h26.319v7.695h-26.319v25.538h30.111l-.001 7.695z"/> <path class="st0" d="M33.568 2.529h202.299l115.982 115.982v224.157h15.167a25.65 25.65 0 0 1 17.732 7.249 26.207 26.207 0 0 1 7.249 17.286V471.81a25.092 25.092 0 0 1-7.249 18.066 24.087 24.087 0 0 1-17.732 7.583H82.637a24.646 24.646 0 0 1-17.843-7.583 25.091 25.091 0 0 1-7.249-17.732v-14.052H33.568a33.454 33.454 0 0 1-23.754-9.814A33.455 33.455 0 0 1 0 424.859V36.097a33.454 33.454 0 0 1 9.814-23.754 34.348 34.348 0 0 1 23.754-9.814zm318.281 355.975H82.637a9.145 9.145 0 0 0-9.145 9.145v104.607a9.48 9.48 0 0 0 9.145 9.479h284.379a9.48 9.48 0 0 0 9.145-9.479V367.203a9.145 9.145 0 0 0-9.145-9.145h-15.167v.446zm-15.836-15.836v-208.21h-81.522a33.455 33.455 0 0 1-23.419-9.814 33.458 33.458 0 0 1-9.814-23.754V18.365H33.568a17.398 17.398 0 0 0-12.379 5.018 19.073 19.073 0 0 0-5.465 12.713V424.97a17.732 17.732 0 0 0 5.353 12.379 17.398 17.398 0 0 0 12.379 5.018h24.089v-75.165a25.65 25.65 0 0 1 7.249-17.732 25.09 25.09 0 0 1 17.843-6.691h253.376v-.111zM50.965 311.443a7.806 7.806 0 0 1-7.918-7.918 8.03 8.03 0 0 1 7.918-7.918h125.127a8.253 8.253 0 0 1 7.918 7.918 8.03 8.03 0 0 1-7.918 7.918H50.965zm0-46.17a7.918 7.918 0 1 1 0-15.836h250.03a7.918 7.918 0 1 1 0 15.836H50.965zm0-46.17a7.918 7.918 0 1 1 0-15.836h250.03a7.918 7.918 0 1 1 0 15.836H50.965zm0-46.17a8.03 8.03 0 0 1-7.918-7.918 7.806 7.806 0 0 1 7.918-7.918h250.03a7.806 7.806 0 0 1 7.918 7.918 8.03 8.03 0 0 1-7.918 7.918H50.965zM237.094 25.949v74.942a17.398 17.398 0 0 0 5.018 12.379 17.732 17.732 0 0 0 12.379 5.353h74.942l-92.339-92.674z"/> 
    </symbol>
    <symbol id="folder" viewBox="0 146 557.376 500">
       <title> folder </title> <path d="M312.007 391.56h116.191v-22.896h-86.46a34.173 34.173 0 0 1-25.63-10.594 34.175 34.175 0 0 1-10.594-24.947v-87.485H106.622a18.45 18.45 0 0 0-12.986 5.468 18.798 18.798 0 0 0-5.81 13.328v44.426h136.695l87.486 82.7zm132.595 0h13.328v-63.222h-37.591l24.263 24.263v38.959zm30.414 0h14.695V289.038h-36.908l22.555 22.555v79.967h-.342zm31.782 0h12.303a38.62 38.62 0 0 1 26.997 11.277 38.612 38.612 0 0 1 11.277 26.997v177.021c0 21.138-17.136 38.275-38.275 38.275H38.275C17.136 645.13 0 627.993 0 606.855V346.45a37.593 37.593 0 0 1 11.277-26.656 38.612 38.612 0 0 1 26.997-11.277h34.174v-44.084a34.177 34.177 0 0 1 10.594-25.289 35.882 35.882 0 0 1 20.504-10.252v-5.81a34.175 34.175 0 0 1 7.518-24.605 36.227 36.227 0 0 1 21.188-10.594v-4.101a34.174 34.174 0 0 1 10.936-26.314 34.176 34.176 0 0 1 25.289-10.594h215.979l123.368 123.368V391.56h-1.026zm-71.423-119.951h47.502l-98.421-98.421v47.502l50.919 50.919zm-68.348-68.347v-37.933h-198.55a17.429 17.429 0 0 0-13.328 5.468 18.796 18.796 0 0 0-5.468 13.328v3.759h200.6l16.746 15.378zm34.174 106.964h51.603l-100.13-97.396v47.16l48.527 50.236zm-68.348-68.348v-37.25H136.695a19.482 19.482 0 0 0-13.328 5.468 20.16 20.16 0 0 0-5.468 13.328v5.126h205.043l9.911 13.328zm-13.328 10.594v80.65c-.191 10.19 7.916 18.605 18.106 18.796.23.004.46.004.69 0h79.283l-98.079-99.446z"/> 
    </symbol>
    <symbol id="funnel-chart" viewBox="0 0 428.04 422.554">
        <title> voronka </title> <path class="cls-1" d="M47.274 38.723H464.02l-3.066 10.81-112.939 405.613-1.775 6.131H153.76l-1.775-6.131L39.046 49.533l-3.066-10.81h11.294zm34.2 99.548h337.047l23.072-82.446H58.407zm332.364 17.1H86.157l24.2 86.8h279.284zM115.2 259.277l24.04 86.8h221.521l24.2-86.8H115.2zm28.88 103.9l22.588 81.155h166.665l22.588-81.155H144.079z" transform="translate(-35.98 -38.723)"/> 
    </symbol>
    <symbol id="google-drive" viewBox="0 0 568 500">
        <title> google hover </title> <path class="st0" d="M175.244 344.766c-.754 6.179-.904 1.959 1.356 3.466 3.165-2.562 1.507-3.014 13.866-3.165a19.744 19.744 0 0 1 15.071 3.316c-7.234 5.576-15.071 1.658-26.375 3.165h150.712c13.263 0 41.898-3.466 51.996 3.165l2.713-4.22c5.426-4.672 6.631-1.356 17.03-2.11 26.525-2.11 150.712-6.481 159.152 1.055a15.976 15.976 0 0 0 7.234-10.851h-184.32l-204.064-.754-4.371 6.933zM90.393 492.464h2.713l5.878 3.768c.904-18.387 5.426 2.261 1.658-15.071 4.147.56 8.366.2 12.358-1.055 0 0 6.631-4.521 7.083-4.823s7.686-13.112 0-13.112v13.865a30.126 30.126 0 0 1-12.509-2.713 28.63 28.63 0 0 1 6.782-15.071 24.711 24.711 0 0 0 4.22-14.016 107.654 107.654 0 0 0-15.825 23.511 105.525 105.525 0 0 0-11.756 24.566l-.602.151z"/> <path class="st0" d="M83.159 495.328l1.959 4.22h6.179l-.904-7.084z"/> <path class="st1" d="M191.973 5.664a37.23 37.23 0 0 1 12.811 17.784 878.504 878.504 0 0 1 10.851 19.14c9.193 16.578 63.902 110.02 66.313 118.008a339.511 339.511 0 0 1 25.922 43.556l2.864 5.124 22.305 39.034c17.332 31.65 35.116 58.778 50.639 90.427H568c-.754-6.631-41.295-73.548-47.776-83.947-8.44-13.866-16.578-27.43-24.566-41.747-4.521-8.138-7.385-12.961-12.358-20.798l-85.153-146.19a409.332 409.332 0 0 0-26.073-42.049c-1.055 0-177.087-2.562-180.855 1.658h.754z"/> <path class="st2" d="M83.159 495.328l7.234-2.864a105.485 105.485 0 0 1 11.756-24.566 107.583 107.583 0 0 1 15.825-23.511l42.199-75.356a208.966 208.966 0 0 1 15.071-25.018l4.521-6.933 101.881-176.635c-2.411-7.988-56.969-101.429-66.313-118.008a873.804 873.804 0 0 0-10.851-19.14 37.223 37.223 0 0 0-12.811-17.784L50.756 249.516c-12.358 20.346-23.511 40.24-35.417 60.285-20.949 36.774-20.045 24.415.301 61.943 13.564 24.114 58.175 103.69 67.368 123.584h.151z"/> <path class="st3" d="M117.973 444.387a24.711 24.711 0 0 1-4.22 14.016 28.63 28.63 0 0 0-6.782 15.071 30.141 30.141 0 0 0 12.509 2.713V461.87c8.138 0 2.562 10.851 0 13.112-2.562 2.261-6.33 4.521-7.083 4.823a28.491 28.491 0 0 1-12.358 1.055c3.768 17.935 0-2.863-1.658 15.071l-5.275-3.466h-2.713l.904 7.535h-5.576 390.194a379.415 379.415 0 0 0 22.456-37.377c6.33-11.153 63.148-104.142 63.902-112.281-9.344-8.591-133.23-4.22-160.056-2.11-10.248.904-11.605-2.411-17.03 2.11l-2.713 4.22c-10.098-6.631-38.733-3.165-51.996-3.165H179.765c11.906-1.507 18.99 2.411 26.375-3.165a19.744 19.744 0 0 0-15.071-3.316c-12.358 0-10.701 0-13.866 3.165-2.261-1.507-2.261 2.713-1.356-3.466a209.045 209.045 0 0 0-15.071 25.018l-42.803 74.754z"/> 
    </symbol>
    <symbol id="hamburger-menu" viewBox="0 0 20 15">
        <title> &#x433;&#x430;&#x43C;&#x431;&#x443;&#x440;&#x433;&#x435;&#x440; </title> <path class="cls-1" d="M4.69 7.58h18.19a.9.9 0 0 0 0-1.81H4.69a.9.9 0 0 0 0 1.81zM22.88 12.36H4.69a.9.9 0 0 0 0 1.81h18.19a.9.9 0 0 0 0-1.81zM22.88 19H4.69a.9.9 0 1 0 0 1.81h18.19a.9.9 0 1 0 0-1.81z" transform="translate(-3.79 -5.77)"/> 
    </symbol>
    <symbol id="home" viewBox="0 0 500 500">
        <title> default </title> <path class="st0" d="M188.121 333.119h124.17v145.868H187.477l.644-145.868zM54.928 247.188a60.594 60.594 0 0 0 6.66-7.949l53.922-61.441c2.578-3.008 4.726-4.726 7.304-7.734L249.991 26.991 464.818 270.82c-34.372 0-49.195-4.941-49.195 13.964v193.344h-82.279V325.171c1.612-5.955-1.908-12.09-7.863-13.702a11.195 11.195 0 0 0-4.597-.262H179.313c-6.1-.926-11.795 3.268-12.722 9.367a11.162 11.162 0 0 0 .262 4.597l1.504 152.742H83.5V284.568c0-18.905-14.823-13.964-49.195-13.964l20.623-23.416zm-41.032 45.114h48.766v193.344c-1.45 6.241 2.435 12.475 8.675 13.924 1.668.387 3.4.401 5.074.039h347.161c6.262 1.353 12.436-2.628 13.788-8.89a11.614 11.614 0 0 0-.039-5.074V292.302h48.766c11.601 0 18.045-8.378 10.956-18.045-2.363-3.222-5.371-5.156-7.949-8.593s-4.941-5.371-8.593-9.452l-24.061-27.498c-3.008-4.082-5.371-5.586-8.593-9.452-16.542-19.549-42.965-46.617-56.5-64.448-3.008-3.652-5.586-5.585-8.593-9.452a89.853 89.853 0 0 0-7.734-8.808c-10.741-11.171-29.861-35.232-41.032-46.403-3.222-3.222-4.726-5.8-7.734-9.023l-48.98-55.425A74.542 74.542 0 0 0 249.991.139a68.527 68.527 0 0 0-26.424 24.275l-130.4 147.801a101.47 101.47 0 0 0-8.378 9.667L2.94 273.612c-7.304 9.667 0 18.045 10.956 18.045v.645z"/> 
    </symbol>
    <symbol id="info" viewBox="0 0 500 500">
        <title> info11 </title> <path class="st0" d="M225 375h50V225h-50v150zM250 0C111.929 0 0 111.929 0 250s111.929 250 250 250 250-111.929 250-250S388.071 0 250 0zm0 450c-110.457 0-200-89.543-200-200S139.543 50 250 50s200 89.543 200 200-89.543 200-200 200zm-25-275h50v-50h-50v50z" id="&#x421;&#x43B;&#x43E;&#x439;_1-2"/> 
    </symbol>
    <symbol id="jpg" viewBox="0 146 543.084 500">
       <title> jpeg big </title> <path d="M151.727 505.573a66.317 66.317 0 0 1-13.638 44.965 49.485 49.485 0 0 1-39.354 15.586 56.11 56.11 0 0 1-21.274-3.974v-31.171a30.544 30.544 0 0 0 18.937 6.39c15.014 0 22.521-11.144 22.521-33.431v-86.501h32.808v88.136zM216.641 513.21v50.342h-32.964V417.436h51.589c36.834 0 55.251 15.586 55.251 46.757a44.65 44.65 0 0 1-15.586 35.613 62.81 62.81 0 0 1-42.315 13.638H217.03l-.389-.234zm0-70.136v45.588h12.936c17.508 0 26.262-7.793 26.262-23.379 0-15.586-8.754-23.093-26.262-22.521h-12.936v.312zM399.54 563.552h-87.67V417.436h84.319v26.807h-51.355v32.886h47.77v26.729h-47.77v33.431h54.55v26.729l.156-.466zM542.928 553.811a105.212 105.212 0 0 1-53.225 12.313 76.993 76.993 0 0 1-55.563-19.482 70.992 70.992 0 0 1-20.339-53.927 75.04 75.04 0 0 1 22.21-56.186 80.965 80.965 0 0 1 58.992-21.742 120.178 120.178 0 0 1 40.99 6.39v31.171a81.43 81.43 0 0 0-40.99-9.819 44.42 44.42 0 0 0-33.353 13.326 48.786 48.786 0 0 0-13.404 35.458 49.016 49.016 0 0 0 11.533 34.834 40.758 40.758 0 0 0 31.171 12.313 43.49 43.49 0 0 0 18.781-3.351v-28.522h-28.99v-26.262h62.343v73.487h-.156z"/> <path d="M36.626 146.945h221.551l127.024 127.024V390.16h-17.3v-98.891h-89.306a36.077 36.077 0 0 1-25.638-10.754 36.936 36.936 0 0 1-10.754-25.95v-90.319H36.626a19.948 19.948 0 0 0-13.871 5.533 20.574 20.574 0 0 0-5.533 13.871v425.958a19.093 19.093 0 0 0 5.533 13.482 20.574 20.574 0 0 0 13.871 5.533H348.34a19.093 19.093 0 0 0 13.482-5.533 19.09 19.09 0 0 0 6.078-13.482v-15.196h17.3v15.196a36.081 36.081 0 0 1-10.754 25.639 36.936 36.936 0 0 1-25.95 10.754H36.782a36.936 36.936 0 0 1-25.95-10.754A36.086 36.086 0 0 1 0 609.607V183.572a36.941 36.941 0 0 1 10.676-25.95 36.936 36.936 0 0 1 25.95-10.754v.077zm222.876 25.639v81.981a19.093 19.093 0 0 0 5.533 13.482 19.407 19.407 0 0 0 13.482 5.923h82.059L259.502 172.584z"/> 
    </symbol>
    <symbol id="left" viewBox="0 0 15 32">
        <path class="st0" d="M11.9 31L1.2 15.7 11.9.5l2.4 1.6-9.6 13.6 9.6 13.7z"/> 
    </symbol>
    <symbol id="legend" viewBox="0 0 500 500">
        <title> &#x438;&#x43A;&#x43E;&#x43D;&#x43A;&#x438; </title> <path class="cls-1" d="M139.176 217.224c0-61.459 48.739-109.343 106.884-109.343h7.375c82.408 0 135.957 93.2 90 160.22-9.833 14.323-20.094 27.576-30.355 41.364-6.306 8.444-59.428 81.018-61.993 81.874-4.7 1.71-11.971-11.116-16.888-17.743l-60.82-81.766c-16.14-21.163-34.2-43.074-34.2-74.605zm95.341-120.886c-82.622 10.154-127.193 92.348-98.868 160.434 9.085 21.911 68.085 95.982 86.149 120.886 4.6 6.413 9.406 13.467 14.75 19.774 16.14 19.453 30.676-5.451 39.547-17.636l73.537-99.082c10.047-14.429 17.636-27.683 21.377-48.419 14.536-79.522-57.931-145.684-136.492-135.957z"/> <path class="cls-2" d="M247.088 166.4l11.9 24.1 3.285 6.659 7.346 1.067 26.6 3.865-19.247 18.761-5.316 5.181 1.255 7.317 4.544 26.493-23.79-12.509-6.571-3.454-6.571 3.454-23.792 12.509 4.544-26.493 1.255-7.317-5.316-5.181-19.247-18.761 26.6-3.865 7.346-1.067 3.285-6.657 11.9-24.106m0-31.906l-24.559 49.761-54.913 7.979 39.736 38.731-9.38 54.693 49.117-25.823 49.101 25.824-9.38-54.693 39.736-38.731-54.913-7.979-24.557-49.761z"/> 
    </symbol>
    <symbol id="line-chart" viewBox="0 0 23.95 23">
        <title> line </title> <path class="cls-1" d="M2.94 20l3.71-8.4a1.49 1.49 0 0 1-.24-.21 2 2 0 0 1 0-2.84A2 2 0 0 1 7.82 8a2 2 0 0 1 1.42.59A2 2 0 0 1 9.83 10a2 2 0 0 1-.18.81l3.68 2.68a1 1 0 0 1 .13-.14 2 2 0 0 1 1.41-.59 1.93 1.93 0 0 1 1 .27l5.21-8.58a2 2 0 0 1 0-2.84 2 2 0 0 1 2.84 0A2 2 0 0 1 22.47 5a2 2 0 0 1-.66-.11l-5.29 8.72a2 2 0 0 1-.22 2.58 2 2 0 0 1-2.84 0 2 2 0 0 1-.59-1.42 1.9 1.9 0 0 1 .07-.52l-3.78-2.74a2 2 0 0 1-1.34.49 2.35 2.35 0 0 1-.41 0l-3.7 8.4.29.17a2 2 0 0 1 0 2.84 2 2 0 0 1-1.47.59 2 2 0 0 1-1.41-.58A2 2 0 0 1 2.53 20a2.2 2.2 0 0 1 .41 0zm.42 1.14a1.17 1.17 0 0 0-.82-.34A1.15 1.15 0 0 0 1.37 22a1.17 1.17 0 0 0 .34.82 1.16 1.16 0 0 0 1.65 0 1.16 1.16 0 0 0 0-1.65zm5.29-12a1.13 1.13 0 0 0-.82-.34 1.15 1.15 0 0 0-.83.39 1.17 1.17 0 0 0 0 1.64 1.15 1.15 0 0 0 .82.34 1.16 1.16 0 0 0 .82-2zM15.7 14a1.17 1.17 0 0 0-1.65 0 1.17 1.17 0 0 0 0 1.64 1.17 1.17 0 0 0 1.65 0 1.15 1.15 0 0 0 0-1.64zm7.59-11.81a1.16 1.16 0 0 0-1.65 0 1.17 1.17 0 0 0-.34.82 1.18 1.18 0 0 0 .34.82 1.18 1.18 0 0 0 1.65 0 1.18 1.18 0 0 0 .34-.83 1.17 1.17 0 0 0-.34-.82z" transform="translate(-.52 -1)"/> 
    </symbol>
    <symbol id="list" viewBox="0 -2.235 801.097 500">
       <title> list </title> <g> <path d="M129.727 3h667.321v53.73H129.727zM4 3h53.73v53.73H4zM129.727 221.68h667.321v53.73H129.727zM4 221.68h53.73v53.73H4zM129.727 439.822h667.321v53.73H129.727zM4 439.822h53.73v53.73H4z"/> </g> 
    </symbol>
    <symbol id="map" viewBox="0 0 389.221 475.474">
        <title> map </title> <path class="cls-1" d="M214.072 52.6c84.7-10 160.7 52.759 170.216 137.947 10.165 90.513-59.051 161.664-138.109 170.215-89.706 9.358-161.5-57.922-170.054-137.786C66.928 136.819 128.884 62.6 214.072 52.6zm89.706 434.493v-19.04l-63.569-.161c0-57.115-5.97-45.176 20.49-48.887 44.369-6.131 77.767-24.2 111.165-50.661 14.359-11.294 32.268-34.366 42.11-50.5 41.3-67.118 39.368-149.725 3.066-217-18.393-34.2-60.181-75.992-95.192-88.577l-7.906 17.1c7.422 7.1 65.182 28.073 95.353 100.516 41.3 98.9-1.613 213.132-104.227 256.533C268.605 401.9 220.2 406.259 180.19 394.8c-8.551-2.581-30.171-11.294-35.818-11.778l-6.938 17.264c20.006 11.778 55.986 18.554 81.962 20.49 2.259 7.744.807 37.109.807 47.112h-64.537v19.845zM55.634 216.2c4.84 93.255 84.866 169.893 183.93 164.891 93.255-4.679 169.893-84.382 165.053-183.446-4.518-93.74-83.9-170.377-183.768-165.537C127.593 36.787 50.472 116.651 55.634 216.2z" transform="translate(-55.389 -12.263)"/> 
    </symbol>
    <symbol id="minus" viewBox="0 0 500 500">
        <title> &#x438;&#x43A;&#x43E;&#x43D;&#x43A;&#x438; </title> <path class="cls-1" d="M122.915 250A127.085 127.085 0 1 0 250 122.915 127.231 127.231 0 0 0 122.915 250zm14.387 0A112.7 112.7 0 1 1 250 362.7 112.828 112.828 0 0 1 137.3 250z"/> <path class="cls-1" d="M314.769 259.233H259.1v-.058h-18.333v.058h-55.536v-18.466h129.538v18.466z"/> 
    </symbol>
    <symbol id="number" viewBox="0 0 500 500">
        <title> &#x438;&#x43A;&#x43E;&#x43D;&#x43A;&#x438; </title> <path class="cls-1" d="M143.87 343.045h-21.185V183.038a48.583 48.583 0 0 1-7.166 5.638 114.933 114.933 0 0 1-10.586 6.239q-5.882 3.119-12.4 5.813a86.622 86.622 0 0 1-12.716 4.259v-21.423a123 123 0 0 0 14.783-5.236 169.162 169.162 0 0 0 15.372-7.366q7.554-4.059 14.269-8.519a109.565 109.565 0 0 0 11.626-8.719h8.005v189.321zM266.693 206.415a38.331 38.331 0 0 0-2.656-14.858 29.572 29.572 0 0 0-7.229-10.523 29.884 29.884 0 0 0-10.787-6.264 42.863 42.863 0 0 0-13.43-2.055 44.093 44.093 0 0 0-12.14 1.679 59.62 59.62 0 0 0-11.551 4.66 70.651 70.651 0 0 0-10.849 7.091 78.263 78.263 0 0 0-9.747 9.17V172.59a63.421 63.421 0 0 1 19.944-13.229q11.05-4.585 26.935-4.585a64.8 64.8 0 0 1 21.047 3.282 48.606 48.606 0 0 1 16.787 9.621 44.192 44.192 0 0 1 11.162 15.635 52.468 52.468 0 0 1 4.072 21.3 73.118 73.118 0 0 1-2.518 19.894 61.826 61.826 0 0 1-7.617 16.787 81.931 81.931 0 0 1-12.851 15.105 182.8 182.8 0 0 1-18.2 14.708q-13.042 9.321-21.5 15.885a95.023 95.023 0 0 0-13.43 12.327 35.624 35.624 0 0 0-6.978 11.5 40.011 40.011 0 0 0-2 13.229h92.205v18.992H181.078v-9.17a76.225 76.225 0 0 1 2.581-20.922 54.18 54.18 0 0 1 8.519-17.163 95.284 95.284 0 0 1 15.56-16.286q9.621-8.118 23.565-18.341a147.63 147.63 0 0 0 16.85-13.806 70.983 70.983 0 0 0 10.912-13.179 46.987 46.987 0 0 0 5.876-13.355 57.607 57.607 0 0 0 1.752-14.404zM420.185 290.628a53.882 53.882 0 0 1-4.71 22.776 50.37 50.37 0 0 1-13.3 17.564 61.231 61.231 0 0 1-20.6 11.3 82.94 82.94 0 0 1-26.471 4.009q-26.478 0-42.094-10.072v-22.726a67.535 67.535 0 0 0 42.871 14.708 57.758 57.758 0 0 0 17.5-2.455 39.055 39.055 0 0 0 13.43-7.091 31.531 31.531 0 0 0 8.644-11.225 35.08 35.08 0 0 0 3.044-14.858q0-36.306-51.665-36.281h-15.359v-17.966h14.6q45.7 0 45.714-34.076 0-31.533-34.878-31.52-19.619 0-36.794 13.179v-20.545q17.683-10.561 42.094-10.574a65.229 65.229 0 0 1 21.047 3.207 48.624 48.624 0 0 1 16.148 9.045 40.14 40.14 0 0 1 10.4 13.956 43.136 43.136 0 0 1 3.671 17.94q0 36.569-36.932 47v.526a57.678 57.678 0 0 1 17.439 4.585 46.317 46.317 0 0 1 13.816 9.226 41.266 41.266 0 0 1 9.1 13.38 42.447 42.447 0 0 1 3.285 16.988z"/> 
    </symbol>
    <symbol id="pie-chart" viewBox="0 0 500 500">
        <title> round </title> <path class="st0" d="M249.878.005c138.07-.066 250.051 111.808 250.118 249.878S388.188 499.934 250.118 500 .066 388.192 0 250.122A249.997 249.997 0 0 1 73.27 73.18 248.92 248.92 0 0 1 249.878.005zm87.338 163.947l77.253-77.253a230.69 230.69 0 0 0-154.72-67.811V128.33a123.177 123.177 0 0 1 77.682 35.407l-.215.215zM426.7 99.574l-77.896 78.111c40.377 54.159 29.206 130.795-24.953 171.172-47.071 35.094-112.438 31.791-155.732-7.869l-79.184 75.965c91.033 89.978 237.771 89.124 327.749-1.909 85.229-86.228 89.596-223.573 10.016-315.041v-.429zM76.703 403.864l78.755-75.965c-43.072-52.195-35.677-129.424 16.518-172.496a122.531 122.531 0 0 1 69.318-27.717V18.245C113.387 23.022 13.571 130.584 18.348 258.491a231.75 231.75 0 0 0 58.999 146.016l-.644-.643zm246.994-227.895c-40.736-40.888-106.905-41.011-147.793-.274s-41.011 106.905-.275 147.793 106.905 41.011 147.793.275a104.506 104.506 0 0 0 30.746-73.974 104.288 104.288 0 0 0-30.471-73.82z"/> 
    </symbol>
    <symbol id="plus" viewBox="0 0 500 500">
        <title> &#x438;&#x43A;&#x43E;&#x43D;&#x43A;&#x438; </title> <path class="cls-1" d="M122.915 250A127.085 127.085 0 1 0 250 122.915 127.231 127.231 0 0 0 122.915 250zm14.387 0A112.7 112.7 0 1 1 250 362.7 112.828 112.828 0 0 1 137.3 250z"/> <path class="cls-1" d="M314.769 259.233H259.1v55.536h-18.333v-55.536h-55.536v-18.466h55.536v-55.536H259.1v55.536h55.674v18.466z"/> 
    </symbol>
    <symbol id="ready" viewBox="0 0 500 500">
        <title> ready </title> <path class="st0" d="M250.675 497c-65.996 0-128.042-25.7-174.708-72.367C29.3 377.967 3.6 315.921 3.6 249.925S29.3 121.883 75.967 75.217C122.633 28.55 184.679 2.85 250.675 2.85c65.997 0 128.042 25.7 174.709 72.367 46.666 46.666 72.367 108.712 72.367 174.708 0 65.997-25.7 128.042-72.367 174.709S316.671 497 250.675 497zm0-465.859c-120.638 0-218.784 98.146-218.784 218.784 0 120.637 98.146 218.783 218.784 218.783 120.637 0 218.783-98.146 218.783-218.783 0-120.638-98.146-218.784-218.783-218.784z"/> <path class="st0" d="M222.723 279.74a552.452 552.452 0 0 0-55.903-54.412c-10.773-3.8-22.587 1.852-26.387 12.625a20.687 20.687 0 0 0-.633 11.6c1.677 9.69 42.3 46.959 51.803 57.021a62.234 62.234 0 0 0 31.119 23.293 21.8 21.8 0 0 0 18.634-9.504c24.97-22.734 71.742-71.556 96.526-96.339a76.772 76.772 0 0 0 24.411-30.933c1.122-11.368-7.184-21.494-18.552-22.616a20.684 20.684 0 0 0-9.213 1.187c-8.57 3.539-102.301 103.046-111.805 108.078z"/> 
    </symbol>
    <symbol id="right" viewBox="0 0 15 32">
        <path class="st0" d="M3.7 31.3L14.4 16 3.7.7 1.3 2.4 10.9 16 1.3 29.6z"/> 
    </symbol>
    <symbol id="search" viewBox="0 0 500 500">
        <title> &#x43F;&#x43E;&#x438;&#x441;&#x43A; </title> <path id="search_icon" class="st0" d="M500 472.514L350.004 327.519a189.491 189.491 0 0 0 55.498-132.996C402.503 84.948 311.859-1.794 202.259.028 93.045-1.242 3.011 85.343.015 194.522c2.996 109.18 93.03 195.764 202.244 194.494a206.248 206.248 0 0 0 116.247-35.749l152.746 146.746L500 472.514zM40.513 194.522c1.913-87.621 74.37-157.17 161.995-155.495 87.626-1.674 160.082 67.875 161.995 155.495-1.913 87.621-74.37 157.17-161.995 155.495-87.625 1.675-160.081-67.874-161.995-155.495z"/> 
    </symbol>
    <symbol id="settings" viewBox="0 0 500 500">
        <title> settings </title> <path class="st0" d="M34.9 170.8c12-23.6 25.5-46.4 40.3-68.4 1.8-2.7 5.4-3.6 8.3-2 12.9 6.7 25.4 14 37.6 21.9 26.4 15.1 24.5 6.7 46.1-7 .2-.1.3-.2.5-.3 10.7-8.3 36.3-19.9 39.8-33.1 3.1-12.1.4-39.4.9-62.7.1-3.5 2.9-6.3 6.4-6.3l74.5-.1c3.3 0 6.1 2.5 6.4 5.8 4 44.6-14.4 64.8 17.5 78 .4.2.8.4 1.1.6l31.4 20.9c.6.4 1.2 1 1.7 1.6 7.2 9.6 20.6 13.4 30.6 6.7 1-.7 1.9-.6 2.8-1.5 12.8-8.3 26.2-15.4 40.1-21.8 3-1.4 6.5-.3 8.2 2.5l38 63.8c1.7 2.9.9 6.6-1.8 8.5-12.2 8.7-25.1 16.5-38.4 23.4-24.5 13.7-14.7 19.7-15.5 49.1-.7 29.4-10.8 35.8 14.7 49.1 11.9 6.8 25.1 15.4 37.5 21.8 3.1 1.6 4.4 5.4 2.8 8.5-11.4 22.6-23.9 44.6-37.5 66-1.8 2.8-5.3 3.7-8.2 2.3-13.3-6.6-26.1-13.9-38.5-22-31-18-21.7-2.9-65.9 17.5-.6.3-1.1.4-1.7.5-8.3 1.3-15.3 5.8-18.5 13.6-.1.3-.2.5-.3.8-3.9 14.3 1.7 44.6-1.3 67.4-.4 3.3-3.6 9.1-7 9.1h-67.4c-4 0-8.1-6.2-9-10.1-5.4-24.5 11.1-59.9-20.4-78.6-40.1-16.2-41.4-37.7-69.2-22-.1.1-.2.1-.3.2-12.5 8.1-25.5 15.6-38.9 22.1-3 1.5-6.7.3-8.3-2.6-9.2-16.5-31.3-50.6-37.9-65.2-1.2-2.8-.4-6.1 2.1-7.8 23.7-16.7 52.8-22.4 55.7-39.2.1-.4.1-.7.1-1.1-.1-8-2-24.1-1.7-32.8 0-30.7 11-34.3-15.7-49-14.6-7.1-28.6-15.2-41.9-24.5-.6-1.2-.4-2.5.2-3.6zm105.3-60.1c-18.7-11.4-38-21.9-57.7-31.3-.8-.4-1.6-.6-2.4-.6-11.4-.4-21.6 7.1-24.5 18.1-.1.6-.4 1.1-.6 1.6l-31.5 54.7c-.3.5-.6.9-1 1.2-7.9 8.2-9 20.9-2.8 30.4.4.6 1 1.2 1.6 1.6 16.1 11.5 33.1 21.6 50.8 30.3 2.4 1.2 3.8 3.6 3.6 6.2-1.2 17.1-1.2 34.2 0 51.3.2 2.3-.9 4.6-2.9 5.8-34.3 22.6-72.4 26.2-49.1 63.6 5.6 9.1 10.5 17.9 15.9 27.5s11 18.9 16.4 28.7c20.8 37.1 36.3 10.4 78.6-10.3 1.9-.9 4.2-.9 6 .2 7.2 4.2 14.5 10.3 21.6 15 7 4.6 15.6 8 23.8 11.8 2.4 1.1 3.8 3.6 3.7 6.2-1.2 21.4-.3 42.9 2.8 64.2.1.9.4 1.8.9 2.5 9.3 14.5 42.7 9 60.6 9s50 5.8 57.4-12c.3-.8.6-1.7.6-2.6 1.8-20.8 2.4-41.6 1.8-62.4-.1-2.7 1.6-5.2 4.1-6.2 15.1-5.7 29.3-13.5 42.1-23.3 1.8-1.4 4.2-1.7 6.3-.9 16.1 6.5 40.7 27.2 55.3 30.3.3.1.6.1.9.1 11.5.7 21.9-6.6 25.1-17.6l.6-1.5c5.2-8.9 10.3-18.2 15.5-27 12.4-21.3 32.6-46 19.8-60.3-.3-.3-.7-.6-1-.9-16.2-11.6-33.3-22-51.1-31-2.3-1.2-3.7-3.6-3.5-6.1 1.2-19.5-.1-32.2-.3-51.4 0-1.9.9-3.8 2.4-5 29.3-23.8 74.2-21.2 49.6-64l-31.9-55.9c-20.6-36.9-32.6-13.2-78.6 10.1-2.1 1-4.5.9-6.5-.4-3.2-2.1-6.4-4.4-9.4-6.9-.2-.1-.3-.3-.5-.4-15.4-10.1-28.6-15.4-36.3-19.4-2.1-1.1-3.5-3.3-3.4-5.7.3-83 7-75.7-62.7-75.7-69.6 0-60.9-7.1-60.6 76.6 0 2.4-1.3 4.7-3.5 5.7-6.9 3.5-16.8 7.3-23 10.6-7.3 4-14.9 10.6-23 15.5z"/> <path class="st0" d="M240.6 173.5c41.2-6.2 79.8 22.1 86 63.4 0 .2.1.4.1.6 6.3 41.4-22.1 80-63.5 86.3s-80-22.1-86.3-63.5c-6.8-41 21-79.8 62-86.6.5 0 1.1-.1 1.7-.2zm-7.6-18.1c-51.5 10.3-85 60.4-74.7 112s60.4 85 112 74.7 85-60.4 74.7-112c-10.3-51.6-60.5-85-112-74.7z"/> 
    </symbol>
    <symbol id="share" viewBox="0 0 18.2 26">
        <path class="st0" d="M.7 7.7H7v1.2H1.3v15.9h15.6V8.9h-5.7V7.7h7V26H0V7.7z"/> <path class="st0" d="M4.5 4.6L8.7.4l.4-.4.4.4 4.2 4.2-.9.9-3.1-3.1v14.5H8.5V2.4L5.4 5.5z"/> 
    </symbol>
    <symbol id="sign" viewBox="0 0 467.891 467.891">
        <title> sign </title> <path class="cls-1" d="M237.415 180.462v136.817h-21.781V206.922a60.821 60.821 0 0 1-12.585 7.26 124.2 124.2 0 0 1-15.489 5.163v-18.554c3.711-1.129 7.1-2.42 10.487-3.711s6.615-2.743 10-4.356a122.568 122.568 0 0 0 9.842-5.486c3.227-1.936 6.776-4.195 10.326-6.776h9.2zM24.606 16.055h111.81v17.1H33.157v116.168h-17.1V16.055h8.551zm8.551 360.276v90.513h103.258v17.1H16.055V376.331h17.1zM363.585 16.055h120.36v133.268h-17.1V33.157h-103.26v-17.1zm120.36 360.276v107.614h-120.36v-17.1h103.258v-90.514h17.1zm-439.333-96l60.664-60.664 60.664 60.664H44.612zm305.42 36.947h-84.059v-10.324a41.077 41.077 0 0 1 1.775-11.939 44.035 44.035 0 0 1 4.84-10.487 52.911 52.911 0 0 1 6.938-9.2c2.743-2.9 5.486-5.647 8.551-8.39s6.131-5.324 9.358-7.906c3.227-2.42 6.292-5 9.358-7.583a84.348 84.348 0 0 0 7.744-7.1 36.645 36.645 0 0 0 6.131-7.26 24.071 24.071 0 0 0 3.872-7.906 26.537 26.537 0 0 0 1.452-9.035 23.4 23.4 0 0 0-1.613-9.2 19.281 19.281 0 0 0-4.518-6.615 21.968 21.968 0 0 0-7.1-4.034 24.73 24.73 0 0 0-8.712-1.291 39.33 39.33 0 0 0-16.618 3.711 56.992 56.992 0 0 0-16.457 11.617v-20.967a91.767 91.767 0 0 1 8.39-5.324 52.386 52.386 0 0 1 8.712-3.711 56.776 56.776 0 0 1 9.358-2.42 71.779 71.779 0 0 1 10.487-.645 57.151 57.151 0 0 1 16.457 2.259 34.167 34.167 0 0 1 12.585 7.1 30.759 30.759 0 0 1 8.067 11.455 41.462 41.462 0 0 1 2.9 15.973 45.769 45.769 0 0 1-2.1 14.521 41.473 41.473 0 0 1-5.647 12.1 59.782 59.782 0 0 1-8.874 10.649c-3.55 3.388-7.422 6.776-11.617 10.326-3.711 2.9-7.26 5.808-10.81 8.551s-6.776 5.486-9.681 8.228a38.708 38.708 0 0 0-6.938 7.906 13.8 13.8 0 0 0-2.743 7.906v.484h60.5v18.554zm24.363-5v-20.329a46.076 46.076 0 0 0 29.526 10.326c8.874 0 15.973-1.936 21.3-5.97a19.614 19.614 0 0 0 8.067-16.457q0-22.749-34.85-22.749h-10.33v-17.425h9.842c20.652 0 30.816-7.1 30.816-21.458 0-13.069-7.906-19.684-24.04-19.684-8.874 0-17.264 3.227-25.169 9.519v-19.2c9.035-5 19.684-7.583 32.107-7.583 11.939 0 21.458 2.9 28.557 8.874a28.9 28.9 0 0 1 10.81 22.911c0 17.748-9.035 29.042-26.944 34.043v.484c9.681.807 17.264 4.195 22.911 10a30.607 30.607 0 0 1 8.39 21.781q0 18.151-13.553 29.041c-9.035 7.422-20.974 11.133-35.657 11.133-13.23 0-23.879-2.42-31.784-7.26z" transform="translate(-16.055 -16.055)"/> 
    </symbol>
    <symbol id="source-edit" viewBox="0 0 500 500">
        <path class="st0" d="M147.425 316.43v49.806h49.806l146.895-146.895-49.806-49.806L147.425 316.43zm235.217-135.605a13.226 13.226 0 0 0 0-18.727l-31.079-31.079a13.226 13.226 0 0 0-18.727 0l-24.305 24.305 49.806 49.806 24.305-24.305z"/> <path class="st0" d="M250 4.62C114.695 4.62 4.62 114.704 4.62 250S114.695 495.38 250 495.38 495.38 385.296 495.38 250 385.305 4.62 250 4.62zm0 462.981c-119.986 0-217.601-97.624-217.601-217.601S130.014 32.399 250 32.399 467.601 130.023 467.601 250 369.986 467.601 250 467.601z"/> 
    </symbol>
    <symbol id="source-info" viewBox="0 0 500 500">
        <path class="st0" d="M250 4.62C114.695 4.62 4.62 114.704 4.62 250S114.695 495.38 250 495.38 495.38 385.296 495.38 250 385.305 4.62 250 4.62zm0 462.981c-119.986 0-217.601-97.624-217.601-217.601S130.014 32.399 250 32.399 467.601 130.023 467.601 250 369.986 467.601 250 467.601z"/> <path class="st0" d="M250 127.03c-8.681 0-15.788 2.441-21.322 7.325-5.534 4.883-8.301 11.177-8.301 18.881 0 7.487 2.767 13.817 8.301 18.953 5.534 5.172 12.642 7.74 21.322 7.74 8.789 0 15.924-2.496 21.404-7.487 5.48-4.992 8.22-11.394 8.22-19.206 0-7.704-2.74-13.998-8.22-18.881-5.48-4.884-12.615-7.325-21.404-7.325zM224 212h54v166h-54z"/> 
    </symbol>
    <symbol id="source-remove" viewBox="0 0 500 500">
        <path class="st0" d="M336.755 126.066L250 212.821l-86.755-86.755-37.182 37.179L212.819 250l-86.756 86.755 37.182 37.183L250 287.183l86.755 86.755 37.181-37.183L287.18 250l86.756-86.755z"/> <path class="st0" d="M250 4.62C114.695 4.62 4.62 114.704 4.62 250S114.695 495.38 250 495.38 495.38 385.296 495.38 250 385.305 4.62 250 4.62zm0 462.981c-119.986 0-217.601-97.624-217.601-217.601S130.014 32.399 250 32.399 467.601 130.023 467.601 250 369.986 467.601 250 467.601z"/> 
    </symbol>
    <symbol id="space-matrix" viewBox="0 0 422.885 463.927">
        <title> space </title> <path class="cls-1" d="M139.657 69.1l260.729 181.185a31.428 31.428 0 0 0-9.681 13.875L129.815 83.135a31.343 31.343 0 0 0 9.842-14.035zM404.1 302.075L270.505 426.631a34.318 34.318 0 0 0-11.617-12.423L392.48 289.652a33 33 0 0 0 11.62 12.423zM210.648 435.666l-107.615-52.275a31.947 31.947 0 0 0 7.422-15.166l.161-.161 107.454 52.275a30.7 30.7 0 0 0-7.422 15v.323zM73.669 330.633L97.87 88.459a54.443 54.443 0 0 0 5.486 1.613 34.129 34.129 0 0 0 11.455 0l-24.2 242.335a21.47 21.47 0 0 0-5.486-1.613 30.446 30.446 0 0 0-11.455-.161z" transform="translate(-38.558 -18.037)"/> <path class="cls-1" d="M460.889 281.585l-.161.968a40.361 40.361 0 0 1-17.1 25.815 40.815 40.815 0 0 1-29.526 6.454l-.807-.161a40.432 40.432 0 0 1-15-73.41 40.387 40.387 0 0 1 30.332-6.292 40.707 40.707 0 0 1 32.268 46.628zm-26.783 12.746a24.381 24.381 0 0 0 9.842-15 23.313 23.313 0 0 0-3.55-17.748 24.38 24.38 0 0 0-15-9.842 23.627 23.627 0 0 0-17.586 3.55 23.948 23.948 0 0 0-10 15 23.53 23.53 0 0 0 3.711 17.586 23.184 23.184 0 0 0 14.843 10 24.806 24.806 0 0 0 17.748-3.55zM281.961 448.251l-.161.807a40.324 40.324 0 0 1-46.466 32.268l-.968-.161a39.765 39.765 0 0 1-25.815-17.1A40.23 40.23 0 0 1 202.1 434.7l.161-.968a40.509 40.509 0 0 1 79.7 14.521zm-26.783 12.585a23.184 23.184 0 0 0 10-14.843 24.1 24.1 0 0 0-3.711-17.748 23.53 23.53 0 0 0-32.591-6.292 23.944 23.944 0 0 0-9.842 15 23.334 23.334 0 0 0 18.393 27.428l.161.161a23.69 23.69 0 0 0 17.586-3.711zM119.006 369.032l-.161.807a40.3 40.3 0 0 1-17.1 25.976 39.581 39.581 0 0 1-29.364 6.292h-.165l-.807-.161A40.353 40.353 0 0 1 39.3 354.511a40.324 40.324 0 0 1 46.466-32.268h.161l.807.161a40.372 40.372 0 0 1 32.268 46.628zm-26.783 12.585a22.976 22.976 0 0 0 9.842-14.843v-.161a23.063 23.063 0 0 0-3.549-17.586 23.383 23.383 0 0 0-14.843-9.842h-.163a23.471 23.471 0 0 0-23.879 36.141 22.784 22.784 0 0 0 14.843 9.842l.161.161a23.851 23.851 0 0 0 17.586-3.711zM149.176 66.194a40.3 40.3 0 0 1-17.1 25.976 39.622 39.622 0 0 1-30.334 6.13 40.5 40.5 0 0 1 15.327-79.541 40.353 40.353 0 0 1 32.107 47.434zm-26.621 11.778a22.784 22.784 0 0 0 9.845-14.844 23.336 23.336 0 0 0-18.554-27.589 23.471 23.471 0 0 0-23.882 36.14 23.529 23.529 0 0 0 15 10 23.851 23.851 0 0 0 17.586-3.711z" transform="translate(-38.558 -18.037)"/> 
    </symbol>
    <symbol id="star-empty" viewBox="0 0 17.87 17">
        <title> star big empty </title> <path class="cls-1" d="M9.81 7.15l1.87 3.78.23.47.52.08 4.17.61-3 2.94-.38.37.09.52.69 4.14-3.73-2-.47-.24-.47.24-3.73 2 .71-4.15.09-.52L6 15l-3-2.92 4.17-.61.52-.08.23-.47 1.89-3.77m0-2.26L7 10.48l-6.18.9 4.47 4.36-1 6.15L9.81 19l5.52 2.9-1.05-6.15 4.47-4.36-6.18-.9-2.76-5.6z" transform="translate(-.87 -4.89)"/> 
    </symbol>
    <symbol id="star" viewBox="0 0 17.87 17">
        <title> star big gray </title> <path class="cls-1" d="M8.94 14.1l5.52 2.9-1.05-6.15 4.47-4.36-6.18-.89L8.94 0 6.18 5.6 0 6.49l4.47 4.36L3.41 17l5.53-2.9z"/> 
    </symbol>
    <symbol id="table" viewBox="0 0 20.92 20.92">
        <title> tab </title> <path class="cls-1" d="M2.46 2H23v21H2V2h.46zm.42 5h9.2V2.88h-9.2V7zm10 0h9.2V2.88h-9.2V7zm9.2.85h-9.2v4.3h9.2V7.81zm-10 0h-9.2v4.3h9.2V7.81zm-9.2 9.44h9.2V13h-9.2v4.3zm10 0h9.2V13h-9.2v4.3zm9.2.84h-9.2v4h9.2v-4zm-10 0h-9.2v4h9.2v-4z" transform="translate(-2.04 -2.04)"/> 
    </symbol>
    <symbol id="text" viewBox="0 0 500 500">
        <title> &#x438;&#x43A;&#x43E;&#x43D;&#x43A;&#x438; </title> <path class="cls-1" d="M169.464 346.327H148.28v-20.671h-.514q-13.812 23.791-40.678 23.778-19.75 0-30.931-10.473-11.163-10.449-11.163-27.761 0-37.058 43.647-43.121l39.638-5.562q0-33.713-27.248-33.7-23.884 0-43.134 16.261V223.4Q97.4 211 122.848 211q46.6 0 46.616 49.335v85.992zm-21.185-66.9l-31.9 4.41q-14.714 2.067-22.212 7.291-7.479 5.224-7.492 18.516a20.226 20.226 0 0 0 6.925 15.837q6.9 6.126 18.4 6.114 15.748 0 26.02-11.025 10.26-11.05 10.26-27.962v-13.18zM220.215 327.21h-.515v19.118h-21.183V150.566H219.7v86.768h.514q15.617-26.346 45.715-26.334 25.425 0 39.839 17.74 14.395 17.777 14.395 47.606 0 33.186-16.136 53.118-16.161 19.957-44.173 19.97-26.215 0-39.639-22.224zm-.515-53.319v18.466q0 16.387 10.649 27.812t27.051 11.425q19.243 0 30.155-14.708 10.918-14.733 10.912-40.941 0-22.062-10.2-34.6-10.2-12.515-27.637-12.528-18.472 0-29.7 12.854t-11.23 32.22zM434.743 340.264q-15.24 9.17-36.156 9.17-28.282 0-45.652-18.416-17.364-18.378-17.364-47.706 0-32.66 18.717-52.492T404.263 211q17.439 0 30.744 6.439v21.7q-14.733-10.336-31.52-10.323-20.276 0-33.249 14.532-12.966 14.507-12.979 38.16 0 23.227 12.2 36.657 12.215 13.455 32.735 13.43 17.307 0 32.548-11.476v20.145z"/> 
    </symbol>
    <symbol id="tile" viewBox="1.0484314 -2.7351685 499 499">
       <title> list </title> <g> <path d="M243.42 237.265H1.047v-240h241v240.2l.343-.05.343-.05.343-.05.342-.05zm-196.372-45h149v-150h-149v150zM500.048 237.265h-240v-240h240v240zm-194.113-45h149.113v-150h-150v149.524l.222.119.222.119.221.119.222.119zM243.42 496.265H1.047v-241h241v240.72l.343.07.343.07.343.07.342.07zm-196.372-46h149v-149h-149v149zM500.048 496.265h-240v-241h240V496.265zm-194.113-46h149.113v-149h-150V450.31l.222-.011.222-.011.221-.012.222-.011z"/> </g> 
    </symbol>
    <symbol id="time" viewBox="0 0 500 500">
        <title> &#x438;&#x43A;&#x43E;&#x43D;&#x43A;&#x438; </title> <path class="cls-1" d="M250 424.464c-96.2 0-174.464-78.249-174.464-174.464S153.8 75.536 250 75.536 424.464 153.786 424.464 250 346.2 424.464 250 424.464zm0-333.543C162.292 90.921 90.921 162.28 90.921 250S162.292 409.079 250 409.079 409.079 337.72 409.079 250 337.708 90.921 250 90.921z"/> <path class="cls-1" d="M236.573 116.487h15.384v141.114h-15.384z"/> <path class="cls-1" d="M236.623 249.909h141.114v15.384H236.623z"/> 
    </symbol>
    <symbol id="txt" viewBox="0 146 456.372 500">
       <title> txt small </title> <path d="M193.459 443.193h-41.732v119.235h-32.79V443.193H77.205v-26.828h116.254v26.828zM332.069 562.428H293.02l-25.039-47.992a42.341 42.341 0 0 1-2.981-9.837 77.8 77.8 0 0 1-4.173 9.837l-25.337 47.098h-38.751l46.502-73.031-42.03-72.137h39.944l19.674 43.819a75.754 75.754 0 0 1 4.471 12.222c0-2.782 1.49-7.055 4.471-12.818l23.251-43.521h36.665l-43.819 72.435 46.201 73.925zM456.372 443.193H414.64v119.235h-33.088V443.193h-41.434v-26.828h116.254v26.828z"/> <path d="M36.665 146h221.479l126.985 126.985v116.254H367.84v-98.965h-89.426a36.067 36.067 0 0 1-25.635-10.731 36.958 36.958 0 0 1-10.731-25.934v-89.426H36.665a19.974 19.974 0 0 0-14.308 4.471 20.572 20.572 0 0 0-5.664 13.712v425.967a19.078 19.078 0 0 0 5.664 13.414 20.572 20.572 0 0 0 13.712 5.664h312.395a19.078 19.078 0 0 0 13.414-5.664 19.083 19.083 0 0 0 5.664-13.414v-14.904h17.289v14.904a36.068 36.068 0 0 1-10.731 25.635 36.958 36.958 0 0 1-25.934 10.731H36.665a36.961 36.961 0 0 1-25.934-11.029A36.066 36.066 0 0 1 0 608.035v-425.37a36.965 36.965 0 0 1 10.731-25.934A36.965 36.965 0 0 1 36.665 146zm224.161 25.636v81.974a19.078 19.078 0 0 0 5.664 13.414 19.374 19.374 0 0 0 13.414 5.962h81.974l-101.052-101.35z"/> 
    </symbol>
    <symbol id="up-circle" viewBox="0 0 624.99998 624.99998">
        <title id="title7"> up11 </title> <path class="cls-1" d="M313.924 620.995A308.161 308.161 0 1 1 620.272 312.47a308.524 308.524 0 0 1-306.348 308.524zm0-580.068A271.907 271.907 0 1 0 584.018 312.47 272.27 272.27 0 0 0 313.924 40.927z" id="path9"/> <path class="cls-1" id="polygon11" transform="translate(5.762 4.673) scale(36.25425)" d="M3.82 9.99l.67.67 4.4-4.4 4.4 4.4.66-.67-5.06-5.06-5.07 5.06z"/> 
    </symbol>
    <symbol id="up-fill" viewBox="0 0 499.16 249.75">
        <title> up!!!-01-01 </title> <path class="cls-1" d="M499.16 249.75L249.742 0 0 249.417"/> 
    </symbol>
    <symbol id="updates" viewBox="0 0 500 500">
        <title> update </title> <path class="st0" d="M36.323 68.309a197.25 197.25 0 0 1 21.548 17.239l10.774 7.757a10.99 10.99 0 0 0 14.437 1.724l21.548-19.178a233.151 233.151 0 0 1 143.728-52.578 225.616 225.616 0 0 1 154.718 58.181 220.459 220.459 0 0 1 46.76 56.888c6.68 11.852 29.521 59.258 26.72 76.281l-48.268 7.757a177.99 177.99 0 0 0-68.739-113.56 187.064 187.064 0 0 0-37.494-21.548c-56.744-23.705-121.633-17.054-172.387 17.67-13.36 9.05-35.339 23.057-19.825 34.908a355.516 355.516 0 0 1 36.201 29.09L41.063 195.444l-4.74-127.135zm-2.155-29.306C7.448 17.454 15.421 71.541 16.067 87.702c0 23.703 1.724 48.699 2.801 72.403 0 12.067 0 24.565 1.293 35.986s0 24.565 15.73 21.548c27.366-4.525 91.796-20.04 123.903-26.936 10.128-2.155 21.548-4.094 31.892-6.895 31.245-7.757-23.057-37.925-36.848-50.854a7.777 7.777 0 0 1-2.155-2.37 129.286 129.286 0 0 1 43.097-25.427c81.804-30.974 173.228 10.232 204.202 92.035a158.38 158.38 0 0 1 6.542 21.956c5.387 23.488-1.293 29.306 27.366 24.565 70.248-11.852 69.817-3.663 62.49-40.942a256.632 256.632 0 0 0-67.447-126.058 253.615 253.615 0 0 0-172.386-73.05A248.458 248.458 0 0 0 111.742 46.76 409.34 409.34 0 0 0 77.48 72.403l-43.312-33.4zM74.248 301.462a92.243 92.243 0 0 1 11.421 25.427c42.002 89.796 148.846 128.541 238.643 86.539a179.471 179.471 0 0 0 39.116-24.91c7.757-5.818 16.161-12.714 10.128-21.548l-29.952-23.919-4.741-3.448-4.525-4.956 124.765-26.72 4.094 126.705a107.733 107.733 0 0 1-12.283-9.266l-12.498-9.697c-11.636-9.05-15.299-15.73-28.228-3.232-89.65 89.424-234.819 89.241-324.244-.409a229.461 229.461 0 0 1-13.42-14.675 220.43 220.43 0 0 1-45.467-87.918l47.191-7.973zm274.527 71.541a148.692 148.692 0 0 1-49.346 27.582c-79.305 26.576-165.629-12.911-197.383-90.288-12.714-31.676-1.508-34.046-40.727-27.582l-33.185 5.387C15.852 290.257 4 289.395 4 302.324a215.462 215.462 0 0 0 19.394 56.888 247.592 247.592 0 0 0 170.448 135.109c82.015 17.695 167.462-6.534 227.982-64.645 5.603 2.586 35.77 27.582 43.097 33.4 26.72 20.04 18.963-28.659 18.316-47.622l-3.663-110.112c0-11.852 0-23.272-14.006-21.548-23.919 3.663-96.321 21.548-126.058 27.366-10.128 2.155-21.548 4.094-31.892 6.895-13.145 3.879-9.481 15.299-1.724 21.548l42.881 33.4z"/> 
    </symbol>
    <symbol id="uploaded" viewBox="0 0 541.443 500">
        <title> uploaded </title> <path class="st0" d="M28.596 116.546h422.596c80.237 0 61.205 69.423 61.205 148.579v103.378c0 36.117 6.272 68.558-15.788 90.402-22.06 21.844-56.88 14.707-90.618 14.707H89.585c-80.237 0-61.205-70.288-61.205-147.498V116.546h.216zm0-26.385c0-28.332-6.921-57.745 23.357-59.475h161.988c27.467 2.595 21.627 35.685 21.627 59.259H28.596v.216zm233.141 0c0-26.601 7.786-82.183-45.633-85.211-40.659-2.379-88.672 0-129.763 0a129.757 129.757 0 0 0-59.907 6.272A46.496 46.496 0 0 0 1.346 49.069c-3.028 38.496 0 87.59 0 127.384s-2.379 231.411 0 255.85c4.784 32.705 29.803 58.767 62.286 64.882a1061.086 1061.086 0 0 0 129.763 1.514H454.22c34.631 2.671 66.939-17.61 79.588-49.959 10.165-23.357 6.921-210.216 6.921-250.659a156.595 156.595 0 0 0-5.623-59.042 80.245 80.245 0 0 0-27.899-35.469c-29.629-19.681-77.209-13.625-116.138-13.625s-95.809 3.46-129.763 0l.431.216z"/> <path class="st0" d="M220.429 311.191c-7.743-4.964-18.043-2.712-23.007 5.031-4.465 6.965-3.141 16.151 3.11 21.57l50.175 48.661a38.924 38.924 0 0 0 18.599 13.841 25.734 25.734 0 0 0 21.627-12.328c5.839-5.407 11.246-10.165 16.869-15.788l32.873-32.225c6.953-6.021 7.708-16.538 1.688-23.49a16.652 16.652 0 0 0-20.071-3.976c-8.218 5.623-25.52 27.034-33.09 32.008V208.676c0-14.49 0-28.548-16.869-28.548s-16.869 13.841-16.869 28.548v134.089l-35.035-31.574zM140.625 438.359c2.379 11.03 11.462 12.327 24.006 12.327h183.831c21.627 0 57.312 6.704 51.473-21.627-2.379-11.895-12.111-12.544-24.655-12.544H191.449c-19.897 0-57.096-6.488-51.04 21.627l.216.217z"/> 
    </symbol>
    <symbol id="url" viewBox="0 0 478.673 478.238">
        <title> url </title> <path class="cls-1" d="M487.047 354.28a112.472 112.472 0 0 0-27.721-54c-26.229-28.591-54.585-55.058-82.231-82.467a15.6 15.6 0 0 0-17.722-3.545 16.54 16.54 0 0 0-4.49 28.119c26.229 26.23 52.457 52.222 78.451 78.687a79.632 79.632 0 0 1-112.715 112.245q-42.534-42.06-84.595-84.595a76.8 76.8 0 0 1-23.63-55.766 82 82 0 0 1 22.212-55.529 25.28 25.28 0 0 0 5.671-14.887 13.705 13.705 0 0 0-10.632-13.706 18.2 18.2 0 0 0-19.377 6.144 112.477 112.477 0 0 0-1.891 153.593c28.356 30.245 58.13 59.074 87.667 88.138a114.13 114.13 0 0 0 82.467 32.373 197.121 197.121 0 0 0 20.794-2.126 112.476 112.476 0 0 0 87.742-132.678z" transform="translate(-10.664 -10.881)"/> <path class="cls-1" d="M171.515 59.116A80.029 80.029 0 0 1 180.5 68c27.646 27.175 55.058 54.585 82.231 81.759a89.3 89.3 0 0 1 16.068 23.63 78.212 78.212 0 0 1-14.887 90.5 16.777 16.777 0 0 0 0 25.047 16.069 16.069 0 0 0 22.71-.811q.485-.519.92-1.08a112.95 112.95 0 0 0 0-158.083q-41.355-42.999-83.653-84.352a108.459 108.459 0 0 0-103.97-30.718A107.045 107.045 0 0 0 15.8 92.106a108.463 108.463 0 0 0 29.066 112c23.63 25.047 48.914 49.387 73.488 73.961a43.7 43.7 0 0 0 7.089 5.907 15.83 15.83 0 0 0 23.63-8.27 18.2 18.2 0 0 0-6.852-20.321l-73.725-74.2A79.869 79.869 0 0 1 171.515 59.116z" transform="translate(-10.664 -10.881)"/> 
    </symbol>
    <symbol id="user" viewBox="0 0 35 35">
        <title> login </title> <path class="cls-1" d="M9.234 23.537c0-3.472 4.4-5.419 8.093-5.419 3.964 0 8.433 1.824 8.438 5.419 0 .964.077 4.267-.039 4.976H9.273c-.089-.7-.039-4.019-.039-4.976zM7.406 23.2v6.12c0 .831.475 1.041 1.255 1.041h17.765a.966.966 0 0 0 1.169-1.041v-6.21c0-2.349-1.99-4.2-3.352-5.038a12.929 12.929 0 0 0-6.744-1.79 12.758 12.758 0 0 0-6.734 1.8c-1.407.855-3.359 2.7-3.359 5.12z"/> <path class="cls-1" d="M16.66 6.6a3.609 3.609 0 0 1 4.414 2.74 3.669 3.669 0 0 1-7.139 1.7A3.61 3.61 0 0 1 16.66 6.6zm.133-1.9a5.5 5.5 0 1 0 6.173 4.8 5.485 5.485 0 0 0-6.173-4.8z"/> 
    </symbol>
    <symbol id="xls" viewBox="0 146 428.333 500">
       <title> xls small </title> <path d="M210.472 563.599h-39.109l-25.376-48.065a42.372 42.372 0 0 1-2.985-9.852 77.836 77.836 0 0 1-3.284 10.15l-25.376 47.17H74.934l46.573-73.143-42.692-72.546h40.005l20.898 43.886a75.884 75.884 0 0 1 4.478 12.24c0-2.786 1.493-7.066 4.478-12.837l23.286-43.587h36.721l-43.886 72.546 45.677 74.038zM314.962 563.599h-87.174V417.313h32.84V536.73h54.036v26.869h.298zM328.098 557.927v-32.541a62.699 62.699 0 0 0 19.405 11.046 62.124 62.124 0 0 0 20.898 3.583c3.57.42 7.177.42 10.748 0a25.07 25.07 0 0 0 7.762-2.985 13.44 13.44 0 0 0 4.777-4.777 11.645 11.645 0 0 0 1.493-5.971 12.836 12.836 0 0 0-2.388-7.762 26.877 26.877 0 0 0-6.568-6.269 72.282 72.282 0 0 0-10.15-5.374l-12.539-5.374a63.584 63.584 0 0 1-25.376-18.211 37.91 37.91 0 0 1-8.359-24.779 39.711 39.711 0 0 1 4.478-19.704 39.11 39.11 0 0 1 12.24-12.837 56.133 56.133 0 0 1 18.211-7.762 94.317 94.317 0 0 1 22.092-2.388 134.35 134.35 0 0 1 20.301 0 79.424 79.424 0 0 1 16.42 4.18v29.854a49.27 49.27 0 0 0-8.061-4.478l-8.956-3.284-8.658-.597h-8.658a44.173 44.173 0 0 0-10.15 0 25.991 25.991 0 0 0-7.762 2.985 14.637 14.637 0 0 0-4.777 4.777 11.042 11.042 0 0 0-1.791 5.971 11.35 11.35 0 0 0 1.791 6.568 21.81 21.81 0 0 0 5.374 5.374 56.686 56.686 0 0 0 8.658 5.075l11.643 5.075a126.113 126.113 0 0 1 15.823 7.762 55.54 55.54 0 0 1 11.942 9.255 36.117 36.117 0 0 1 7.762 11.942 47.468 47.468 0 0 1-2.09 36.124 37.912 37.912 0 0 1-12.539 13.434 54.349 54.349 0 0 1-18.51 7.464 105.406 105.406 0 0 1-22.391 2.388 125.352 125.352 0 0 1-22.988-2.09 69.95 69.95 0 0 1-19.107-5.674z"/> <path d="M37.616 146.535h220.921l127.179 127.179v116.432h-17.315V291.03h-89.563a36.12 36.12 0 0 1-25.675-10.748 37.022 37.022 0 0 1-10.748-25.973v-89.563h-204.8a20.001 20.001 0 0 0-13.733 5.672 20.599 20.599 0 0 0-5.672 13.733v425.423a19.106 19.106 0 0 0 5.672 13.434 20.599 20.599 0 0 0 13.733 5.672h311.38a19.106 19.106 0 0 0 13.434-5.672 19.104 19.104 0 0 0 5.672-13.434v-14.927h17.315v14.927a36.12 36.12 0 0 1-10.748 25.675 37.016 37.016 0 0 1-25.973 10.747H37.616a37.02 37.02 0 0 1-26.869-11.046A36.12 36.12 0 0 1 0 609.276v-426.02a37.017 37.017 0 0 1 10.748-25.973 37.02 37.02 0 0 1 26.868-10.748zm222.415 25.675v82.099a19.106 19.106 0 0 0 5.672 13.434 19.407 19.407 0 0 0 13.434 5.971h82.099L260.031 172.21z"/> 
    </symbol>
    <symbol id="yandex-drive" viewBox="0 0 820.178 500">
        <title> yandex </title> <path class="st0" d="M596.295 99.086c27.771 6.014 56.249 3.891 84.197 8.667a242.512 242.512 0 0 1 100.116 35.377c38.106 22.309 50.911 71.286 28.602 109.391a79.805 79.805 0 0 1-3.838 5.937A318.402 318.402 0 0 1 695.881 362.82c-19.988 12.913-41.568 23.349-62.617 35.377a15.565 15.565 0 0 1-13.62 2.476 17.69 17.69 0 0 1 6.545-12.736c10.899-14.293 8.148-34.716-6.145-45.616a32.537 32.537 0 0 0-6.237-3.735 134.968 134.968 0 0 0-70.754-15.212 462.382 462.382 0 0 0-257.19 76.768 101.004 101.004 0 0 0-35.377 37.146c-9.699 13.841-6.341 32.923 7.499 42.622.722.506 1.466.981 2.229 1.423a17.67 17.67 0 0 1 5.13 3.538c2.299 4.422 11.497 4.599 8.49 11.144a13.442 13.442 0 0 1-13.089 2.476 499.708 499.708 0 0 1-176-17.688A185.543 185.543 0 0 1 43 460.284C3.612 439.476-11.452 390.678 9.355 351.289a80.71 80.71 0 0 1 3.045-5.273 252.074 252.074 0 0 1 65.093-73.938 373.887 373.887 0 0 1 50.766-36.969 65.629 65.629 0 0 0 20.342-17.688 41.218 41.218 0 0 0 19.988-5.483 968.624 968.624 0 0 1 396.22-108.784 68.464 68.464 0 0 0 31.486-4.068z"/> <path class="st0" d="M596.295 99.086a68.453 68.453 0 0 1-30.778 4.245 968.612 968.612 0 0 0-396.928 108.607 41.217 41.217 0 0 1-20.695 6.368 27.24 27.24 0 0 1 10.082-17.688c17.688-29.893 31.132-61.733 47.582-91.98C238.808 38.35 311.565-4.547 389.164.384a196.163 196.163 0 0 1 102.947 35.377 853.773 853.773 0 0 0 104.184 63.325z"/> 
    </symbol></svg>