<svg id="Слой_1" data-name="Слой 1" xmlns="http://www.w3.org/2000/svg" viewBox="0 0 500 500"><defs><style>.cls-1{fill:#303f9f;}</style></defs><title>иконки</title><path class="cls-1" d="M68.345,328.412V171.588H112.97q20.352,0,32.259,9.947,11.933,9.96,11.927,25.908a38.2,38.2,0,0,1-7.216,23.2,38.8,38.8,0,0,1-19.907,13.981v0.451q15.86,1.842,25.369,11.977,9.527,10.11,9.521,26.309,0,20.107-14.445,32.573T114.06,328.412H68.345ZM86.724,188.2v50.638h18.8q15.109,0,23.74-7.266c5.75-4.861,8.632-11.676,8.632-20.521q0-22.851-30.067-22.851H86.724Zm0,67.15V311.8h24.931q16.2,0,25.106-7.667t8.907-21q0-27.774-37.834-27.787H86.724Z"/><path class="cls-1" d="M251.979,331.043q-33.356,0-53.419-22t-20.07-57.177q0-37.847,20.446-60.385,20.446-22.513,55.674-22.525,32.472,0,52.329,21.874t19.844,57.2q0,38.373-20.333,60.685Q286.1,331.043,251.979,331.043Zm1.315-145.474q-24.711,0-40.139,17.84-15.428,17.815-15.422,46.8t15.034,46.654q15.052,17.664,39.212,17.664,25.82,0,40.691-16.863,14.864-16.838,14.871-47.13,0-31.044-14.432-48.007Q278.658,185.581,253.295,185.569Z"/><path class="cls-1" d="M431.655,328.412H350.286V171.588h18.378V311.8h62.99v16.612Z"/></svg>