<svg id="Слой_1" data-name="Слой 1" xmlns="http://www.w3.org/2000/svg" viewBox="0 0 500 500"><defs><style>.cls-1{fill:#303f9f;}</style></defs><title>иконки</title><path class="cls-1" d="M143.87,343.045H122.685V183.038a48.583,48.583,0,0,1-7.166,5.638,114.933,114.933,0,0,1-10.586,6.239q-5.882,3.119-12.4,5.813a86.622,86.622,0,0,1-12.716,4.259V183.564A123,123,0,0,0,94.6,178.328a169.162,169.162,0,0,0,15.372-7.366q7.554-4.059,14.269-8.519a109.565,109.565,0,0,0,11.626-8.719h8.005V343.045Z"/><path class="cls-1" d="M266.693,206.415a38.331,38.331,0,0,0-2.656-14.858,29.572,29.572,0,0,0-7.229-10.523,29.884,29.884,0,0,0-10.787-6.264,42.863,42.863,0,0,0-13.43-2.055,44.093,44.093,0,0,0-12.14,1.679,59.62,59.62,0,0,0-11.551,4.66,70.651,70.651,0,0,0-10.849,7.091,78.263,78.263,0,0,0-9.747,9.17V172.59a63.421,63.421,0,0,1,19.944-13.229q11.05-4.585,26.935-4.585a64.8,64.8,0,0,1,21.047,3.282,48.606,48.606,0,0,1,16.787,9.621,44.192,44.192,0,0,1,11.162,15.635,52.468,52.468,0,0,1,4.072,21.3,73.118,73.118,0,0,1-2.518,19.894,61.826,61.826,0,0,1-7.617,16.787A81.931,81.931,0,0,1,265.265,256.4a182.8,182.8,0,0,1-18.2,14.708q-13.042,9.321-21.5,15.885a95.023,95.023,0,0,0-13.43,12.327,35.624,35.624,0,0,0-6.978,11.5,40.011,40.011,0,0,0-2,13.229h92.205v18.992H181.078v-9.17a76.225,76.225,0,0,1,2.581-20.922,54.18,54.18,0,0,1,8.519-17.163,95.284,95.284,0,0,1,15.56-16.286q9.621-8.118,23.565-18.341a147.63,147.63,0,0,0,16.85-13.806,70.983,70.983,0,0,0,10.912-13.179,46.987,46.987,0,0,0,5.876-13.355A57.607,57.607,0,0,0,266.693,206.415Z"/><path class="cls-1" d="M420.185,290.628a53.882,53.882,0,0,1-4.71,22.776,50.37,50.37,0,0,1-13.3,17.564,61.231,61.231,0,0,1-20.6,11.3,82.94,82.94,0,0,1-26.471,4.009q-26.478,0-42.094-10.072V313.479a67.535,67.535,0,0,0,42.871,14.708,57.758,57.758,0,0,0,17.5-2.455,39.055,39.055,0,0,0,13.43-7.091,31.531,31.531,0,0,0,8.644-11.225,35.08,35.08,0,0,0,3.044-14.858q0-36.306-51.665-36.281H331.475V238.311h14.6q45.7,0,45.714-34.076,0-31.533-34.878-31.52-19.619,0-36.794,13.179V165.349q17.683-10.561,42.094-10.574a65.229,65.229,0,0,1,21.047,3.207,48.624,48.624,0,0,1,16.148,9.045,40.14,40.14,0,0,1,10.4,13.956,43.136,43.136,0,0,1,3.671,17.94q0,36.569-36.932,47v0.526a57.678,57.678,0,0,1,17.439,4.585A46.317,46.317,0,0,1,407.8,260.26a41.266,41.266,0,0,1,9.1,13.38A42.447,42.447,0,0,1,420.185,290.628Z"/></svg>