<svg id="Слой_1" data-name="Слой 1" xmlns="http://www.w3.org/2000/svg" viewBox="0 0 500 500"><defs><style>.cls-1{fill:#303f9f;}.cls-2{fill:#fff;}</style></defs><title>иконки</title><path class="cls-1" d="M250.262,430.073q-77.462,0-154.924-.006c-17.789-.006-24.89-6.917-24.9-24.656q-0.08-141.77,0-283.541c0.011-18.155,7.184-25.113,25.347-25.132,9.5-.01,19.012.251,28.491-0.194a8.758,8.758,0,0,0,6.288-4.047c7.134-14.436,18.274-22.619,34.557-22.591,16.309,0.027,27.357,8.389,34.473,22.768,0.911,1.84,3.735,3.87,5.689,3.886q44.574,0.369,89.152,0c1.944-.016,4.774-2.081,5.655-3.926,6.965-14.583,18.2-22.69,34.434-22.724,16.28-.034,27.369,8.322,34.561,22.676a8.743,8.743,0,0,0,6.334,3.967c10.7,0.411,21.431.051,32.146,0.224,13.98,0.225,21.935,7.863,21.951,21.758q0.161,145.059,0,290.117c-0.017,14.145-8.019,21.384-22.864,21.4Q328.455,430.136,250.262,430.073ZM409.735,116.729c-12.282,0-23.719-.162-35.141.17-1.775.052-4.331,1.983-5.091,3.686-6.835,15.315-18.475,24-35.182,23.939-16.387-.06-27.828-8.667-34.67-23.628-0.846-1.85-3.648-3.977-5.561-3.993q-44.208-.38-88.42-0.01a7.791,7.791,0,0,0-5.725,3.828c-6.907,15.308-18.579,23.929-35.285,23.806-16.394-.12-27.819-8.824-34.513-23.808-0.683-1.53-2.3-3.736-3.52-3.765-12.044-.283-24.1-0.171-35.892-0.171v72.749h319v-72.8Zm-0.034,93.7H344.97v53.794H409.7V210.433ZM344.847,338.951h65.216c0-17.191.125-33.916-.235-50.631-0.029-1.35-3.346-3.7-5.2-3.764-10.2-.375-20.421-0.186-30.635-0.188-9.622,0-19.243,0-29.144,0v54.583Zm-254.3-74.922h64.09V210.2H90.545v53.827Zm84.67-.019h64.314v-53.62H175.214v53.62Zm84.927,0.026h64.091V210.2H260.141v53.84ZM154.718,339.065V284.818H90.584v54.248h64.134Zm20.6-.044h64.116V284.8H175.315v54.219Zm148.995,0.044V284.818H260.176v54.248H324.31Zm85.173,71.156V359.96H344.97v50.261h64.514Zm-319-.5h64.3V359.9h-64.3v49.825Zm84.8,0h64.3V359.9h-64.3v49.825Zm84.851,0.438h64.091V359.774H260.132v50.388Zm91.952-302.694c0.153-9.361-8.035-17.921-17.293-18.078-9.112-.155-17.894,8.377-18.011,17.5-0.12,9.322,8.051,17.768,17.446,18.033C343.489,125.18,351.93,116.933,352.084,107.468Zm-169.5-.6c-0.152-9.317-8.729-17.7-17.892-17.5-9.091.206-17.68,9.1-17.477,18.1,0.206,9.151,8.962,17.6,18.1,17.461C174.637,124.793,182.734,116.323,182.58,106.871Z"/><path class="cls-2" d="M328.577,432.657H289.364l-194.032-.025c-19.23-.025-27.449-8.168-27.461-27.211q-0.075-141.8,0-283.557c0.013-19.393,8.356-27.662,27.912-27.687l7.529,0.025c6.815,0.05,13.919.075,20.834-.226a6.419,6.419,0,0,0,4.109-2.606c7.893-15.961,20.27-24.029,36.794-24.029h0.075c16.462,0.025,28.827,8.168,36.769,24.2A5.855,5.855,0,0,0,205.327,94c29.566,0.251,59.545.251,89.086,0a5.8,5.8,0,0,0,3.357-2.481c7.642-16.011,20.007-24.129,36.744-24.179H334.6c16.387,0,28.764,8.093,36.769,24.079A6.5,6.5,0,0,0,375.531,94c6.226,0.2,12.515.15,18.779,0.175,4.472-.025,8.882-0.025,13.292.05,15.547,0.251,24.467,9.1,24.48,24.3q0.169,145.073,0,290.122c-0.025,15.434-9.058,23.928-25.432,23.953Q367.62,432.645,328.577,432.657ZM95.783,99.289c-16.8.025-22.763,5.938-22.776,22.575q-0.075,141.766,0,283.557c0.013,16.286,5.851,22.074,22.325,22.1H289.364q58.574,0,117.286-.025c13.63-.025,20.27-6.189,20.3-18.842q0.169-145.073,0-290.122c-0.013-12.353-6.727-18.967-19.418-19.193-4.385-.025-8.795,0-13.192-0.025-6.339.025-12.678,0.05-19.017-.2a11.288,11.288,0,0,1-8.532-5.387C359.621,79.42,349.1,72.454,334.6,72.454h-0.075c-14.8.05-25.306,7.016-32.122,21.272-1.19,2.506-4.836,5.362-7.93,5.387-29.591.276-59.6,0.276-89.211,0-3.157-.025-6.727-2.806-7.968-5.287-7.1-14.357-17.627-21.348-32.172-21.373H165.05c-14.608,0-25.144,6.94-32.184,21.172a11.192,11.192,0,0,1-8.481,5.462c-7.041.351-14.219,0.251-21.11,0.251Zm316.267,313.5H342.407V357.414H412.05v55.373Zm-64.506-5.111h59.37V362.526h-59.37v45.151ZM326.8,412.713H257.568v-55.5H326.8v55.5ZM262.7,407.6h58.956V362.325H262.7V407.6Zm-20.546,4.685H172.717V357.339h69.442v54.947Zm-64.306-5.111h59.169V362.451H177.853v44.725Zm-20.5,5.111H87.915V357.339h69.442v54.947Zm-64.306-5.111h59.169V362.451H93.052v44.725Zm233.821-65.546H257.606V282.272h69.267v59.357Zm-64.13-5.111h58.994V287.383H262.742v49.134Zm-105.46,5.111H88.016V282.272h69.267v59.357Zm-64.13-5.111h58.994V287.383H93.152v49.134ZM242,341.579H172.742V282.247H242v59.332Zm-64.118-5.111H236.86V287.358H177.878v49.109ZM412.626,341.5H342.282V281.821l39.6-.025c7.467-.075,15.234-0.1,22.838.2,2.831,0.1,7.592,3.182,7.68,6.239,0.276,13.28.251,26.259,0.238,39.989Zm-65.208-5.111H407.49L407.5,328.2c0.025-13.68.038-26.634-.238-39.839a16.52,16.52,0,0,0-2.744-1.253c-7.5-.3-15.171-0.226-22.613-0.2l-34.489.025v49.46Zm64.844-69.605H342.407V207.881h69.856v58.906Zm-64.719-5.111h59.583V212.993H347.544v48.683ZM326.8,266.587H257.568V207.631H326.8v58.956ZM262.7,261.476h58.956V212.742H262.7v48.734Zm-105.5,5.111H87.978V207.656h69.229v58.931Zm-64.093-5.111h58.956V212.767H93.114v48.709ZM242.1,266.562H172.642V207.831H242.1v58.731Zm-64.318-5.111H236.96V212.942H177.778v48.508ZM412.3,192.1H88.166V114.222l10.022-.025c9.358-.025,18.942-0.05,28.5.2,3.458,0.05,5.713,5.061,5.8,5.287,6.565,14.683,17.389,22.174,32.184,22.275h0.338c14.958,0,25.92-7.517,32.585-22.3,1.278-2.781,5.124-5.312,8.068-5.312,29.328-.251,59.094-0.251,88.447,0,3.082,0.025,6.7,2.906,7.868,5.462,6.7,14.658,17.577,22.1,32.36,22.149h0.2c15.008,0,25.983-7.542,32.623-22.425,1.052-2.38,4.335-5.111,7.354-5.187,8.694-.251,17.389-0.2,26.409-0.2l11.375,0.025V192.1Zm-319-5.111H407.164v-67.7h-6.251c-9.02-.1-17.627-0.05-26.246.175a5.069,5.069,0,0,0-2.819,2.155c-7.442,16.662-20.345,25.457-37.308,25.457h-0.226c-16.712-.05-29.5-8.719-36.995-25.106a5.68,5.68,0,0,0-3.27-2.506c-29.278-.251-59.032-0.251-88.359,0a5.538,5.538,0,0,0-3.42,2.33c-7.467,16.537-20.345,25.281-37.258,25.281h-0.376c-16.737-.1-29.478-8.845-36.832-25.306a6.633,6.633,0,0,0-1.7-2.355c-9.02-.1-18.541-0.075-27.9-0.075H93.3v67.651ZM334.628,127.5a3.032,3.032,0,0,1-.476-0.025c-10.749-.3-20.07-9.947-19.944-20.621a21.283,21.283,0,0,1,20.345-20.02h0.276a20.009,20.009,0,0,1,13.919,6.289,19.766,19.766,0,0,1-.539,28.689A19.856,19.856,0,0,1,334.628,127.5Zm-0.075-35.554a16.2,16.2,0,0,0-15.209,14.958c-0.1,7.993,6.89,15.209,14.958,15.459,3.808,0.3,7.442-1.428,10.348-4.259a15.3,15.3,0,0,0,4.861-10.7h0a15.254,15.254,0,0,0-4.46-10.724,15.055,15.055,0,0,0-10.3-4.736h-0.2Zm-169.49,35.529c-10.486.025-20.182-9.421-20.421-19.944-0.226-10.4,9.484-20.471,19.982-20.721,0.125,0,.251-0.025.376-0.025A20.01,20.01,0,0,1,178.68,92.6a20.53,20.53,0,0,1,6.464,14.232h0a20.413,20.413,0,0,1-5.888,14.432,19.908,19.908,0,0,1-13.906,6.214h-0.288ZM165,91.923h-0.263c-7.717.2-15.134,7.868-14.958,15.51,0.163,7.717,7.567,14.933,15.284,14.933h0.213a14.87,14.87,0,0,0,10.3-4.66,15.319,15.319,0,0,0,4.435-10.774h0a15.357,15.357,0,0,0-4.9-10.649A14.835,14.835,0,0,0,165,91.923Z"/></svg>