<svg id="Слой_1" data-name="Слой 1" xmlns="http://www.w3.org/2000/svg" viewBox="0 0 500 500"><defs><style>.cls-1{fill:#999;}</style></defs><title>иконки</title><path class="cls-1" d="M44.636,36.845H146.51V52.428H52.428V158.27H36.845V36.845h7.791ZM188.406,304.391a52.433,52.433,0,0,1-24.99,6.174c-25.138,0-40.132-13.818-44.983-41.749H107.995V254.851h8.82a32.945,32.945,0,0,1-.294-5.733c0-2.5.147-5.145,0.441-8.232h-8.967V227.214h10.878c2.94-13.377,8.673-23.814,17.052-31.312,8.526-7.5,18.669-11.319,30.724-11.319a47.39,47.39,0,0,1,21.756,4.851v17.052a35.823,35.823,0,0,0-21.168-6.615,25.838,25.838,0,0,0-18.081,7.35c-5.292,5-8.967,11.613-11.025,19.992h39.4v13.671h-41.6a63.746,63.746,0,0,0-.147,13.965h41.749v13.965H137.689c3.822,17.787,13.377,26.608,28.666,26.608,7.056,0,14.406-2.352,22.05-7.35v16.317Zm170.965,3.528v18.375H348.933v-17.64c-12.642,0-22.786-2.5-30.724-7.35V282.341q5.072,4.41,14.112,7.5a50.607,50.607,0,0,0,16.611,3.087v-37.78q-20.066-9.261-26.02-17.2c-3.969-5.145-5.88-11.319-5.88-18.522A30.316,30.316,0,0,1,326,197.52q9.041-9.261,22.933-11.025V171.206H359.37V186.2c11.907,0.294,20.139,1.911,24.7,4.7v18.228c-6.174-4.557-14.406-7.056-24.7-7.35v39.25q18.743,8.6,25.579,16.758a28.9,28.9,0,0,1-1.764,39.4c-5.586,5.586-13.671,9.261-23.815,10.731h0Zm-10.437-71.738V202.224a17.979,17.979,0,0,0-10.143,5.439,14.618,14.618,0,0,0-3.675,10.143c0,4.116.882,7.644,2.94,10.29s5.733,5.292,10.878,8.085h0ZM359.37,259.7v32.782c9.7-2.058,14.406-7.056,14.406-15.141,0-6.615-4.7-12.5-14.406-17.64h0Zm-71.3-73.061L229.126,328.794H211.191l58.654-142.152h18.228ZM52.428,365.1v82.469H146.51v15.582H36.845V365.1H52.428ZM353.343,36.845H463.155V158.27H447.572V52.428H353.343V36.845ZM463.155,365.1v98.051H353.343V447.572h94.229V365.1h15.582Z"/></svg>