<svg id="Слой_1" data-name="Слой 1" xmlns="http://www.w3.org/2000/svg" viewBox="0 0 500 500"><defs><style>.cls-1{fill:#303f9f;}</style></defs><title>иконки</title><path class="cls-1" d="M247.054,226.431V83.723h5.892V226.431h-5.892ZM381.16,215H354.645l-17.087-32.289a32.368,32.368,0,0,1-2-6.6h-0.236a54.677,54.677,0,0,1-2.239,6.953L315.992,215H289.36l31.582-49.494L292.07,116.012h27.1l14.141,29.7a40.513,40.513,0,0,1,2.946,8.367h0.354a73.626,73.626,0,0,1,3.064-8.72l15.791-29.343h24.865l-29.7,49.023ZM83.723,244.108H416.277v11.784H83.723V244.108Zm169.223,29.461V416.277h-5.892V273.569h5.892Z"/></svg>