<svg id="Слой_1" data-name="Слой 1" xmlns="http://www.w3.org/2000/svg" viewBox="0 0 500 500"><defs><style>.cls-1{fill:#999;fill-rule:evenodd;}</style></defs><title>иконки</title><path class="cls-1" d="M216.818,67.686c78.231-9.239,148.414,48.726,157.206,127.4C383.412,278.685,319.486,344.4,246.471,352.3c-82.85,8.643-149.16-53.495-157.057-127.255C80.92,145.469,138.14,76.924,216.818,67.686h0Zm82.85,401.285V451.388l-58.71-.149c0-52.75-5.513-41.723,18.924-45.15,40.978-5.662,71.823-22.352,102.668-46.789,13.262-10.431,29.8-31.739,38.891-46.64,38.147-61.988,36.359-138.282,2.831-200.419-16.987-31.59-55.581-70.184-87.916-81.807l-7.3,15.8c6.855,6.556,60.2,25.928,88.065,92.834,38.147,91.343-1.49,196.843-96.261,236.927-33.676,14.305-78.379,18.328-115.334,7.749-7.9-2.384-27.865-10.431-33.08-10.878L146.038,388.8c18.477,10.878,51.707,17.136,75.7,18.924,2.086,7.152.745,34.272,0.745,43.511h-59.6v18.328ZM70.49,218.782c4.47,86.128,78.38,156.908,169.872,152.289C326.49,366.75,397.269,293.139,392.8,201.646c-4.172-86.575-77.486-157.355-169.723-152.885C136.948,53.083,65.721,126.843,70.49,218.782h0Z"/></svg>