<svg id="Слой_1" data-name="Слой 1" xmlns="http://www.w3.org/2000/svg" viewBox="0 0 500 500"><defs><style>.cls-1{fill:#303f9f;stroke:#303f9f;stroke-miterlimit:10;stroke-width:5px;}</style></defs><title>иконки</title><path class="cls-1" d="M149.463,85.175L387.021,250.259A28.635,28.635,0,0,0,378.2,262.9L140.5,97.964a28.557,28.557,0,0,0,8.967-12.789h0ZM390.4,297.447L268.683,410.934A31.268,31.268,0,0,0,258.1,399.615L379.818,286.128A30.067,30.067,0,0,0,390.4,297.447h0ZM214.145,419.166l-98.051-47.629a29.108,29.108,0,0,0,6.762-13.818l0.147-.147,97.9,47.629a27.967,27.967,0,0,0-6.762,13.671v0.294Zm-124.806-95.7,22.05-220.652a49.6,49.6,0,0,0,5,1.47,31.1,31.1,0,0,0,10.437,0l-22.05,220.8a19.562,19.562,0,0,0-5-1.47,27.741,27.741,0,0,0-10.437-.147h0Z"/><path class="cls-1" d="M442.147,278.778h0L442,279.66a36.774,36.774,0,0,1-15.582,23.521,37.187,37.187,0,0,1-26.9,5.88h0l-0.735-.147a36.839,36.839,0,0,1-13.671-66.886,36.8,36.8,0,0,1,27.637-5.733,37.09,37.09,0,0,1,29.4,42.484h0Zm-24.4,11.613a22.214,22.214,0,0,0,8.967-13.671h0a21.241,21.241,0,0,0-3.234-16.17,22.214,22.214,0,0,0-13.671-8.967,21.527,21.527,0,0,0-16.023,3.234,21.819,21.819,0,0,0-9.114,13.671,21.439,21.439,0,0,0,3.381,16.023,21.123,21.123,0,0,0,13.524,9.114h0a22.6,22.6,0,0,0,16.17-3.234h0Z"/><path class="cls-1" d="M279.12,430.632h0l-0.147.735a36.74,36.74,0,0,1-42.337,29.4h0l-0.882-.147a36.231,36.231,0,0,1-23.521-15.582,36.655,36.655,0,0,1-5.88-26.755h0l0.147-.882a36.909,36.909,0,0,1,72.62,13.23h0Zm-24.4,11.466a21.123,21.123,0,0,0,9.114-13.524h0a21.955,21.955,0,0,0-3.381-16.17,21.439,21.439,0,0,0-29.695-5.733,21.816,21.816,0,0,0-8.967,13.671h0a21.26,21.26,0,0,0,16.758,24.991l0.147,0.147a21.585,21.585,0,0,0,16.023-3.381h0Z"/><path class="cls-1" d="M130.647,358.454h0l-0.147.735a36.722,36.722,0,0,1-15.582,23.668,36.064,36.064,0,0,1-26.755,5.733H88.016l-0.735-.147a36.767,36.767,0,0,1-29.254-43.219,36.74,36.74,0,0,1,42.337-29.4h0.147l0.735,0.147a36.784,36.784,0,0,1,29.4,42.484h0Zm-24.4,11.466a20.934,20.934,0,0,0,8.967-13.524v-0.147a21.013,21.013,0,0,0-3.234-16.023,21.3,21.3,0,0,0-13.524-8.967H98.306A21.385,21.385,0,0,0,76.55,364.187a20.759,20.759,0,0,0,13.524,8.967l0.147,0.147a21.731,21.731,0,0,0,16.023-3.381h0Z"/><path class="cls-1" d="M158.137,82.528A36.721,36.721,0,0,1,142.554,106.2a36.1,36.1,0,0,1-27.637,5.586,36.9,36.9,0,0,1,13.965-72.473,36.767,36.767,0,0,1,29.254,43.219h0ZM133.881,93.26a20.759,20.759,0,0,0,8.967-13.524A21.262,21.262,0,0,0,125.943,54.6a21.385,21.385,0,0,0-21.757,32.929,21.438,21.438,0,0,0,13.671,9.114,21.731,21.731,0,0,0,16.023-3.381h0Z"/></svg>