<svg id="Слой_1" data-name="Слой 1" xmlns="http://www.w3.org/2000/svg" viewBox="0 0 500 500"><defs><style>.cls-1{fill:#999;}</style></defs><title>иконки</title><path class="cls-1" d="M249.926,35.305A214.749,214.749,0,1,1,98.2,98.2a213.951,213.951,0,0,1,151.723-62.9h0Zm75.125,140.822,66.287-66.287-0.589-.589A198.207,198.207,0,0,0,257.733,51.067v93.98a105.871,105.871,0,0,1,66.728,30.492Zm76.892-54.8-66.876,66.728A105.175,105.175,0,0,1,179.81,328.292l-67.76,65.255A199.1,199.1,0,0,0,401.944,121.33h0ZM101.3,382.352L168.909,317.1a105.2,105.2,0,0,1,73.21-172.05V51.067A199.077,199.077,0,0,0,101.3,382.352h0ZM313.414,186.586a89.795,89.795,0,1,0,26.22,63.34,89.627,89.627,0,0,0-26.22-63.34h0Z"/></svg>