<svg id="Слой_1" data-name="Слой 1" xmlns="http://www.w3.org/2000/svg" viewBox="0 0 500 500"><defs><style>.cls-1{fill:#303f9f;}</style></defs><title>иконки</title><path class="cls-1" d="M249.214,148.509c31.4,1.746,59.534,12.506,86.626,26.483,32.1,16.561,61.43,37.311,88.958,60.617,9.964,8.436,10.159,22.332-.99,30.842-22.527,17.2-45.231,34.332-69.1,49.559-27.229,17.374-56.749,30.014-89.291,34.434-26.363,3.581-51.161-2.4-75.156-12.11-42.527-17.209-79.942-42.819-114.714-72.391-10.14-8.623-10.445-22-.438-30.359,40.461-33.8,83.233-63.985,134.56-79.229C222.5,152.547,236.016,151.062,249.214,148.509Zm6.659,189.053c6.185-1.151,18.7-2.292,30.47-5.876,48.548-14.778,89.1-43.477,127.753-75.219,5.83-4.787,3.118-8.585-1.547-12.416-27.248-22.379-56.044-42.363-87.436-58.615-43.368-22.452-87.257-28.246-133.241-7.636-38.377,17.2-72.6,40.575-104.946,67.045-5.9,4.831-4.615,9.078,1,12.955,25.781,17.8,50.856,36.762,77.575,53.021C191.03,326.357,218.974,336.822,255.873,337.562Z"/><path class="cls-1" d="M315.5,250.894c0.08,36.53-28.745,65.314-65.417,65.324a64.557,64.557,0,0,1-65.1-64.773c-0.092-36.85,28.445-65.729,64.958-65.737C286.725,185.7,315.419,214.231,315.5,250.894Zm-65.206,51.618c28.276-.057,51.888-23.781,51.53-51.774C301.465,222.763,278.3,199.5,250.59,199.3c-27.915-.208-52.063,23.735-51.992,51.551C198.669,279.2,222.054,302.569,250.294,302.512Z"/></svg>