<svg id="Слой_1" data-name="Слой 1" xmlns="http://www.w3.org/2000/svg" viewBox="0 0 500 500"><defs><style>.cls-1{fill:#303f9f;}.cls-2{fill:#fff;}</style></defs><title>иконки</title><path class="cls-1" d="M214.73,377.387q-77.462,0-154.924-.006c-17.789-.006-24.89-6.917-24.9-24.656q-0.08-141.77,0-283.541c0.011-18.155,7.184-25.113,25.347-25.132,9.5-.01,19.012.251,28.491-0.194a8.758,8.758,0,0,0,6.288-4.047c7.134-14.436,18.274-22.619,34.557-22.591,16.309,0.027,27.357,8.389,34.473,22.768,0.911,1.84,3.735,3.87,5.689,3.886q44.574,0.369,89.152,0c1.944-.016,4.774-2.081,5.655-3.926,6.965-14.583,18.2-22.69,34.434-22.724,16.28-.034,27.369,8.322,34.561,22.676a8.743,8.743,0,0,0,6.334,3.967c10.7,0.411,21.431.051,32.146,0.224,13.98,0.225,21.935,7.863,21.951,21.758q0.161,145.059,0,290.117c-0.017,14.145-8.019,21.384-22.864,21.4Q292.922,377.45,214.73,377.387ZM374.2,64.043c-12.282,0-23.719-.162-35.141.17-1.775.052-4.331,1.983-5.091,3.686-6.835,15.315-18.475,24-35.182,23.939-16.387-.06-27.828-8.667-34.67-23.628-0.846-1.85-3.648-3.977-5.561-3.993q-44.208-.38-88.42-0.01a7.791,7.791,0,0,0-5.725,3.828c-6.907,15.308-18.579,23.929-35.285,23.806-16.394-.12-27.819-8.824-34.513-23.808-0.683-1.53-2.3-3.736-3.52-3.765C79.051,63.984,67,64.1,55.2,64.1v72.749h319v-72.8Zm-0.034,93.7H309.437v53.794h64.731V157.747ZM309.314,286.265H374.53c0-17.191.125-33.916-.235-50.631-0.029-1.35-3.346-3.7-5.2-3.764-10.2-.375-20.421-0.186-30.635-0.188-9.622,0-19.243,0-29.144,0v54.583Zm-254.3-74.922H119.1V157.516H55.012v53.827Zm84.67-.019H204V157.7H139.682v53.62Zm84.927,0.026H288.7v-53.84H224.608v53.84ZM119.185,286.379V232.132H55.051v54.248h64.134Zm20.6-.044H203.9V232.117H139.782v54.219Zm148.995,0.044V232.132H224.644v54.248h64.134Zm85.173,71.156V307.274H309.437v50.261h64.514Zm-319-.5h64.3V307.213h-64.3v49.825Zm84.8,0h64.3V307.213h-64.3v49.825Zm84.851,0.438h64.091V307.088H224.6v50.388ZM316.552,54.782c0.153-9.361-8.035-17.921-17.293-18.078-9.112-.155-17.894,8.377-18.011,17.5-0.12,9.322,8.051,17.768,17.446,18.033C307.956,72.494,316.4,64.247,316.552,54.782Zm-169.5-.6c-0.152-9.317-8.729-17.7-17.892-17.5-9.091.206-17.68,9.1-17.477,18.1,0.206,9.151,8.962,17.6,18.1,17.461C139.1,72.107,147.2,63.637,147.047,54.185Z"/><path class="cls-2" d="M111.452,379.966q-25.82,0-51.653-.025c-19.23,0-27.449-8.118-27.461-27.211q-0.075-141.766,0-283.557C32.35,49.78,40.694,41.512,60.25,41.487l7.73,0.025c6.8,0.05,13.793.075,20.646-.2a6.39,6.39,0,0,0,4.1-2.631c7.893-15.936,20.245-24,36.719-24H129.6c16.462,0.025,28.827,8.143,36.757,24.179a5.681,5.681,0,0,0,3.4,2.455c29.591,0.276,59.558.276,89.124,0a5.521,5.521,0,0,0,3.357-2.481C269.88,22.82,282.245,14.7,298.995,14.677h0.15c16.336,0,28.689,8.093,36.694,24.079A6.568,6.568,0,0,0,340,41.311c6.226,0.226,12.515.15,18.779,0.175,4.4,0,8.857-.05,13.292.05,15.547,0.251,24.467,9.1,24.48,24.3q0.169,145.073,0,290.122c-0.025,15.434-9.058,23.928-25.432,23.953q-58.649.038-117.286,0.05l-39.1-.025-51.64.025h-51.64ZM60.25,46.6c-16.8.025-22.763,5.938-22.776,22.575q-0.075,141.8,0,283.557c0.013,16.311,5.851,22.1,22.325,22.1H253.831q58.612,0,117.286-.025c13.63-.025,20.27-6.189,20.3-18.842q0.169-145.073,0-290.122c-0.013-12.353-6.727-18.967-19.418-19.193-4.385-.025-8.795,0-13.192-0.025-6.339.025-12.678,0.05-19.017-.2a11.3,11.3,0,0,1-8.532-5.362c-7.166-14.307-17.677-21.272-32.109-21.272h-0.138c-14.808.025-25.319,6.991-32.134,21.247-1.2,2.556-4.873,5.387-7.968,5.387-29.566.251-59.583,0.251-89.174,0-3.145,0-6.74-2.781-7.98-5.312-7.078-14.307-17.6-21.3-32.159-21.323h-0.15c-14.57,0-25.068,6.94-32.109,21.147a11.2,11.2,0,0,1-8.481,5.487c-6.991.326-14.069,0.3-20.909,0.226ZM376.517,360.1H306.875V304.723h69.643V360.1Zm-64.506-5.111h59.37V309.835h-59.37v45.151Zm-20.746,5.036H222.036v-55.5h69.229v55.5Zm-64.093-5.111h58.956V309.634H227.172V354.91ZM206.626,359.6H137.184V304.648h69.442V359.6Zm-64.306-5.111H201.49V309.759H142.32v44.725Zm-20.5,5.111H52.383V304.648h69.442V359.6Zm-64.306-5.111h59.169V309.759H57.519v44.725ZM291.34,288.938H222.073V229.581H291.34v59.357Zm-64.13-5.111H286.2V234.692H227.21v49.134Zm-105.46,5.111H52.483V229.581H121.75v59.357Zm-64.13-5.111h58.994V234.692H57.619v49.134Zm148.844,5.061H137.209V229.556h69.254v59.332Zm-64.118-5.111h58.981V234.667H142.345v49.109Zm234.748,5.036H306.749V229.13l39.6-.025c7.467-.075,15.2-0.1,22.838.2,2.831,0.1,7.592,3.182,7.68,6.264,0.276,13.255.251,26.233,0.238,39.964ZM311.886,283.7h60.071l0.013-8.193c0.025-13.68.038-26.634-.238-39.814a14.228,14.228,0,0,0-2.744-1.278c-7.5-.276-15.171-0.226-22.613-0.2l-34.489.025V283.7ZM376.73,214.1H306.875V155.19H376.73V214.1Zm-64.719-5.111h59.583V160.3H312.011v48.683ZM291.265,213.9H222.036V154.964h69.229V213.9Zm-64.093-5.111h58.956V160.076H227.172v48.709Zm-105.5,5.111H52.445V154.964h69.229V213.9Zm-64.093-5.111h58.956V160.076H57.582v48.709Zm148.982,5.086H137.109V155.14h69.455v58.731Zm-64.318-5.111h59.182V160.251H142.245v48.508ZM376.768,139.4H52.633V61.531l10.022-.025c9.358-.05,18.942-0.05,28.5.2,3.458,0.05,5.713,5.061,5.8,5.287,6.565,14.683,17.389,22.174,32.2,22.3h0.326c14.946,0,25.908-7.517,32.585-22.3,1.265-2.806,5.111-5.337,8.068-5.337,29.328-.251,59.094-0.251,88.447,0,3.094,0.025,6.715,2.932,7.88,5.512,6.677,14.608,17.564,22.049,32.347,22.124h0.138c15.034,0,26.033-7.567,32.685-22.45,1.052-2.38,4.335-5.111,7.354-5.187,8.682-.251,17.351-0.175,26.409-0.2l11.375,0.025V139.4Zm-319-5.111H371.631v-67.7H365.38c-8.97-.075-17.614-0.05-26.246.175a5.069,5.069,0,0,0-2.819,2.155C328.874,85.61,315.945,94.4,298.932,94.4h-0.15c-16.725-.075-29.516-8.744-36.995-25.106a5.759,5.759,0,0,0-3.27-2.531c-29.3-.251-59.032-0.251-88.359,0a5.48,5.48,0,0,0-3.408,2.33C159.258,85.66,146.379,94.4,129.479,94.4H129.1c-16.75-.125-29.491-8.895-36.832-25.331a6.633,6.633,0,0,0-1.7-2.355c-9.02-.1-18.479-0.075-27.9-0.075h-4.9v67.651Zm71.81-59.483c-10.511,0-20.233-9.446-20.471-19.97a20.2,20.2,0,0,1,5.976-14.182,20.465,20.465,0,0,1,14.006-6.515,2.361,2.361,0,0,1,.426-0.025,20.027,20.027,0,0,1,13.605,5.763,20.563,20.563,0,0,1,6.489,14.257h0a20.54,20.54,0,0,1-5.876,14.432,20.046,20.046,0,0,1-13.919,6.239H129.58ZM129.5,39.257h-0.288a15.435,15.435,0,0,0-10.436,4.986,14.951,14.951,0,0,0-4.535,10.5c0.163,7.742,7.592,14.958,15.334,14.958h0.163a15.059,15.059,0,0,0,10.31-4.685,15.306,15.306,0,0,0,4.422-10.774h0a15.357,15.357,0,0,0-4.9-10.649A14.854,14.854,0,0,0,129.5,39.257ZM299.132,74.811a3.527,3.527,0,0,1-.514-0.025c-10.749-.276-20.07-9.922-19.944-20.621A20.318,20.318,0,0,1,285.1,40.134a20.277,20.277,0,0,1,13.919-5.988H299.3A19.981,19.981,0,0,1,313.2,40.434a20.457,20.457,0,0,1,5.913,14.407,20.57,20.57,0,0,1-6.464,14.332A19.9,19.9,0,0,1,299.132,74.811ZM299.02,39.257a16.2,16.2,0,0,0-15.209,14.958c-0.1,7.868,7.028,15.234,14.946,15.459A15.239,15.239,0,0,0,309.1,65.465a15.414,15.414,0,0,0,4.873-10.724h0a15.268,15.268,0,0,0-4.46-10.749,15.079,15.079,0,0,0-10.3-4.736h-0.2Z"/><circle class="cls-2" cx="339.414" cy="357.037" r="128.286"/><path class="cls-1" d="M341.7,250.366A106.675,106.675,0,1,0,448.361,357.028,106.786,106.786,0,0,0,341.7,250.366Zm89.9,106.663a89.907,89.907,0,1,1-89.9-89.875A89.992,89.992,0,0,1,431.6,357.028Z"/><path class="cls-1" d="M420.812,369.907H329.96V353.12h90.852v16.787Z"/><path class="cls-1" d="M346.7,365.372H329.935V274.494H346.7v90.878Z"/></svg>