<svg id="Слой_1" data-name="Слой 1" xmlns="http://www.w3.org/2000/svg" viewBox="0 0 500 500"><defs><style>.cls-1{fill:#999;}</style></defs><title>иконки</title><path class="cls-1" d="M238.534,186.642V311.3H218.688V210.75a55.416,55.416,0,0,1-11.466,6.615,113.16,113.16,0,0,1-14.112,4.7V205.164c3.381-1.029,6.468-2.205,9.555-3.381s6.027-2.5,9.114-3.969c2.94-1.47,5.88-3.087,8.967-5,2.94-1.764,6.174-3.822,9.408-6.174h8.379Zm-193.9-149.8H146.51V52.428H52.428V158.27H36.845V36.845h7.791ZM52.428,365.1v82.469H146.51v15.582H36.845V365.1H52.428ZM353.49,36.845H463.155V158.27H447.572V52.428H353.49V36.845ZM463.155,365.1v98.051H353.49V447.572h94.082V365.1h15.582ZM62.865,277.637l55.273-55.273,55.273,55.273H62.865ZM341.142,311.3H264.553v-9.408a37.427,37.427,0,0,1,1.617-10.878,40.122,40.122,0,0,1,4.41-9.555,48.209,48.209,0,0,1,6.321-8.379c2.5-2.646,5-5.145,7.791-7.644s5.586-4.851,8.526-7.2c2.94-2.205,5.733-4.557,8.526-6.909a76.852,76.852,0,0,0,7.056-6.468,33.388,33.388,0,0,0,5.586-6.615,21.932,21.932,0,0,0,3.528-7.2,24.178,24.178,0,0,0,1.323-8.232,21.318,21.318,0,0,0-1.47-8.379,17.568,17.568,0,0,0-4.116-6.027,20.016,20.016,0,0,0-6.468-3.675,22.532,22.532,0,0,0-7.938-1.176,35.835,35.835,0,0,0-15.141,3.381,51.927,51.927,0,0,0-14.994,10.584V198.4a83.611,83.611,0,0,1,7.644-4.851,47.731,47.731,0,0,1,7.938-3.381,51.73,51.73,0,0,1,8.526-2.205,65.4,65.4,0,0,1,9.555-.588,52.072,52.072,0,0,1,14.994,2.058,31.131,31.131,0,0,1,11.466,6.468,28.026,28.026,0,0,1,7.35,10.437,37.778,37.778,0,0,1,2.646,14.553,41.7,41.7,0,0,1-1.911,13.23,37.787,37.787,0,0,1-5.145,11.025,54.469,54.469,0,0,1-8.085,9.7c-3.234,3.087-6.762,6.174-10.584,9.408-3.381,2.646-6.615,5.292-9.849,7.791s-6.174,5-8.82,7.5a35.268,35.268,0,0,0-6.321,7.2,12.574,12.574,0,0,0-2.5,7.2v0.441h55.126V311.3Zm22.2-4.557V288.221a41.981,41.981,0,0,0,26.9,9.408c8.085,0,14.553-1.764,19.4-5.439A17.871,17.871,0,0,0,417,277.2q0-20.727-31.753-20.728h-9.408V240.592H384.8c18.816,0,28.078-6.468,28.078-19.551,0-11.907-7.2-17.934-21.9-17.934-8.085,0-15.729,2.94-22.932,8.673V194.286c8.232-4.557,17.934-6.909,29.254-6.909,10.878,0,19.551,2.646,26.02,8.085a26.329,26.329,0,0,1,9.849,20.874c0,16.17-8.232,26.461-24.55,31.018v0.441c8.82,0.735,15.729,3.822,20.874,9.114a27.887,27.887,0,0,1,7.644,19.845q0,16.538-12.348,26.461c-8.232,6.762-19.11,10.143-32.488,10.143-12.054,0-21.756-2.205-28.96-6.615h0Z"/></svg>